<?xml version="1.0" encoding="UTF-8" standalone="no"?>
<!-- Created with Inkscape (http://www.inkscape.org/) -->

<svg
   xmlns:dc="http://purl.org/dc/elements/1.1/"
   xmlns:cc="http://creativecommons.org/ns#"
   xmlns:rdf="http://www.w3.org/1999/02/22-rdf-syntax-ns#"
   xmlns:svg="http://www.w3.org/2000/svg"
   xmlns="http://www.w3.org/2000/svg"
   xmlns:sodipodi="http://sodipodi.sourceforge.net/DTD/sodipodi-0.dtd"
   xmlns:inkscape="http://www.inkscape.org/namespaces/inkscape"
   width="246.94444mm"
   height="176.37433mm"
   viewBox="0 0 246.94444 176.37433"
   version="1.1"
   id="svg8"
   inkscape:version="0.92.4 (f8dce91, 2019-08-02)"
   sodipodi:docname="hamburger_menu.svg">
  <defs
     id="defs2" />
  <sodipodi:namedview
     id="base"
     pagecolor="#ffffff"
     bordercolor="#666666"
     borderopacity="1.0"
     inkscape:pageopacity="0.0"
     inkscape:pageshadow="2"
     inkscape:zoom="0.49497475"
     inkscape:cx="252.64822"
     inkscape:cy="221.2937"
     inkscape:document-units="mm"
     inkscape:current-layer="g99"
     showgrid="false"
     inkscape:window-width="1598"
     inkscape:window-height="860"
     inkscape:window-x="0"
     inkscape:window-y="0"
     inkscape:window-maximized="1"
     fit-margin-top="0"
     fit-margin-left="0"
     fit-margin-right="0"
     fit-margin-bottom="0" />
  <metadata
     id="metadata5">
    <rdf:RDF>
      <cc:Work
         rdf:about="">
        <dc:format>image/svg+xml</dc:format>
        <dc:type
           rdf:resource="http://purl.org/dc/dcmitype/StillImage" />
        <dc:title></dc:title>
      </cc:Work>
    </rdf:RDF>
  </metadata>
  <g
     inkscape:label="Layer 1"
     inkscape:groupmode="layer"
     id="layer1"
     transform="translate(18.111143,-42.505115)">
    <g
       id="g99"
       transform="translate(-4.5291953,3.6880495)">
      <path
         style="fill:#39e3ed;stroke-width:0.35277778"
         d="m 0.87379461,217.22532 c -3.27587191,-1.11698 -5.61046311,-2.74008 -8.40297091,-5.84207 -4.6168317,-5.12851 -6.0527717,-8.40622 -6.0527717,-13.81618 0,-8.00961 4.7958365,-14.62978 12.2707418,-16.93855 2.24109812,-0.6922 3.5339655,-0.70034 111.1746062,-0.70034 99.12819,0 109.0792,0.051 110.82326,0.5685 3.40104,1.00909 5.34908,2.24079 8.23439,5.20639 5.15716,5.30068 6.91089,9.02751 6.91089,14.68622 0,8.02278 -4.79193,14.62678 -12.29619,16.94598 -2.20816,0.68244 -3.8888,0.69277 -111.30139,0.6838 l -109.0593635,-0.009 z m 0,-70.55556 c -3.27587191,-1.11697 -5.61046311,-2.74007 -8.40297091,-5.84207 -4.6168317,-5.12851 -6.0527717,-8.40621 -6.0527717,-13.81618 0,-8.0096 4.7958365,-14.62978 12.2707418,-16.93854 2.24109812,-0.6922 3.5339655,-0.70035 111.1746062,-0.70035 99.12819,0 109.0792,0.0511 110.82326,0.56851 3.40104,1.00909 5.34908,2.24078 8.23439,5.20639 5.15716,5.30068 6.91089,9.0275 6.91089,14.68621 0,8.02279 -4.79193,14.62679 -12.29619,16.94599 -2.20816,0.68244 -3.8888,0.69276 -111.30139,0.68379 l -109.0593635,-0.009 z m 0,-70.555553 C -2.4020773,74.997231 -4.7366685,73.374133 -7.5291763,70.272136 c -4.6168317,-5.12851 -6.0527717,-8.406215 -6.0527717,-13.816181 0,-8.009601 4.7958365,-14.629777 12.2707418,-16.93854 2.24109812,-0.692205 3.5339655,-0.700349 111.1746062,-0.700349 99.12819,0 109.0792,0.05105 110.82326,0.56851 3.40104,1.009086 5.34908,2.240782 8.23439,5.206388 5.15716,5.300681 6.91089,9.027507 6.91089,14.686213 0,8.022788 -4.79193,14.626786 -12.29619,16.945987 -2.20816,0.682438 -3.8888,0.692764 -111.30139,0.683793 L 3.1749965,76.898852 Z"
         id="path103"
         inkscape:connector-curvature="0" />
      <path
         style="fill:#fc0089;stroke-width:0.35277778"
         d="m -1.3060937,214.52481 c -7.5492875,-2.4138 -12.2758543,-8.94304 -12.2758543,-16.95774 0,-8.00961 4.7958365,-14.62978 12.2707418,-16.93855 2.24109812,-0.6922 3.5339655,-0.70034 111.1746062,-0.70034 99.12819,0 109.0792,0.051 110.82326,0.5685 4.26554,1.26559 7.58019,3.71796 9.92162,7.34062 1.9068,2.95019 2.75422,5.94384 2.75422,9.72977 0,8.02278 -4.79193,14.62678 -12.29619,16.94598 -2.20846,0.68253 -3.87435,0.69262 -111.30139,0.67393 C 5.2296487,215.1688 0.62210319,215.14133 -1.3060937,214.52481 Z m 0,-70.55555 c -7.5492875,-2.41381 -12.2758543,-8.94304 -12.2758543,-16.95775 0,-8.0096 4.7958365,-14.62978 12.2707418,-16.93854 2.24109812,-0.6922 3.5339655,-0.70035 111.1746062,-0.70035 99.12819,0 109.0792,0.0511 110.82326,0.56851 4.26554,1.26558 7.58019,3.71796 9.92162,7.34061 1.9068,2.95019 2.75422,5.94384 2.75422,9.72977 0,8.02279 -4.79193,14.62679 -12.29619,16.94599 -2.20846,0.68253 -3.87435,0.69262 -111.30139,0.67393 C 5.2296487,144.61324 0.62210319,144.58577 -1.3060937,143.96926 Z m 0,-70.555561 C -8.8553812,70.999897 -13.581948,64.470665 -13.581948,56.455955 c 0,-8.009601 4.7958365,-14.629777 12.2707418,-16.93854 2.24109812,-0.692205 3.5339655,-0.700349 111.1746062,-0.700349 99.12819,0 109.0792,0.05105 110.82326,0.56851 4.26554,1.265583 7.58019,3.717959 9.92162,7.340609 1.9068,2.950192 2.75422,5.943842 2.75422,9.72977 0,8.022788 -4.79193,14.626786 -12.29619,16.945989 -2.20846,0.682529 -3.87435,0.692616 -111.30139,0.673928 C 5.2296487,74.057688 0.62210319,74.030219 -1.3060937,73.413699 Z"
         id="path101"
         inkscape:connector-curvature="0" />
    </g>
  </g>
</svg>
