<?xml version="1.0" encoding="UTF-8" standalone="no"?>
<svg
   xmlns:dc="http://purl.org/dc/elements/1.1/"
   xmlns:cc="http://creativecommons.org/ns#"
   xmlns:rdf="http://www.w3.org/1999/02/22-rdf-syntax-ns#"
   xmlns:svg="http://www.w3.org/2000/svg"
   xmlns="http://www.w3.org/2000/svg"
   xmlns:sodipodi="http://sodipodi.sourceforge.net/DTD/sodipodi-0.dtd"
   xmlns:inkscape="http://www.inkscape.org/namespaces/inkscape"
   viewBox="0 0 88.888 122.283"
   version="1.1"
   id="svg4"
   sodipodi:docname="Ruby.svg"
   width="88.888"
   height="122.283"
   inkscape:version="0.92.4 (f8dce91, 2019-08-02)">
  <metadata
     id="metadata10">
    <rdf:RDF>
      <cc:Work
         rdf:about="">
        <dc:format>image/svg+xml</dc:format>
        <dc:type
           rdf:resource="http://purl.org/dc/dcmitype/StillImage" />
        <dc:title></dc:title>
      </cc:Work>
    </rdf:RDF>
  </metadata>
  <defs
     id="defs8" />
  <sodipodi:namedview
     pagecolor="#ffffff"
     bordercolor="#666666"
     borderopacity="1"
     objecttolerance="10"
     gridtolerance="10"
     guidetolerance="10"
     inkscape:pageopacity="0"
     inkscape:pageshadow="2"
     inkscape:window-width="1598"
     inkscape:window-height="860"
     id="namedview6"
     showgrid="false"
     fit-margin-top="0"
     fit-margin-left="0"
     fit-margin-right="0"
     fit-margin-bottom="0"
     inkscape:zoom="1.84375"
     inkscape:cx="44.707"
     inkscape:cy="61.465"
     inkscape:window-x="0"
     inkscape:window-y="0"
     inkscape:window-maximized="1"
     inkscape:current-layer="svg4" />
  <path
     d="M 63.225,51.473 C 50.305,59.799 37.503,68.05 24.363,76.516 44.041,79.203 63.368,81.841 83.078,84.532 76.364,73.351 69.822,62.458 63.225,51.473 Z M 88.634,14.63 c -1.735,2.604 -3.473,5.207 -5.205,7.813 -5.95,8.951 -11.898,17.901 -17.841,26.855 -0.331,0.5 -0.76,0.896 -0.294,1.664 5.744,9.483 11.441,18.996 17.152,28.498 0.901,1.501 1.813,2.996 2.979,4.436 L 88.888,14.705 Z M 10.236,44.198 c 0.269,0.255 0.94,0.402 1.251,0.249 5.509,-2.708 11.053,-5.355 16.442,-8.286 1.756,-0.954 3.106,-2.667 4.621,-4.055 5.013,-4.597 10.017,-9.204 15.021,-13.812 0.307,-0.283 0.668,-0.556 0.852,-0.913 1.797,-3.513 3.562,-7.042 5.391,-10.675 -2.181,-0.817 -4.248,-1.62 -6.34,-2.35 -0.284,-0.099 -0.73,0.098 -1.04,0.27 -4.843,2.706 -9.777,5.267 -14.467,8.218 -2.347,1.476 -4.259,3.651 -6.337,5.547 -3.347,3.056 -6.692,6.119 -9.992,9.229 -0.876,0.825 -1.674,1.768 -2.355,2.76 -2.258,3.286 -4.446,6.619 -6.737,10.048 1.282,1.326 2.445,2.592 3.69,3.77 z M 30.369,39.705 C 27.63,51.282 24.904,62.793 22.09,74.683 35.289,66.179 48.183,57.871 60.991,49.618 50.798,46.318 40.637,43.029 30.369,39.705 Z M 52.206,20.264 63.426,47.556 C 70.75,36.555 77.928,25.771 85.269,14.741 74.118,16.604 63.233,18.422 52.206,20.264 Z M 30.829,37.337 C 40.871,40.598 50.714,43.793 60.841,47.08 57.08,37.917 53.448,29.075 49.74,20.045 Z M 10.651,50.949 0.147,76.058 C 6.878,75.859 13.404,75.666 20.152,75.467 16.984,67.291 13.878,59.275 10.651,50.949 Z m 9.739,18.695 0.248,-0.054 c 2.401,-9.988 4.838,-19.907 7.291,-30.284 -5.47,2.842 -10.688,5.554 -16.05,8.341 2.735,7.112 5.653,14.612 8.511,21.997 z M 81.232,13.122 C 78.037,12.276 74.845,11.426 71.647,10.586 67.054,9.379 62.457,8.185 57.866,6.966 57.293,6.814 56.877,6.715 56.54,7.406 c -1.622,3.324 -3.296,6.624 -4.944,9.935 -0.051,0.103 -0.041,0.237 -0.08,0.492 9.948,-1.507 19.83,-3.005 29.71,-4.502 z M 62.7,5.56 c 8.579,2.374 17.158,4.747 26.037,7.203 L 84.435,0.505 C 77.145,2.122 69.942,3.719 62.739,5.316 Z m 7.882,79.358 -21.361,-2.916 c -8.873,-1.211 -17.73,-2.544 -26.623,-3.569 -3.225,-0.371 -6.536,-0.029 -9.806,0.026 -2.687,0.046 -5.374,0.148 -8.06,0.233 -0.277,0.008 -0.553,0.064 -0.828,0.361 22.21,2.054 44.422,4.107 66.631,6.162 z M 0.585,68.394 C 3.449,61.753 6.297,55.107 9.171,48.472 9.459,47.805 9.438,47.354 8.875,46.819 7.672,45.674 6.556,44.441 5.241,43.075 L 0,68.946 0.193,69.038 C 0.326,68.824 0.487,68.624 0.585,68.394 Z M 56.997,3.807 C 61.824,2.561 66.721,1.589 71.589,0.502 71.903,0.431 72.211,0.327 72.521,0.238 L 72.474,0 51.558,2.813 c 1.965,0.859 3.478,1.5 5.439,0.994 z M 11.682,106.24 v 8.547 H 6.958 V 92.51 h 6.491 c 3.026,0 5.266,0.551 6.719,1.653 1.453,1.102 2.18,2.776 2.18,5.02 0,1.311 -0.361,2.477 -1.083,3.497 -0.721,1.021 -1.741,1.822 -3.063,2.401 l 6.553,9.705 h -5.242 l -5.317,-8.547 h -2.514 z m 0,-3.84 h 1.524 c 1.492,0 2.595,-0.25 3.306,-0.747 0.71,-0.498 1.066,-1.28 1.066,-2.346 0,-1.057 -0.363,-1.808 -1.09,-2.255 -0.726,-0.447 -1.851,-0.671 -3.374,-0.671 h -1.433 v 6.019 z m 27.578,12.387 -0.624,-2.179 h -0.244 c -0.498,0.793 -1.204,1.404 -2.117,1.836 -0.915,0.432 -1.957,0.647 -3.124,0.647 -2.002,0 -3.51,-0.535 -4.526,-1.607 -1.016,-1.072 -1.523,-2.613 -1.523,-4.624 V 97.752 h 4.647 v 9.95 c 0,1.229 0.219,2.151 0.656,2.766 0.436,0.615 1.131,0.921 2.086,0.921 1.301,0 2.24,-0.435 2.819,-1.302 0.579,-0.869 0.869,-2.308 0.869,-4.319 v -8.015 h 4.647 v 17.035 H 39.26 Z M 57.179,97.431 c 2.011,0 3.586,0.786 4.725,2.355 1.137,1.569 1.705,3.72 1.705,6.453 0,2.813 -0.587,4.992 -1.759,6.535 -1.174,1.545 -2.771,2.316 -4.793,2.316 -2.001,0 -3.57,-0.727 -4.708,-2.18 h -0.32 l -0.776,1.875 H 47.702 V 91.078 h 4.647 v 5.516 c 0,0.701 -0.062,1.823 -0.184,3.368 h 0.184 c 1.086,-1.686 2.697,-2.531 4.83,-2.531 z m -1.494,3.719 c -1.147,0 -1.985,0.353 -2.513,1.059 -0.528,0.707 -0.804,1.872 -0.823,3.498 v 0.502 c 0,1.829 0.271,3.139 0.814,3.932 0.544,0.792 1.405,1.188 2.584,1.188 0.954,0 1.713,-0.44 2.277,-1.318 0.564,-0.878 0.846,-2.156 0.846,-3.832 0,-1.676 -0.285,-2.934 -0.854,-3.772 -0.568,-0.838 -1.345,-1.257 -2.331,-1.257 z m 9.021,-3.398 h 5.089 l 3.215,9.584 c 0.274,0.833 0.463,1.818 0.563,2.956 h 0.092 c 0.111,-1.046 0.329,-2.032 0.654,-2.956 l 3.154,-9.584 h 4.982 l -7.207,19.214 c -0.66,1.777 -1.602,3.108 -2.825,3.992 -1.225,0.884 -2.654,1.325 -4.29,1.325 -0.803,0 -1.59,-0.086 -2.361,-0.259 v -3.687 c 0.559,0.131 1.168,0.197 1.828,0.197 0.822,0 1.541,-0.251 2.156,-0.754 0.615,-0.502 1.095,-1.261 1.439,-2.277 l 0.274,-0.839 z"
     id="path2"
     inkscape:connector-curvature="0"
     style="fill:#d91404" />
</svg>
