<?xml version="1.0" encoding="UTF-8" standalone="no"?>
<svg
   xmlns:dc="http://purl.org/dc/elements/1.1/"
   xmlns:cc="http://creativecommons.org/ns#"
   xmlns:rdf="http://www.w3.org/1999/02/22-rdf-syntax-ns#"
   xmlns:svg="http://www.w3.org/2000/svg"
   xmlns="http://www.w3.org/2000/svg"
   version="1.1"
   id="svg16913"
   viewBox="0 0 1059.3805 466.9809"
   height="131.79239mm"
   width="298.98071mm">
  <defs
     id="defs16915" />
  <metadata
     id="metadata16918">
    <rdf:RDF>
      <cc:Work
         rdf:about="">
        <dc:format>image/svg+xml</dc:format>
        <dc:type
           rdf:resource="http://purl.org/dc/dcmitype/StillImage" />
        <dc:title></dc:title>
      </cc:Work>
    </rdf:RDF>
  </metadata>
  <g
     transform="translate(829.68722,109.29013)"
     id="layer1">
    <path
       id="path17474"
       d="m -766.5668,356.56076 c -3.9891,-1.60765 -8.1335,-4.50804 -9.2105,-6.44516 -1.0767,-1.93718 -3.0349,-4.01337 -4.352,-4.61373 -1.3172,-0.60041 -2.7519,-2.3228 -3.1877,-3.8276 -1.7052,-5.88086 -5.5093,-11.89737 -7.2729,-11.50298 -1.0195,0.22805 -1.4851,-0.68948 -1.035,-2.03882 0.4507,-1.34937 -0.026,-2.2648 -1.0532,-2.03466 -2.9192,0.65284 -5.113,-4.5974 -3.5483,-8.49325 1.1179,-2.78353 1.3256,-2.66901 0.9981,0.55021 -0.2273,2.23593 0.4435,3.87365 1.4921,3.63923 1.048,-0.23435 1.5364,-2.45561 1.0854,-4.93615 -0.6389,-3.5205 -1.6296,-4.01211 -4.5092,-2.24103 -3.6456,2.24178 -3.8575,1.34436 -17.5888,-74.574 -12.5048,-69.1399 -13.5233,-76.49492 -10.1545,-73.36999 3.5581,3.30032 3.6279,3.2168 1.4022,-1.67882 -1.288,-2.83345 -3.4627,-5.66732 -4.833,-6.29734 -1.7614,-0.81024 -1.8006,-1.89051 -0.1325,-3.68948 1.3727,-1.48061 1.5052,-3.55451 0.3169,-4.96206 -1.2712,-1.50553 -1.1488,-2.05169 0.3236,-1.44711 1.3005,0.53417 2.5371,-0.35062 2.7488,-1.96662 0.2111,-1.61582 1.2467,-2.34752 2.3012,-1.62606 1.0551,0.72136 1.1197,2.64367 0.1485,4.27162 -1.9659,3.28173 1.5683,14.98319 5.3554,17.73038 1.605,1.16428 1.7722,0.94013 0.5082,-0.68121 -1.0364,-1.32903 -1.0205,-2.60959 0.036,-2.8456 1.0559,-0.23614 2.5889,0.69803 3.4074,2.07582 0.8181,1.37777 1.0669,-0.20941 0.5526,-3.52892 -0.9144,-5.89736 2.482,-9.75364 3.5274,-4.00498 0.289,1.60007 1.8565,2.61184 3.479,2.24896 4.2195,-0.94354 3.0825,-3.88679 -2.1803,-5.64404 -3.3386,-1.11476 -5.104,-0.66885 -6.8499,1.73003 -1.508,2.07239 -2.5022,2.40608 -2.7707,0.9301 -0.2285,-1.26612 1.2387,-3.32066 3.2641,-4.56617 4.0999,-2.52126 3.825,-8.70599 -0.5291,-11.91405 -1.9883,-1.46505 -2.1766,-2.23754 -0.6293,-2.58344 1.2144,-0.2717 3.9753,2.94198 6.136,7.14118 2.1604,4.19913 4.0898,6.20609 4.2876,4.45982 0.3036,-2.68067 0.7085,-2.77121 2.599,-0.58131 1.7043,1.97414 2.0627,1.58053 1.5001,-1.64753 -0.7336,-4.19833 -0.7043,-4.20485 2.9639,-0.66294 3.0869,2.98204 5.4792,13.49021 14.3539,63.04964 5.9584,33.27018 9.9573,60.18991 9.079,61.10241 -0.864,0.89721 -1.3031,3.1038 -0.9758,4.90354 0.3253,1.80005 1.3697,2.46764 2.3166,1.48421 1.1046,-1.14687 3.153,6.08202 5.7115,20.15589 l 3.9897,21.94405 13.2941,-2.87665 c 7.3114,-1.58217 28.6566,-6.39709 47.4332,-10.70136 29.9889,-6.87362 34.0723,-7.38436 33.5873,-4.20194 -0.304,1.99262 0.3553,3.41968 1.4692,3.17084 1.1114,-0.24851 1.6859,0.55239 1.276,1.77998 -1.3017,3.89888 2.9109,8.90824 8.3289,9.90492 4.5794,0.84225 4.9844,1.49631 3.228,5.2156 -1.3894,2.94271 -1.3424,3.57861 0.1545,2.06432 1.2852,-1.3011 2.3955,-1.03584 2.7398,0.65416 0.3421,1.67239 1.1434,1.00271 1.9494,-1.62799 0.9945,-3.24463 2.7789,-4.39681 6.5096,-4.20252 3.798,0.19789 4.6671,-0.39093 3.3299,-2.25631 -0.9957,-1.3882 0.3692,-0.69081 3.0323,1.54987 2.6634,2.24066 5.1879,3.0404 5.6092,1.77732 0.422,-1.26316 -0.4356,-2.54504 -1.905,-2.8489 -1.6117,-0.33321 -1.3185,-0.926 0.7392,-1.49429 1.876,-0.51806 3.6785,0.53054 4.006,2.33027 0.3252,1.80005 1.1002,3.15925 1.7188,3.02097 0.6182,-0.13826 2.1842,-2.02083 3.4796,-4.18349 1.2953,-2.16264 3.8539,-4.19537 5.6849,-4.5171 2.6679,-0.46877 2.6126,-0.0535 -0.2779,2.08875 -3.5439,2.62619 -3.5346,2.68921 0.5119,3.53929 2.6175,0.54777 4.2403,-0.14131 4.4341,-1.883 0.1686,-1.51087 2.0543,-3.13809 4.192,-3.61607 2.1372,-0.47797 3.192,-1.69085 2.3443,-2.69534 -0.848,-1.00445 -2.8356,-0.91584 -4.4173,0.19689 -2.3875,1.68007 -2.6511,1.19789 -1.5539,-2.84337 1.0129,-3.73287 0.4392,-5.66777 -2.4627,-8.30681 -3.0229,-2.74827 -3.4491,-2.76099 -2.121,-0.063 1.0549,2.14268 0.3923,4.06658 -1.8141,5.26284 -4.3666,2.36778 -7.6427,-2.83028 -5.0934,-8.08249 1.6079,-3.31394 1.2871,-3.50279 -2.2531,-1.32568 -3.0509,1.87619 -4.2867,1.66628 -4.7358,-0.80447 -0.5289,-2.91816 5.7968,-4.76572 49.7523,-14.52945 27.6985,-6.15255 51.6993,-10.93538 53.3358,-10.62862 1.6368,0.30674 3.2244,1.92524 3.528,3.59668 0.7461,4.10672 -1.2423,4.25699 -5.4748,0.41401 -3.1633,-2.87243 -3.2675,-2.48483 -1.0504,3.91704 1.9125,5.52055 1.823,6.73027 -0.4017,5.42551 -3.2802,-1.9242 -7.6736,3.98505 -4.8343,6.50298 0.926,0.82124 -0.1204,0.51612 -2.3226,-0.6786 -3.5984,-1.95079 -3.8218,-1.66218 -2.1952,2.83597 0.996,2.75431 2.0834,5.96847 2.4163,7.14264 0.3319,1.17442 1.5585,-0.0614 2.7233,-2.74559 2.1467,-4.946 3.4989,-3.33831 3.8914,4.62677 0.1164,2.3302 1.0093,1.75896 2.992,-1.9112 1.5555,-2.87925 2.381,-3.98139 1.8347,-2.4493 -0.5466,1.53219 0.6324,4.38143 2.621,6.33154 2.0555,2.01592 3.4282,2.36318 3.1822,0.8048 -0.6046,-3.81354 2.7149,-4.16409 4.8068,-0.50739 1.524,2.66372 -12.6776,6.23934 -120.658,30.37924 -118.957,26.59291 -122.5885,27.27832 -129.6384,24.43717 z m 160.0783,-40.31685 c -0.2165,-1.20005 -1.334,-1.97188 -2.4793,-1.71572 -1.146,0.25621 -1.3575,1.32519 -0.4708,2.37549 0.8863,1.05038 2.0026,1.8224 2.4794,1.71576 0.4771,-0.10664 0.6894,-1.17572 0.4707,-2.37553 z m 18.7413,-4.34198 c 1.2148,-3.63895 -0.7258,-4.60364 -4.2584,-2.11756 -1.6343,1.15004 -2.3222,2.86027 -1.5282,3.8005 1.9524,2.31273 4.7213,1.5074 5.7866,-1.68294 z m 7.3327,-5.41434 c -2.4029,-1.77037 -3.4455,1.93715 -1.2698,4.51421 1.6434,1.94681 2.1071,1.84492 2.3704,-0.52098 0.1806,-1.61758 -0.307,-3.41544 -1.1008,-3.9933 z m -18.6023,5.81526 c -2.9647,-1.29321 -3.0082,-1.53567 -0.3959,-2.18163 2.443,-0.60425 2.4204,-0.94647 -0.1404,-2.0309 -2.1182,-0.89911 -2.9967,-3.33767 -2.8273,-7.84635 0.2303,-6.13984 0.08,-6.27161 -2.4396,-2.14436 -1.8037,2.95287 -1.9344,5.5924 -0.3981,8.03483 1.2577,2.00059 2.3322,4.90436 2.3868,6.45294 0.046,1.54887 1.6845,2.44544 3.6217,1.99309 2.9922,-0.69866 3.0207,-1.04133 0.1866,-2.27737 z m 20.9821,-9.838 c -2.3315,-1.70405 -2.5121,-1.40289 -0.8791,1.46748 1.1299,1.98627 2.4496,2.95107 2.9332,2.14396 0.4836,-0.80711 -0.4404,-2.43231 -2.0541,-3.61144 z m -156.9425,27.62222 c -0.313,-1.72916 -1.402,-2.95787 -2.4167,-2.73097 -1.0145,0.22691 -1.3715,2.27914 -0.793,4.56052 1.1881,4.68439 4.0926,3.02857 3.2097,-1.82955 z m 68.0275,-12.92653 c 0.319,-2.09163 -0.1726,-2.89333 -1.1462,-1.87991 -0.936,0.97218 -1.5342,2.69144 -1.3289,3.82044 0.572,3.13774 1.8546,2.1312 2.4751,-1.94053 z m 78.7336,-22.08952 c -0.7278,-0.53622 -1.6079,0.92052 -1.9552,3.23715 -0.5023,3.34783 -0.2308,3.54788 1.3231,0.97498 1.0753,-1.78042 1.3597,-3.67589 0.6321,-4.21213 z m -194.8021,36.69449 c 0.3184,-2.09158 -0.1726,-2.89332 -1.1464,-1.87986 -0.9365,0.97222 -1.5342,2.69142 -1.3292,3.82043 0.5721,3.13776 1.8551,2.13118 2.4756,-1.94057 z m 41.2985,-11.43656 c -2.4025,-1.28304 -4.7532,-1.69095 -5.2229,-0.90659 -0.9855,1.6454 4.7182,4.42222 7.6308,3.7152 1.0783,-0.2615 0,-1.52543 -2.4079,-2.80861 z m 12.5183,-3.50741 c -0.1806,-1.00006 -1.6585,-1.52101 -3.2808,-1.15816 -1.6231,0.36301 -2.802,1.47791 -2.6202,2.47781 0.1806,1.00003 1.6585,1.52098 3.281,1.15811 1.6229,-0.363 2.8018,-1.47789 2.62,-2.47776 z m -55.0625,4.69875 c -0.9443,-1.59986 -1.3165,-0.9787 -0.9487,1.58378 0.3299,2.3193 1.0318,3.50329 1.5535,2.63221 0.5219,-0.87107 0.2496,-2.76827 -0.6062,-4.21576 z m 1.885,-11.91455 c -0.8183,-1.37779 -1.0416,-0.0508 -0.4963,2.94874 0.5454,2.99961 1.215,4.12688 1.4881,2.50503 0.2729,-1.6218 -0.1745,-4.07597 -0.992,-5.45375 z m -7.8022,1.88666 c -0.9443,-1.59985 -1.3166,-0.97867 -0.9485,1.58376 0.3298,2.31932 1.0317,3.5033 1.5534,2.63221 0.522,-0.87106 0.2497,-2.76826 -0.6063,-4.21574 z m 2.0065,-8.08672 c 0.3187,-2.09162 -0.1725,-2.89335 -1.1461,-1.87992 -0.9361,0.97219 -1.5342,2.6914 -1.329,3.82041 0.5719,3.13777 1.8547,2.13126 2.4751,-1.94049 z m 276.9343,-0.88441 c 1.2423,-0.90761 3.4549,-1.40245 4.9177,-1.09971 1.4622,0.30278 0.4455,1.04539 -2.2588,1.65018 -2.7049,0.60487 -3.9012,0.35713 -2.6589,-0.55047 z m 29.8782,-8.3444 c -2.2455,-2.01009 -2.1029,-2.62825 0.6913,-2.99237 3.4371,-0.44789 3.6827,-1.43642 2.5811,-10.39343 -0.351,-2.90719 0.5199,-4.15181 2.6439,-3.75368 1.7485,0.32773 3.3487,1.53047 3.5562,2.6728 0.2049,1.14262 -0.6176,1.6681 -1.8342,1.16844 -2.1508,-0.88319 -2.4829,2.16091 -0.8247,7.56268 0.4479,1.46064 -0.1625,2.87387 -1.3546,3.14067 -1.193,0.26679 -1.444,1.34448 -0.5569,2.39476 2.4589,2.91242 -1.6835,3.08156 -4.9021,0.20018 z m 10.3819,-2.8722 c 0.3006,-1.97305 0.4615,-4.05588 0.3574,-4.62845 -0.1104,-0.57188 0.9752,-0.56288 2.3983,0.0216 1.6995,0.69769 1.9785,-0.003 0.8124,-2.0413 -0.9766,-1.7072 -1.053,-4.31021 -0.1725,-5.78436 1.0941,-1.82633 0.204,-2.84953 -2.7932,-3.21112 -2.4191,-0.29189 -5.6768,-2.2475 -7.2394,-4.34571 -1.5625,-2.09823 -3.5683,-3.05984 -4.457,-2.13702 -0.8885,0.92287 -1.4002,0.26448 -1.1365,-1.46506 0.2945,-1.93328 -1.0774,-2.92832 -3.5641,-2.58516 -2.2233,0.30652 -3.8649,1.53644 -3.6474,2.73254 0.2165,1.19619 -0.6162,1.75922 -1.8529,1.25147 -1.2368,-0.50772 -1.9048,-1.95094 -1.4858,-3.20702 0.4195,-1.25616 0.036,-2.18014 -0.8514,-2.05329 -9.2865,1.32711 -19.6385,1.96553 -20.5828,1.26972 -0.6461,-0.47595 62.9424,-15.16202 141.3072,-32.63563 92.8469,-20.70285 141.58801,-30.80292 139.91633,-28.99331 -2.28069,2.46823 -2.19501,2.93735 0.76651,4.21896 2.34149,1.01337 3.46056,0.47671 3.76556,-1.80554 0.36982,-2.76951 1.23847,-2.96344 5.90197,-1.31764 4.1442,1.46309 4.63842,2.1354 2.03989,2.77746 -1.88558,0.4658 -3.28558,1.63167 -3.11121,2.59061 0.17658,0.95847 3.34237,0.64951 7.03951,-0.68764 4.42873,-1.60147 6.8866,-1.52647 7.20464,0.22265 0.26467,1.45962 1.60808,1.86167 2.98379,0.89372 1.37552,-0.96796 3.69433,-0.88063 5.15251,0.19405 2.84915,2.09952 3.03737,-0.18671 0.74866,-9.09531 -0.65294,-2.54418 -0.36821,-5.47757 0.63508,-6.51919 1.1562,-1.20049 2.35232,1.01509 3.26833,6.05216 0.92664,5.1027 2.21387,7.45673 3.59359,6.5789 2.81865,-1.79279 1.67008,-11.87748 -1.51597,-13.30712 -1.72266,-0.77303 -1.71242,-1.29561 0.0361,-1.71034 1.38294,-0.32754 3.40798,0.99094 4.50017,2.93183 1.09218,1.94083 3.58536,4.41558 5.54118,5.49932 3.13208,1.7358 3.08914,2.08746 -0.35958,2.95296 -3.25067,0.81559 -3.34939,1.22957 -0.5803,2.43745 6.22222,2.7145 8.40719,0.86681 5.34654,-4.52066 -1.78024,-3.13279 -2.20965,-5.59891 -1.16322,-6.68448 1.61591,-1.6784 2.98159,1.05804 3.33716,6.68557 0.0923,1.53935 2.22731,2.45817 4.73433,2.04241 3.36063,-0.55742 3.70215,-0.29273 1.29987,1.01017 -2.8943,1.569 -2.8628,2.05731 0.28152,4.37601 3.11904,2.29767 3.81813,2.14839 5.85381,-1.24931 2.03508,-3.39776 1.90766,-4.10021 -1.0679,-5.87693 -1.8589,-1.10938 -3.5639,-3.02905 -3.78904,-4.26554 -0.22754,-1.23623 1.75095,-0.40047 4.38981,1.85962 2.63886,2.25928 4.47729,5.06932 4.08501,6.24448 -0.39249,1.17519 0.23236,1.92598 1.36969,1.6709 6.47284,-1.44751 13.04722,1.13535 12.15289,4.77441 -0.38968,1.58531 0.24781,0.88049 1.41865,-1.56624 2.36456,-4.94468 5.41457,-6.67578 3.9307,-2.23094 -0.60258,1.80583 -0.18661,2.04453 1.14777,0.65847 5.24943,-5.45125 13.57936,-6.87237 18.01652,-3.07371 2.74521,2.3504 4.78952,2.82786 5.31886,1.24251 0.47275,-1.41634 2.18738,-2.87206 3.8099,-3.23492 1.62293,-0.36301 2.57967,0.45199 2.12598,1.81086 -1.09499,3.27874 4.99258,4.31201 7.82829,1.3289 1.22703,-1.29027 3.9309,-2.41313 6.00912,-2.49529 2.29614,-0.0912 3.09456,-0.95983 2.03568,-2.21449 -0.95894,-1.13582 -0.74645,-2.28813 0.47175,-2.56056 1.4008,-0.31306 2.02786,1.41976 1.7054,4.70886 -0.41496,4.22877 -0.0762,4.64489 1.80071,2.21994 1.27157,-1.64148 3.84,-4.00723 5.70833,-5.25735 2.63103,-1.76034 3.26471,-1.40498 2.81042,1.57577 -0.51729,3.39405 -0.0281,3.24092 4.142,-1.29703 4.08581,-4.44656 4.45201,-4.56744 2.69364,-0.88966 -1.86352,3.89765 -1.24348,3.99043 7.36457,1.10172 5.16956,-1.73486 10.89736,-2.51505 12.72837,-1.73359 2.12858,0.90855 -48.59067,13.02187 -140.68009,33.59869 -126.24972,28.20966 -143.94382,31.7495 -143.47982,28.70374 0.2913,-1.91087 -0.3729,-3.27217 -1.4839,-3.02399 -1.1075,0.24769 -2.1437,1.6206 -2.3028,3.05104 -0.3686,3.31228 -18.3644,9.2646 -18.9116,6.2552 -0.2169,-1.21169 -1.3376,-1.99274 -2.4832,-1.73657 -1.1457,0.2562 -1.342,1.344 -0.4356,2.41726 1.1072,1.31152 -15.5573,5.74134 -50.82,13.50906 -46.1918,10.17534 -52.4022,11.12855 -51.9206,7.97018 z m 119.6148,-29.84288 c -0.8869,-1.0503 -2.4974,-1.71173 -3.5792,-1.46983 -1.0819,0.24187 -1.2417,1.29926 -0.3547,2.34957 0.8867,1.05032 2.4974,1.71173 3.5793,1.46979 1.0818,-0.24191 1.2415,-1.29921 0.3546,-2.34953 z m 2.3304,-7.33181 c -1.0021,-2.27321 -2.6037,-3.95821 -3.5593,-3.74449 -2.6619,0.5953 -0.9671,6.49643 2.0449,7.12008 1.4624,0.30274 2.8113,0.59702 2.9977,0.65392 0.1846,0.0571 -0.481,-1.75643 -1.4833,-4.02951 z m 217.17072,-46.26899 c 0.46433,-1.39074 -0.39068,-1.5801 -2.00698,-0.44348 -3.14372,2.21233 -3.48303,3.91539 -0.65375,3.28269 1.01794,-0.22761 2.21547,-1.50535 2.66073,-2.83921 z M -458.1862,276.2689 c -0.2165,-1.20006 -1.2816,-1.98362 -2.3636,-1.74167 -1.0819,0.2419 -1.7884,1.42155 -1.5705,2.62141 0.2167,1.20006 1.2818,1.98358 2.3637,1.74166 1.0818,-0.24185 1.7883,-1.42155 1.5704,-2.6214 z m 441.26093,-83.67849 c -0.0903,-0.47064 1.06931,-1.71935 2.56602,-2.77285 1.49772,-1.05356 2.8953,-0.96461 3.1066,0.1974 0.2135,1.16185 -0.9433,2.41001 -2.56643,2.77294 -1.62272,0.36303 -3.02051,0.27412 -3.10619,-0.19762 z m 27.22113,-8.78965 c -0.3676,-2.56259 0,-3.18366 0.94852,-1.58377 0.8548,1.44769 1.12709,3.34487 0.60659,4.21571 -0.52192,0.87108 -1.22101,-0.31341 -1.5539,-2.63218 z m 13.84484,-1.77184 c -0.21651,-1.20009 0.4888,-2.37949 1.57055,-2.62143 1.08195,-0.24175 2.14524,0.54184 2.36376,1.74167 0.21671,1.20004 -0.4888,2.37945 -1.57075,2.62143 -1.08175,0.24174 -2.14504,-0.54185 -2.36356,-1.74167 z m 5.43564,-4.0533 c -0.69749,-3.97452 -0.39269,-4.36958 1.63938,-2.06928 3.23361,3.67833 3.65419,5.9935 1.1889,6.54478 -1.08195,0.24178 -2.35473,-1.77202 -2.82888,-4.47537 z m 6.12068,1.46903 c -0.35356,-1.16956 -0.97399,-3.31543 -1.37872,-4.7686 -0.98162,-3.52224 -8.02835,-3.34527 -7.38664,0.1856 0.28895,1.60165 -1.1263,1.27393 -3.37929,-0.7805 -3.31388,-3.02165 -3.62129,-3.01636 -2.10451,0.0367 2.20765,4.44379 -0.53696,5.26104 -5.46774,1.62817 -4.1731,-3.07528 -5.25324,-5.33766 -1.8884,-3.95598 1.21619,0.49966 1.93375,-0.62203 1.59363,-2.49264 -0.33771,-1.87092 -1.94579,-3.10415 -3.56911,-2.74118 -1.62233,0.36279 -2.76126,1.69943 -2.53031,2.97009 0.22875,1.27097 -0.74444,1.83202 -2.16791,1.24749 -1.78887,-0.73464 -1.94539,0.13442 -0.50626,2.817 1.93655,3.60955 1.84846,3.65761 -1.26415,0.6904 -1.84044,-1.75411 -3.69292,-2.61042 -4.11691,-1.90288 -0.42379,0.70748 -1.13734,-1.60906 -1.58541,-5.14804 -0.69628,-5.48601 -1.7072,-6.43278 -6.86934,-6.42381 -3.33033,0.007 -8.15677,0.48067 -10.7264,1.05522 -2.56943,0.57467 -4.83106,0.16891 -5.02569,-0.90344 -0.19264,-1.07175 -1.89061,-2.23621 -3.76877,-2.5883 -2.44382,-0.45799 -2.92039,0.22413 -1.6751,2.40185 1.09921,1.92093 0.59957,3.29714 -1.35886,3.73504 -2.01782,0.45127 -2.90152,-0.60403 -2.53251,-3.02468 0.31182,-2.04478 0.49201,-4.12827 0.40051,-4.63004 -0.10033,-0.50064 52.05825,-12.59103 115.88732,-26.86493 l 116.05266,-25.95254 -16.65766,-91.624299 -16.65827,-91.62424 -9.44139,2.11141 c -5.19264,1.16112 -10.85663,1.15084 -12.5863,-0.0232 -1.75998,-1.19468 -2.4051,-1.17676 -1.46461,0.0405 2.3762,3.07651 -16.09321,7.41784 -18.70759,4.39739 -1.55992,-1.80176 -1.90165,-1.70907 -1.53946,0.41752 0.26708,1.57233 -2.0419,3.2944 -5.43543,4.05327 -3.93412,0.87974 -6.09922,0.22884 -6.49592,-1.95266 -0.32527,-1.80007 -1.48006,-3.07433 -2.56201,-2.83245 -1.08175,0.24175 -1.75877,1.5852 -1.50414,2.985 0.25283,1.40007 -0.23738,2.02946 -1.09278,1.39915 -0.85501,-0.63035 -2.36175,-0.051 -3.34779,1.2876 -0.98584,1.33842 -12.4019,4.64866 -25.36825,7.35595 -23.35625,4.87666 -23.59704,4.87455 -25.93552,-0.2253 -1.99876,-4.3585 -2.30496,-4.46405 -1.99635,-0.68869 0.20166,2.45223 0.56786,5.10117 0.81347,5.88653 0.71013,2.25568 -105.78918,25.57708 -110.15009,24.12092 -2.34209,-0.78211 -4.17952,-0.40239 -4.63341,0.95762 -0.4288,1.28359 -26.21804,8.00089 -59.91482,15.60587 -52.67889,11.8891904 -59.10156,12.9527704 -58.60654,9.7060804 0.3054,-2.00543 0.12441,-6.0201804 -0.40332,-8.9216404 -0.73341,-4.0362 0.0843,-5.49237 3.47861,-6.19879 3.96341,-0.82448 4.1129,-0.60425 1.3996,2.07003 -3.28217,3.23421 -2.82247,11.8004904 0.59254,11.0368504 1.14596,-0.25637 1.29967,-1.56764 0.34212,-2.91432 -0.95774,-1.3465904 0,-0.8538304 2.12498,1.09382 2.81163,2.57604 3.7184,2.68286 3.32491,0.39159 -0.31764,-1.87226 0.20608,-2.3961204 1.30007,-1.29217 3.14371,3.17218 7.65391,2.23707 5.6983,-1.1815304 -0.97581,-1.70571 -0.91661,-3.29311 0.13043,-3.52745 1.04763,-0.23427 1.60185,-2.09494 1.23104,-4.13466 -0.50306,-2.76789 0,-3.20685 2.00999,-1.73061 2.00358,1.47629 3.22779,1.07088 4.82684,-1.59831 2.90253,-4.84486 2.20564,-7.44664 -0.86464,-3.22817 -2.02685,2.78515 -2.57986,2.69736 -3.16157,-0.50195 -0.67341,-3.70755 -0.84497,-3.6681 -3.88355,0.8938 -1.74793,2.62419 -2.59953,5.45644 -1.89241,6.29378 2.09989,2.48764 -2.29693,5.62922 -5.04495,3.60434 -1.7979,-1.32483 -1.9783,-3.00134 -0.62405,-5.79226 2.00498,-4.13103 1.07493,-4.49584 -5.85742,-2.29753 -3.18867,1.01119 -4.37095,0.20963 -4.75641,-3.22551 -0.28333,-2.51407 0.23617,-4.73866 1.15158,-4.9434 0.9158,-0.20474 0.94951,-1.21947 0.0742,-2.25492 -1.0366,-1.22796 33.70702,-9.76902 99.90206,-24.55898 71.71054,-16.02289 101.23322,-21.9044 100.61259,-20.04574 -0.48279,1.44669 1.66025,5.17634 4.76283,8.28792 3.10218,3.11163 4.5102,5.19332 3.12907,4.62601 -1.38174,-0.56728 -2.41774,-0.51403 -2.30316,0.11862 0.11839,0.63193 2.90975,2.07001 6.21038,3.19475 3.30043,1.12475 4.83848,2.34585 3.41782,2.71354 -1.99575,0.51645 -1.77623,1.26346 0.96155,3.28116 5.22996,3.85349 5.46193,3.17841 2.53372,-7.37728 -1.83483,-6.61577 -1.92612,-9.78524 -0.3036,-10.14972 1.30508,-0.29173 1.59584,-1.88931 0.64592,-3.54979 -0.98925,-1.72921 -0.63488,-3.26343 0.82912,-3.59079 3.01831,-0.67502 10.27111,8.36439 8.74951,10.90459 -0.57709,0.96337 -1.34702,0.11483 -1.71041,-1.88434 -0.36118,-2.00004 -1.59824,-3.42626 -2.7442,-3.17 -1.14556,0.25635 -1.23425,1.47121 -0.19665,2.70001 1.26876,1.50221 0.731,2.01767 -1.63998,1.57316 -2.67558,-0.50159 -3.30043,0.58182 -2.5899,4.49088 0.51509,2.83363 2.31881,5.411 4.00775,5.72761 2.05234,0.38478 2.51726,-0.39264 1.4026,-2.34098 -1.13211,-1.97819 -0.33329,-3.21504 2.47553,-3.84333 2.27948,-0.50976 3.93491,-2.157 3.67907,-3.66051 -0.31583,-1.85116 0.31303,-1.82982 1.94739,0.0661 2.88567,3.34783 4.15825,1.75404 3.87512,-4.85308 -0.11638,-2.67559 0.23156,-5.60046 0.77053,-6.49951 0.53857,-0.89897 0.23597,-2.93375 -0.68124,-4.51995 -1.40902,-2.46318 5.53517,-4.46111 47.29722,-13.60727 42.25728,-9.254611 49.52072,-10.343141 53.12936,-7.962481 3.75332,2.47584 3.99311,2.43015 2.34691,-0.44676 -1.462,-2.55629 0.2763,-2.58237 8.58818,-0.12907 10.18201,3.00541 16.10285,8.349231 26.47388,23.895151 5.92665,8.88391 14.49537,55.36699 10.69891,58.0384 -1.4327,1.0081 -3.30946,0.77105 -4.17088,-0.52707 -0.86143,-1.29803 -0.73502,-0.39148 0.27751,2.01493 1.02757,2.43416 0.81427,5.79156 -0.47857,7.56871 -1.29245,1.77585 -1.51217,5.24346 -0.49563,7.8096504 1.47484,3.72173 1.30568,4.07313 -0.87327,1.81451 -3.11281,-3.2259704 -3.11261,-3.2265504 -1.75114,7.76975003 0.56946,4.55553997 1.82057,8.10623997 2.79216,7.88896997 0.97179,-0.21742 1.04081,-1.25439 0.15451,-2.30475 -0.88712,-1.05027 -0.13444,-2.2409 1.68352,-2.64669 2.2249,-0.49762 3.22599,0.62796 3.08051,3.46327 -0.11839,2.31007 1.32274,5.7588096 3.20151,7.6637396 3.20813,3.25138 4.15865,1.30931 2.20945,-4.51261 -0.29296,-0.8710096 0.2452,-1.7574696 1.19271,-1.9693796 2.02144,-0.45205 18.20836,82.9977816 18.34962,94.6012486 0.0702,5.73909 -1.54065,9.60896 -5.87227,14.10701 -5.85241,6.07749 -29.68783,22.44417 -31.2026,21.42521 -0.42319,-0.2847 0.17257,-3.12545 1.32435,-6.31276 1.29063,-3.57341 1.24488,-6.79991 -0.11839,-8.41602 -1.71904,-2.0363 -2.32122,-1.5169 -2.69806,2.32796 -0.55562,5.66124 -3.85826,7.39786 -4.74938,2.49718 -0.32527,-1.8 -1.97488,-2.96368 -3.66122,-2.58651 -1.68734,0.37706 -2.34128,1.5451 -1.45497,2.5955 0.88691,1.05028 0.67521,2.11926 -0.47055,2.37548 -1.14556,0.25635 -1.92431,1.33842 -1.73048,2.40494 0.19264,1.06672 1.75416,1.48381 3.46758,0.92723 1.71303,-0.55654 4.41048,0.45873 5.99407,2.2561 2.29634,2.60661 2.21166,4.1041 -0.41837,7.39959 -4.79855,6.01226 -120.01025,32.08404 -120.87047,27.35232 -0.31022,-1.69954 0.45449,-3.83302 1.69677,-4.74064 1.24207,-0.90756 -0.18059,-1.18525 -3.18204,-0.61273 -2.99222,0.57122 -5.26187,2.01909 -5.04396,3.21898 0.21651,1.20004 -0.4884,2.37946 -1.57035,2.62138 -1.08195,0.24178 -2.25661,-1.15286 -2.61037,-3.09952 -0.52693,-2.89883 -1.08817,-2.92847 -3.10017,-0.16379 -3.24706,4.4612 -2.63264,6.86721 1.77703,6.96096 1.97829,0.0421 -0.15651,0.9658 -4.74397,2.05288 -7.9533,1.88483 -11.54388,0.29781 -6.67751,-2.95173 1.25471,-0.83805 1.525,-2.12685 0.59997,-2.86391 -0.92464,-0.73711 -2.7414,0.42917 -4.03705,2.59199 -1.29545,2.16261 -1.69697,4.41724 -0.89193,5.01021 0.80484,0.59296 0.43021,1.30911 -0.83173,1.59132 -1.26234,0.28234 -2.58408,-0.44369 -2.93744,-1.61331 z m 42.72662,-14.09531 c -0.21651,-1.20004 -1.77683,-1.87288 -3.46316,-1.49576 -1.68714,0.37708 -2.34108,1.54514 -1.45437,2.59551 0.88691,1.05027 2.44522,1.72337 3.46296,1.49575 1.01854,-0.22808 1.67269,-1.39563 1.45457,-2.5955 z M 30.25476,167.807 c -1.46219,-0.30279 -3.67506,0.19228 -4.91753,1.09972 -1.24188,0.90754 -0.0462,1.15529 2.65892,0.55051 2.70468,-0.60479 3.72101,-1.34741 2.25861,-1.65021 z m 143.66187,-37.9038 c -0.0201,-1.92146 -1.3412,-3.74111 -2.95269,-4.04312 -1.63677,-0.30678 -2.68381,0.80336 -2.37258,2.51512 0.30881,1.68505 1.51858,2.86493 2.69404,2.6212 1.17525,-0.24499 0.99867,0.89519 -0.39289,2.5309 -2.24858,2.64355 -2.21969,2.80154 0.26005,1.4217 1.53343,-0.85361 2.77812,-3.12438 2.76568,-5.04611 z M 6.21587,167.87568 c 0.45008,-1.34933 -0.11638,-2.244 -1.26455,-1.98754 -1.14576,0.25637 -1.90465,1.44756 -1.68633,2.64738 0.21651,1.20007 0.78678,2.09429 1.26415,1.98756 0.47696,-0.1066 1.23605,-1.29801 1.68673,-2.6474 z M 196.44035,-18.687449 c -0.80865,-4.44119 -3.18285,-4.97787 -6.52582,-1.47388 -2.25901,2.36835 -2.44984,3.95914 -0.66638,5.55602 2.9272,2.62028 7.89772,-0.20095 7.1922,-4.08214 z m -340.96859,4.81473 c -0.19664,-1.0875 1.72005,-1.93857 4.26179,-1.89126 3.42464,0.0637 3.81492,-0.30936 1.50815,-1.44119 -2.01662,-0.98899 -3.02653,-3.58355 -2.86661,-7.36254 0.13845,-3.2839 -0.78758,-6.26073 -2.12116,-6.80788 -1.30227,-0.53488 -1.96264,0.31655 -1.46782,1.89184 0.49523,1.5753 1.10222,4.57485 1.34883,6.66552 0.72458,6.1908 -5.76332,3.3213 -7.08184,-3.12832 l -1.17225,-5.73811 -0.92885,5.60759 c -0.71795,4.33199 -0.0722,6.04608 2.83571,7.53474 2.07079,1.06 3.34036,3.19871 2.82166,4.75278 -0.5189,1.55406 0,2.61598 1.14014,2.35969 1.14516,-0.2561 1.92111,-1.35557 1.72306,-2.44303 z m 13.95339,-2.06382 c -0.10032,-0.52839 -1.17044,-1.37078 -2.38703,-1.87037 -1.21639,-0.49967 -2.02304,0.1313 -1.79208,1.40187 0.22875,1.27093 1.30528,2.11232 2.38723,1.87037 1.08195,-0.24177 1.8884,-0.87277 1.79188,-1.40187 z M 7.42504,-49.319099 c 0.31865,-2.09166 -0.17256,-2.89338 -1.14596,-1.87996 -0.93667,0.97227 -1.53464,2.69144 -1.32936,3.82047 0.57167,3.13778 1.85509,2.13119 2.47532,-1.94051 z m 13.99152,-5.55994 c -1.43852,-1.05966 -8.91365,4.00843 -8.58457,5.81987 0.19062,1.03383 2.35492,0.26454 4.8154,-1.71038 2.46007,-1.97487 4.15604,-3.8241 3.76917,-4.10949 z m -173.26322,40.16015 c -0.88671,-1.05032 -2.66354,-1.65889 -3.94875,-1.3524 -1.40401,0.33433 -1.0055,1.138 0.99807,2.01222 4.27162,1.86335 4.95245,1.71107 2.95068,-0.6598 z m 21.1773,-8.18987 c -2.40268,-1.28308 -4.75319,-1.69098 -5.22294,-0.90665 -0.98583,1.64549 4.71829,4.42228 7.63085,3.71524 1.07813,-0.26143 0,-1.52545 -2.40791,-2.80859 z m 159.39009,-34.4601 c 0.45028,-1.34932 -0.56004,-2.14496 -2.24798,-1.76753 -1.68613,0.37699 -2.88767,1.66741 -2.66956,2.86723 0.21671,1.20002 1.22944,1.99531 2.24758,1.76764 1.01794,-0.22761 2.21948,-1.51792 2.66996,-2.86734 z m 35.1319,-14.88275 c 0.44887,2.33553 1.34962,1.91398 3.81311,-1.78478 1.77402,-2.66367 2.72173,-5.21462 2.10571,-5.66874 -2.06578,-1.52198 -12.02767,7.26273 -10.40936,9.17925 0.96637,1.14459 2.05273,0.57345 2.75022,-1.44606 0.95955,-2.77846 1.25111,-2.82535 1.74032,-0.28001 z m -44.43985,6.84593 c -0.31844,-1.74797 -1.90987,-3.42806 -3.53781,-3.73324 -1.62794,-0.30519 -2.58869,-1.66665 -2.135,-3.02559 0.45368,-1.35889 -0.61542,-2.14861 -2.376,-1.75493 -2.73337,0.61126 -2.41352,1.53352 2.19139,6.32061 6.14998,6.39283 6.65524,6.58217 5.85742,2.19315 z m 63.62481,-14.08294 c -0.0903,-0.47061 -1.63597,-1.13475 -3.44451,-1.4739 -1.88619,-0.35347 -2.60896,0.18782 -1.69496,1.27123 1.53183,1.81467 5.46072,1.96953 5.13947,0.20274 z m 67.10081,-17.6165 c -0.97721,-1.70829 -2.11354,-2.54374 -2.52549,-1.85657 -0.41155,0.68712 0.0241,2.1659 0.97119,3.28608 2.57244,3.04682 3.58316,2.1171 1.5543,-1.42951 z m -325.81145,69.55274 c -0.21651,-1.20002 -1.33398,-1.97189 -2.47954,-1.71572 -1.14556,0.25612 -1.35765,1.3252 -0.47074,2.37547 0.88651,1.05039 2.00277,1.82237 2.47954,1.71575 0.47736,-0.1066 0.68886,-1.17566 0.47074,-2.3755 z m 7.86782,-1.75947 c -0.21651,-1.20005 -1.72406,-1.88466 -3.34658,-1.52176 -1.62313,0.36304 -2.7725,1.64155 -2.55378,2.84133 0.21651,1.20004 1.72406,1.88459 3.34658,1.52175 1.62293,-0.36303 2.7723,-1.64155 2.55378,-2.84132 z m -5.49925,-4.68225 c -0.78537,-0.57879 -2.49599,-0.27685 -3.80147,0.67072 -1.44274,1.04733 -0.8827,1.46004 1.42829,1.05225 2.09046,-0.36991 3.15876,-1.1444 2.37318,-1.72311 z M -620.5163,308.74935 c 1.3053,-0.94771 3.0159,-1.24961 3.8014,-0.67101 0.7854,0.57872 -0.2829,1.35418 -2.3735,1.72312 -2.3108,0.40786 -2.8705,-0.005 -1.4279,-1.05223 z m 401.10852,-105.60661 c -1.77081,-1.40359 -2.68922,-3.36965 -2.04029,-4.36907 0.64913,-0.99944 1.7983,-0.67844 2.55378,0.71339 0.75608,1.39172 2.6804,2.23836 4.27683,1.8814 1.59664,-0.35705 2.17695,-1.50846 1.29024,-2.5588 -0.88671,-1.05032 0.1826,-2.31105 2.376,-2.80158 2.73698,-0.61202 3.81953,0.21431 3.45092,2.63365 -0.29557,1.93902 -1.09258,3.72785 -1.77181,3.9752 -0.67863,0.2474 -2.51225,1.04102 -4.07478,1.76375 -1.56252,0.72273 -4.29008,0.16668 -6.06089,-1.23794 z m 43.45361,-12.69068 c -3.48504,-0.81122 -3.66563,-1.16088 -0.97641,-1.89227 1.81396,-0.49349 4.02361,-0.0378 4.91032,1.01255 1.85408,2.19584 1.78546,2.21117 -3.93391,0.87969 z m 87.00935,-19.84005 c 0.91219,-1.52322 2.89791,-2.6 4.41248,-2.39272 1.57236,0.2152 0.86042,1.40338 -1.65925,2.76962 -3.09957,1.68058 -3.91886,1.56842 -2.75323,-0.3769 z m 12.32404,-2.37367 c 3.3502,-3.62241 5.95414,-4.2047 4.91734,-1.09973 -0.45068,1.3494 -2.31881,2.7731 -4.15123,3.16379 -2.87162,0.61222 -2.97737,0.32732 -0.76611,-2.06411 z m 8.94576,-1.86788 c -0.71976,-0.85216 5.45811,-3.21435 13.72825,-5.24927 8.27014,-2.03494 14.71871,-3.21048 14.33003,-2.61221 -1.45798,2.24481 -26.80457,9.34654 -28.05828,7.86155 z m -597.41478,92.13247 c -19.9112,-3.05133 -34.2219,-20.52837 -38.9815,-47.60497 -2.9788,-16.94783 -0.9829,-33.52799 4.6695,-38.9131 1.3785,-1.31172 2.2327,-3.34535 1.8988,-4.51926 -0.9453,-3.32075 16.5365,-17.43135 24.627,-19.87808 3.9917,-1.20719 12.0498,-2.16444 17.907,-2.12723 11.3171,0.0719 21.5158,5.99163 29.5855,17.17242 4.8816,6.76403 4.1199,8.0117 -7.9999,13.10548 -6.9142,2.90599 -8.1728,2.79837 -9.9994,-0.85439 -7.9015,-15.80384 -34.6106,-10.34329 -39.267,8.02799 -4.5478,17.94164 2.142,42.35131 13.8651,50.59419 13.172,9.26108 30.36,2.96717 33.8061,-12.37912 1.824,-8.12006 2.1826,-8.42588 10.3155,-8.79183 11.0735,-0.49825 12.6565,0.98378 11.586,10.84557 -1.1123,10.24673 -9.6984,23.04986 -18.9538,28.26189 -8.7471,4.92606 -24.7226,8.33798 -33.0589,7.06048 z m 128.1028,-27.61809 c -6.5322,1.01199 -13.3968,0.9603 -15.2543,-0.11461 -2.6489,-1.53277 -2.9519,-1.43741 -1.405,0.44188 1.5288,1.85737 -2.7335,3.44907 -18.9419,7.07377 l -20.9149,4.67711 -2.3146,-18.90258 c -1.273,-10.39642 -1.9072,-20.11747 -1.4122,-21.602 0.4954,-1.48458 0.2006,-1.97149 -0.6564,-1.08187 -0.9027,0.93749 -4.1048,-12.39434 -7.6172,-31.71368 l -6.0596,-33.33102 9.8573,-2.46792 9.8578,-2.46801 6.7824,34.35704 c 3.9662,20.09041 6.3824,37.03485 5.8185,40.80576 -0.6178,4.13041 -0.3471,5.80781 0.7537,4.66583 0.9439,-0.98051 2.0985,0.31864 2.5656,2.88695 0.8287,4.56163 1.4154,4.52562 25.3079,-1.55262 l 24.4584,-6.2223 1.763,9.70824 c 1.0037,5.53217 2.3232,8.65523 3.0659,7.26019 0.7173,-1.34663 4.7482,-25.69374 8.9574,-54.10476 4.209,-28.41098 8.2629,-53.06979 9.0087,-54.79733 0.7457,-1.72747 4.8965,-3.93272 9.2235,-4.90043 7.1974,-1.60953 7.7003,-1.38327 5.8966,2.65432 -1.6615,3.71886 -1.4087,3.61894 1.6046,-0.63416 2.1011,-2.96528 5.0458,-4.77262 7.1374,-4.3805 1.9589,0.36713 3.1957,1.27778 2.7487,2.0237 -0.4465,0.74583 2.9924,7.72059 7.6426,15.49936 4.6497,7.77887 8.7827,15.94704 9.1834,18.15161 0.4009,2.20451 1.7242,4.417 2.9406,4.91672 3.3045,1.35673 3.233,4.19579 -0.1244,4.94654 -1.9135,0.42788 -3.3369,-1.46703 -4.0505,-5.39248 -0.6062,-3.32856 -2.1205,-6.47112 -3.3674,-6.9831 -1.2469,-0.51201 -1.993,-0.15 -1.6583,0.80438 1.4652,4.17763 0.6044,5.50776 -2.4051,3.71212 -2.2329,-1.33286 -3.5085,-1.12856 -4.1048,0.65724 -1.2256,3.67103 -5.7736,-0.15423 -11.2026,-9.42263 -4.3485,-7.42321 -4.4943,-7.47747 -5.7141,-2.12752 -0.6889,3.01956 -1.6073,12.15602 -2.0409,20.30327 -0.4335,8.14726 -0.9574,15.92642 -1.1641,17.28699 -0.2383,1.57234 4.0941,1.45339 11.8909,-0.32661 12.1659,-2.77738 12.2596,-2.85352 11.5398,-9.35197 -0.6955,-6.27045 3.5639,-14.63589 6.3904,-12.55308 0.7428,0.54737 -0.1023,2.75847 -1.8786,4.91361 -1.7758,2.15506 -2.5088,4.44891 -1.6283,5.09738 0.8799,0.64851 1.4748,0.49009 1.3217,-0.35209 -0.1565,-0.84181 1.6968,-0.8715 4.1111,-0.0652 2.4143,0.80616 4.0144,0.73973 3.5555,-0.14866 -0.8887,-1.71864 0.5376,-3.05528 4.1143,-3.85506 1.2284,-0.27473 2.0923,1.53433 1.9606,4.10511 -0.1304,2.52798 0.3566,3.97349 1.0988,3.21035 0.7342,-0.7623 7.2841,8.49833 14.556,20.57916 l 13.2206,21.9654 -12.1703,2.72158 -12.17,2.72155 -5.9152,-12.29856 -5.9146,-12.29863 -18.1626,4.0616 -18.1624,4.06162 -1.1941,13.88832 -1.1936,13.88828 -11.3293,2.53361 c -6.2319,1.39353 -12.4545,3.09476 -13.8294,3.78066 -1.3745,0.68584 -7.8438,2.075 -14.3758,3.08702 z m 78.8809,-66.76705 c -0.09,-0.47057 -1.6362,-1.13473 -3.4447,-1.47384 -1.8862,-0.35351 -2.609,0.19005 -1.6954,1.27125 1.5322,1.8146 5.4609,1.96951 5.1401,0.20252 z m -35.0922,-18.50292 c 0.4505,-1.34935 -0.1164,-2.24409 -1.2643,-1.98754 -1.1454,0.25613 -1.9045,1.44754 -1.6864,2.64736 0.2167,1.20004 0.7868,2.09427 1.2644,1.98756 0.4771,-0.1066 1.2358,-1.29801 1.6863,-2.64738 z m 2.0525,-27.79037 c -5.2207,-2.21218 -7.4143,-0.84538 -2.5995,1.61947 2.4077,1.23242 4.7117,1.68325 5.1198,1.00189 0.4081,-0.68141 -0.726,-1.86104 -2.5203,-2.62136 z m 95.5364,80.42631 c -9.4302,-1.42987 -20.6488,-10.16907 -24.5121,-19.09489 l -3.4216,-7.90626 9.2335,-3.57238 c 9.8545,-3.8127 13.5334,-3.47731 14.4045,1.31332 0.9469,5.21308 12.1193,9.80678 19.7171,8.10771 9.573,-2.14081 14.9711,-8.71281 13.5549,-16.50328 -1.522,-8.37106 -4.6639,-9.76835 -25.6015,-11.38517 -18.7603,-1.4488 -24.7562,-3.91419 -31.2088,-12.83284 -11.4209,-15.78531 -4.3432,-42.288399 12.4013,-46.439904 3.4696,-0.860109 5.7266,-2.257505 5.0161,-3.105173 -0.711,-0.847624 3.2709,-2.248847 8.8482,-3.113785 5.5769,-0.865027 10.2302,-1.081962 10.3404,-0.482207 0.1103,0.599599 2.3615,0.748881 5.0034,0.331523 5.9501,-0.940002 14.7757,3.521062 20.2876,10.254562 6.2083,7.584484 6.0665,11.171134 -0.5631,14.248334 -9.0888,4.21862 -15.1947,5.0895 -15.7126,2.24119 -0.26,-1.42219 -2.6442,-4.29917 -5.3014,-6.39263 -4.1373,-3.25955 -6.0863,-3.29906 -13.5657,-0.27507 -9.1655,3.70569 -11.636,7.31686 -10.2849,15.03282 1.1491,6.56595 4.6595,8.03396 21.0543,8.80483 28.2264,1.32718 37.1212,7.32215 40.7716,27.47943 3.8887,21.50301 -7.3451,36.38948 -31.3379,41.51254 -7.0443,1.50418 -15.6497,2.30462 -19.1233,1.77739 z m 88.6878,-20.39071 c -11.0543,-1.82128 -20.541,-8.92458 -24.6754,-18.47655 l -3.4316,-7.92816 9.2337,-3.57236 c 9.8547,-3.81273 13.5336,-3.47735 14.4047,1.31325 0.9475,5.213 12.1193,9.80679 19.7173,8.10769 9.5732,-2.1408 14.9709,-8.71283 13.5546,-16.50332 -1.5219,-8.371 -4.6639,-9.76828 -25.6012,-11.38515 -18.7605,-1.44874 -24.7562,-3.91416 -31.2092,-12.83278 -6.5623,-9.0704 -7.7906,-27.347618 -1.3215,-19.686845 0.8865,1.050339 3.8811,1.402225 6.6544,0.78204 4.2588,-0.952375 4.7542,-0.535306 3.1885,2.692335 -1.5449,3.18311 -1.1849,3.67034 2.1569,2.92297 2.206,-0.49326 4.4399,-0.22659 4.9644,0.59253 1.8014,2.81519 20.5888,7.41987 26.7508,6.55651 3.9897,-0.5591 6.0104,0.17291 5.7222,2.07317 -0.2731,1.80376 1.2357,2.5615 3.91,1.96343 3.0629,-0.68487 4.1956,0.0721 3.8178,2.55158 -0.481,3.15431 1.7104,4.05746 5.7789,2.38186 1.3404,-0.55206 2.805,2.6496 2.9501,6.44969 0.1024,2.68372 1.5435,1.65686 4.4255,-3.15402 2.5195,-4.20599 2.6473,-4.18426 2.2003,0.37425 -0.3197,3.26049 0.5843,5.03754 2.7672,5.44713 4.1081,0.77007 6.1434,11.35135 4.2301,21.99271 -1.8033,10.03089 -8.4216,17.6354 -14.8742,17.09079 -3.2314,-0.27272 -3.8133,0.0603 -1.7949,1.02789 6.9095,3.31432 -21.6613,11.17275 -33.5186,9.21931 z m 15.7531,-63.8032 c -0.2165,-1.20009 -1.334,-1.97196 -2.4795,-1.71574 -1.1458,0.25634 -1.3577,1.32522 -0.4708,2.37551 0.8867,1.05032 2.0028,1.82237 2.48,1.71568 0.4767,-0.1066 0.6882,-1.17556 0.4703,-2.37545 z m 105.30661,33.92643 c 0.31745,-2.08523 -1.05225,-4.5201 -3.14753,-5.5925 -2.95991,-1.51492 -3.43527,-2.91305 -2.35091,-6.90882 1.21559,-4.47791 0.92383,-4.77295 -2.75223,-2.77977 -2.26163,1.22635 -2.96373,2.38676 -1.56052,2.57884 1.90124,0.2602 1.9831,1.29707 0.32245,4.07054 -3.28799,5.48779 -4.93479,5.03968 -4.66751,-1.26981 0.13042,-3.07419 -0.7621,-5.99966 -1.98331,-6.50107 -1.35926,-0.55812 -5.13425,-16.93762 -9.73274,-42.232052 l -7.51226,-41.320327 31.31116,-7.002 c 17.22092,-3.85112 32.60259,-7.91103 34.18158,-9.02196 2.38683,-1.67945 3.21234,-0.14176 4.89626,9.12105 l 2.02545,11.141092 -23.60386,5.278489 -23.60386,5.278466 2.18115,11.998436 2.18176,11.99837 20.65318,-4.618625 20.65318,-4.618691 1.88619,10.361873 1.88379,10.362229 -20.79084,3.87446 -20.79063,3.87444 1.48728,9.52242 c 0.81849,5.23725 1.88379,10.78668 2.36737,12.33196 0.48359,1.54525 0.15852,4.29362 -0.72197,6.10715 -1.62874,3.35542 -0.32807,9.63988 2.73859,13.2342 0.94631,1.10945 -0.0301,2.52558 -2.21065,3.2057 -2.81023,0.87655 -3.7479,0.18248 -3.34297,-2.47496 z m 57.9564,-64.760888 -9.71708,-53.447511 10.02891,-2.2427 10.02871,-2.24269 10.01346,53.381195 10.01346,53.381194 -10.31886,2.30766 -10.31987,2.30771 -9.71689,-53.447506 z m 10.97482,-35.372481 c -0.21671,-1.20004 -0.78718,-2.0942 -1.26415,-1.98753 -0.47716,0.1066 -1.23605,1.29798 -1.68673,2.6474 -0.45048,1.34937 0.11437,2.24408 1.26415,1.98754 1.14556,-0.25635 1.90465,-1.44749 1.68673,-2.64741 z m 34.77352,78.677899 c -0.20166,-1.10145 -0.0923,-3.76492 0.23277,-5.91794 0.47556,-3.1228 1.04001,-3.40138 2.78835,-1.37688 1.70278,1.97125 2.05173,1.72451 1.56132,-1.10466 -0.34172,-2.00445 -1.72586,-3.79248 -3.06406,-3.97565 -2.55558,-0.34982 -11.65384,-47.079429 -10.08248,-51.786025 0.43964,-1.317213 0.0823,-2.234182 -0.79742,-2.037787 -0.87808,0.196506 -3.49206,-8.413504 -5.80846,-19.133097 l -4.21162,-19.49018 32.45029,-7.25682 c 17.84797,-3.99123 33.74193,-8.1656996 35.32092,-9.2766396 2.38723,-1.67949 3.21214,-0.14176 4.89647,9.1210596 l 2.02524,11.14107 -24.58729,5.4984 -24.58749,5.49841 1.98311,10.90764 1.98291,10.907661 21.6372,-4.838653 21.63661,-4.838538 1.88419,10.362269 1.88398,10.362207 -21.07777,3.993144 c -21.48391,4.070122 -25.53842,6.506173 -21.86456,13.136569 1.03339,1.865939 0.22353,2.507643 -2.70066,2.153576 -3.37247,-0.406921 -3.96662,0.459263 -3.09797,4.517278 0.58974,2.761655 1.29746,3.693779 1.57055,2.07197 0.98183,-5.833201 5.7868,-4.31256 6.3049,1.995392 0.59174,7.194944 2.60595,11.335854 5.23096,10.748874 1.03018,-0.23051 1.19111,-1.22612 0.35818,-2.2129 -0.83314,-0.98676 0.23196,-2.0351 2.36697,-2.32968 4.68397,-0.64646 6.19573,6.71995 2.48876,12.12943 -1.36969,1.99882 -0.34653,1.49106 2.27326,-1.12823 4.01939,-4.01863 4.85313,-4.26828 5.33832,-1.5986 0.40774,2.245 2.24537,2.53991 6.32596,1.01578 3.16238,-1.18131 5.90358,-1.30437 6.09079,-0.2742 0.19063,1.03009 1.92311,1.01563 3.85686,-0.0329 1.93395,-1.04867 4.30513,-0.97184 5.26929,0.16936 1.23164,1.45853 -6.76379,3.9805 -26.88443,8.48007 -16.07997,3.59588 -28.7973,5.52575 -29.00177,4.40102 z m 23.36368,-15.68647 c -0.72799,-0.53622 -1.60788,0.92048 -1.95542,3.23714 -0.50185,3.34781 -0.23056,3.5479 1.32334,0.97496 1.07513,-1.78039 1.35966,-3.67588 0.63208,-4.2121 z M 3.28084,103.69894 C 3.24474,99.963371 4.26166,98.097232 6.13641,98.448628 7.76977,98.75487 8.79454,97.619564 8.47449,95.858488 8.12895,93.96798 6.82387,93.483481 5.18228,94.638616 3.68517,95.692137 2.2625,95.467479 2.02111,94.139206 1.78052,92.810821 2.33775,91.555297 3.26078,91.348843 4.18421,91.1421 2.78883,86.091118 0.15799,80.124035 -3.03047,72.890457 -6.54079,58.16535 -10.37518,35.939921 l -5.75127,-33.3347796 24.82166,-5.53715 c 13.652,-3.04613 28.39238,-5.25369 32.7577,-4.90412 13.35323,1.06647 26.25276,11.2723 31.71749,25.0940496 0.34072,0.86031 0.86564,1.76453 1.16723,2.00922 0.302,0.24466 1.88298,5.59285 3.51354,11.88482 1.98672,7.6661 2.1966,11.1248 0.62786,10.48486 -1.28021,-0.52561 -2.05936,-1.76015 -1.73068,-2.74339 0.32827,-0.98324 -0.49182,-3.0279 -1.82218,-4.54369 -1.83483,-2.09107 -2.05194,-1.59813 -0.89835,2.04281 0.83594,2.63935 2.67678,5.65125 4.09042,6.69314 1.63557,1.205 2.39426,4.32816 2.08525,8.583812 -0.26708,3.679246 -0.0863,6.60042 0.40874,6.490795 2.71872,-0.607989 -4.73876,19.82151 -9.33363,25.570144 -8.02996,10.045216 -17.61802,14.483603 -44.12541,20.425448 l -23.82078,5.34054 -0.0522,-5.79546 z M 49.79409,75.76819 c 6.50755,-5.687702 10.68366,-19.022735 9.91775,-31.669619 -0.4848,-8.09393 0.24741,-11.7278 2.64407,-13.02748 1.8282,-0.99141 2.97316,-3.41128 2.54355,-5.37738 -0.42921,-1.96622 -0.51108,-5.6778 -0.19263,-8.24694 0.37583,-2.98348 -0.10836,-2.47537 -1.33839,1.40597 -1.06008,3.34294 -1.49511,6.59014 -0.96678,7.21602 0.52834,0.62586 -0.3658,1.43463 -1.98792,1.79735 -1.64901,0.36884 -2.73819,-0.72178 -2.47071,-2.47446 0.26246,-1.72351 -0.72799,-2.86418 -2.20102,-2.53477 -2.91156,0.65111 -6.73832,-4.44133 -4.77768,-6.35861 0.66317,-0.6486 0.2133,-0.67475 -0.99968,-0.0581 -1.21278,0.61671 -3.52056,-0.0561 -5.12783,-1.49547 -1.60788,-1.43921 -3.82395,-2.41536 -4.92416,-2.16927 -1.10061,0.24625 -3.48945,-1.00748 -5.30842,-2.7858396 -2.00478,-1.96003 -3.1371,-2.15805 -2.87604,-0.50273 0.30159,1.8752396 -2.98961,3.4050496 -10.50508,4.8866596 -6.01494,1.18582 -11.21199,2.61602 -11.5487,3.17803 -0.3371,0.56215 1.81957,16.05127 4.79293,34.420235 l 5.40494,33.398271 12.77914,-2.894313 C 39.6799,80.883512 47.39381,77.865487 49.79349,75.768281 Z M 69.73975,48.634231 c -2.33105,-1.70404 -2.51165,-1.40294 -0.87909,1.46745 1.12991,1.986293 2.44964,2.951109 2.93363,2.143965 0.48338,-0.807098 -0.44045,-2.432315 -2.05454,-3.611415 z m -290.21182,98.892529 c 0.34754,-2.31663 1.22703,-3.77334 1.95482,-3.23712 0.72778,0.53624 0.44466,2.43147 -0.63168,4.21211 -1.5539,2.57285 -1.82539,2.37285 -1.32314,-0.97499 z m 176.60398,-40.27569 c -0.0762,-1.61137 0.47797,-3.86395 1.23345,-5.00558 0.75648,-1.14172 0.96175,-0.70635 0.45589,0.96753 -0.50546,1.67384 0.0201,2.83367 1.16382,2.57752 1.14596,-0.25615 2.23193,0.3522 2.41372,1.35209 0.1806,1.00002 -0.89734,2.09251 -2.39747,2.42799 -1.50072,0.33566 -2.79196,-0.7082 -2.86941,-2.31955 z m -190.92036,41.67465 c -0.96417,-1.14185 -0.92283,-3.44965 0.0923,-5.12848 1.40702,-2.32865 1.68433,-1.98633 1.16924,1.44389 -0.45189,3.00799 -0.0482,3.84468 1.2206,2.52783 1.04222,-1.08266 2.63244,-1.09505 3.534,-0.0276 0.90116,1.06748 0.31283,2.2375 -1.3119,2.6006 -1.62313,0.36308 -3.73968,-0.27435 -4.70344,-1.4162 z m -3.86509,-10.13511 c 0.49563,-1.48481 1.99716,-2.24971 3.33635,-1.69967 1.59042,0.65303 1.7373,-0.22032 0.42339,-2.51757 -1.33859,-2.33922 -1.13312,-3.39708 0.61281,-3.15809 4.5076,0.61686 3.97184,6.45309 -0.7623,8.30768 -2.91075,1.14031 -4.19176,0.80961 -3.61025,-0.93235 z m 12.15329,-4.62788 c -1.95743,-1.7179 -3.85586,-6.12186 -4.21945,-9.78646 -0.62104,-6.2533 -0.74224,-6.34421 -2.15287,-1.45328 -1.25913,4.39639 -1.97106,4.82501 -4.55976,2.74572 -2.50261,-2.01017 -2.66417,-3.58101 -0.87668,-8.53078 1.68273,-4.65806 1.52079,-6.86799 -0.69668,-9.51601 -2.74061,-3.27244 -2.82251,-3.24337 -1.59541,0.56675 0.71111,2.2087 0.042,4.73479 -1.4873,5.61342 -2.4711,1.42009 -2.499,1.26716 -0.2512,-1.37628 1.3913,-1.63572 1.6103,-2.78411 0.4868,-2.55191 -1.1243,0.23307 -2.4005,-1.54118 -2.8367,-3.94086 -0.4345,-2.4 0.1203,-4.58309 1.238,-4.85205 1.1173,-0.26788 0.534,-1.121892 -1.295,-1.895542 -2.4788,-1.048136 -4.4639,-6.668919 -7.7904,-22.060433 l -4.4647,-20.653845 11.0086,-2.461777 11.0081,-2.461755 7.51246,41.320287 c 4.13176,22.726215 6.84065,42.017495 6.02056,42.869505 -0.8203,0.85196 -3.09316,0.14354 -5.05018,-1.57445 z m -8.38612,-14.53022 c -0.21672,-1.20005 -0.78679,-2.09427 -1.26415,-1.98754 -0.47697,0.1066 -1.23586,1.29798 -1.68654,2.64738 -0.45048,1.34932 0.11638,2.24408 1.26395,1.98756 1.14596,-0.25635 1.90485,-1.44756 1.68674,-2.6474 z M 205.56389,-13.540169 c -0.57107,-3.12845 -0.30721,-6.44308 0.57991,-7.36503 0.92543,-0.96104 1.66105,0.97505 1.72385,4.53739 0.14849,8.3656804 -1.03319,9.8153504 -2.30376,2.82764 z M -280.7615,84.486912 c 0.1946,-3.77899 -0.7698,-4.400086 -5.4349,-3.504326 -3.1182,0.599109 -4.6609,0.350061 -3.4272,-0.551063 3.3817,-2.473238 -3.4329,-6.81642 -8.8095,-5.614062 -2.3873,0.533793 -6.6593,-0.882185 -9.4928,-3.146788 -2.8335,-2.264603 -6.1538,-3.480092 -7.3782,-2.701256 -1.2248,0.778947 -2.4199,0.353577 -2.6565,-0.947079 -0.5536,-3.055768 13.9102,-6.268229 24.439,-5.427771 9.5058,0.758807 20.2643,7.974159 23.6566,15.865065 2.9921,6.960294 1.5449,9.551124 -4.0378,7.226078 -2.5995,-1.082786 -4.1691,-0.924179 -3.9289,0.397129 0.2169,1.210415 -0.4021,2.379436 -1.3825,2.598708 -0.9811,0.219428 -1.677,-1.668231 -1.5473,-4.194501 z m -527.089,56.175228 c -2.131,-1.57031 -2.3543,-2.93083 -0.9566,-5.82757 1.5531,-3.21934 1.0529,-3.43104 -3.3791,-1.42938 -4.713,2.12868 -5.3106,1.75066 -6.3602,-4.02127 -0.6708,-3.69173 -0.2272,-5.98883 1.0538,-5.46242 1.2168,0.49961 2.0042,-0.23739 1.7492,-1.63841 -0.3084,-1.68016 1.4676,-2.45784 5.2139,-2.28532 5.4461,0.25087 5.492,0.16134 1.1341,-2.20554 -2.4984,-1.35687 -3.9261,-2.63741 -3.1726,-2.84558 2.6682,-0.73724 12.3158,2.46979 12.63,4.1986 0.4878,2.67497 -5.9894,7.9254 -8.0795,6.55041 -1.0123,-0.66614 -0.9431,-0.081 0.1525,1.30026 1.098,1.38115 2.9465,1.87197 4.1087,1.09059 1.1618,-0.78135 3.7704,-0.90101 5.7956,-0.266 2.6168,0.82049 4.1021,-0.0935 5.1309,-3.15681 1.3255,-3.94814 1.4612,-3.93187 1.607,0.19317 0.1305,3.68061 -1.1549,4.68301 -7.0254,5.47911 -4.983,0.67596 -7.3531,2.07556 -7.7328,4.56702 -0.3014,1.97601 0.3064,3.40133 1.3579,3.16662 1.0478,-0.2345 2.0834,0.5556 2.3017,1.75542 0.536,2.94007 -2.1292,3.3433 -5.5307,0.83643 z m 9.3884,-3.02377 c -0.3678,-2.56254 0,-3.18366 0.9489,-1.5838 0.8548,1.44772 1.1269,3.34488 0.6066,4.21576 -0.5221,0.87108 -1.221,-0.31343 -1.5541,-2.63218 z m -27.2759,2.24502 c 0.807,-5.29331 5.5809,-8.09693 6.3727,-3.74236 0.358,1.96192 -0.052,3.05172 -0.9066,2.42139 -0.8554,-0.63025 -2.5614,0.23607 -3.7908,1.92562 -1.7558,2.41213 -2.1152,2.28228 -1.6753,-0.60465 z m 34.7418,-7.01722 c 0.1705,-1.5366 0.9662,-2.86371 1.7666,-2.94908 2.4009,-0.25688 2.4898,2.83792 0.1304,4.3422 -1.2106,0.77027 -2.0618,0.14288 -1.8906,-1.3933 z m 4.5361,-6.88563 c -4.0742,-4.82568 -6.259,-5.98669 -7.6553,-4.0679 -1.4594,2.00519 -2.3279,0.49737 -3.4287,-5.9546 -1.4407,-8.44528 -0.3786,-11.18105 2.854,-7.35179 0.8865,1.05041 2.5923,1.69046 3.791,1.42246 1.1981,-0.26804 1.4598,-1.01681 0.5809,-1.66412 -0.8783,-0.64742 1.4969,-3.20632 5.2779,-5.68657 8.6767,-5.69137 66.6395,-19.185143 67.2796,-15.662768 0.2484,1.357738 -1.5228,2.181728 -4.2459,1.976298 -4.3304,-0.326694 -4.3629,-0.225036 -0.4398,1.39793 3.3538,1.387448 4.5615,1.022209 5.8281,-1.762412 0.8785,-1.931945 2.6916,-4.027237 4.0286,-4.65619 1.8667,-0.878134 2.124,-0.01335 1.1092,3.724801 -0.8925,3.289194 -0.6609,4.720661 0.7152,4.41295 1.1201,-0.250495 2.4231,1.671636 2.8959,4.271256 0.4725,2.599621 1.3191,3.958625 1.8816,3.019872 0.5622,-0.9388 2.4978,-0.265361 4.3013,1.497493 2.9689,2.90173 3.1826,2.64291 2.2628,-2.740287 -0.8008,-4.687102 -1.6966,-5.522063 -4.2345,-3.9469 -2.4077,1.49438 -2.6535,1.324891 -0.9744,-0.672526 1.8039,-2.145899 1.5218,-2.806074 -1.4367,-3.360675 -3.4287,-0.642661 -3.4626,-0.958451 -0.4958,-4.589249 2.8977,-3.544429 3.3973,-3.392276 5.4936,1.671792 1.2682,3.064091 3.0181,8.890304 3.8894,12.947095 1.5051,7.01326 1.3727,7.23823 -2.6704,4.57004 -4.7711,-3.14716 -7.0754,-3.2111 -6.5246,-0.18092 0.6006,3.30501 9.0104,3.63333 21.9039,0.85552 7.3086,-1.57438 11.6085,-3.39693 10.908,-4.62281 -0.6363,-1.112939 -5.2751,-1.102547 -10.3089,0.0231 -5.9224,1.32434 -9.6548,1.07996 -10.5763,-0.69313 -1.0633,-2.046626 -0.4035,-2.443376 2.6088,-1.568135 5.8279,1.693715 8.4618,0.45962 10.7489,-5.036161 1.9417,-4.666783 2.1982,-4.61286 6.532,1.377011 2.4807,3.428929 5.4362,6.027325 6.5676,5.774335 1.1311,-0.25314 0.3758,-1.698806 -1.6794,-3.212836 -3.7852,-2.789428 -3.916,-8.047443 -0.1605,-6.505772 1.1231,0.46111 3.4014,-0.591232 5.0626,-2.338599 2.6176,-2.752909 2.4629,-2.865827 -1.1608,-0.845376 -3.5474,1.978056 -4.3362,1.48234 -5.2002,-3.269188 -0.6411,-3.524044 -2.112,-5.3562 -3.9689,-4.941023 -1.6227,0.362813 -3.1286,-0.321887 -3.3469,-1.521731 -0.6313,-3.470233 2.3661,-3.187781 8.1736,0.770357 5.1128,3.484543 5.2787,3.466094 3.3588,-0.373028 -1.7471,-3.495714 -1.098,-4.244395 4.8321,-5.570488 7.3248,-1.638076 8.6038,0.771871 5.5638,10.485252 -1.3807,4.411347 -1.6731,4.148345 -3.0357,-2.726537 -1.2295,-6.200442 -1.7486,-6.8251 -2.8091,-3.374718 -1.4309,4.654989 2.9642,12.421025 6.5726,11.61406 3.3695,-0.753511 6.7983,-8.023564 5.6768,-12.036403 -1.8159,-6.495646 -1.4158,-8.331452 1.1721,-5.386778 1.6681,1.897228 2.3463,1.934705 2.0363,0.112162 -0.2551,-1.503994 0.2295,-2.88915 1.0797,-3.079291 2.9882,-0.668298 3.1108,8.385686 0.1224,9.122461 -2.4454,0.60296 -2.2881,1.014087 0.838,2.195682 2.6127,0.987515 4.8206,0.493713 6.8844,-1.539601 1.6859,-1.661288 1.9385,-2.778211 0.5674,-2.509868 -2.9093,0.569288 -4.9811,-8.036049 -2.0906,-8.682515 1.0819,-0.24175 2.1119,0.356715 2.2889,1.33032 0.7472,4.11541 10.6409,9.730829 13.9662,7.927737 1.9279,-1.045399 3.6793,-0.944898 3.8914,0.223545 0.2159,1.173027 2.1382,1.046956 4.2991,-0.282186 2.152,-1.323488 3.605,-1.46191 3.2296,-0.307644 -0.3761,1.154334 0.9579,3.20919 2.9643,4.566416 3.2497,2.19813 3.4094,1.914431 1.4622,-2.597083 -2.085,-4.829908 -2.0182,-4.898028 1.4359,-1.46812 1.9924,1.978212 3.4202,2.483764 3.1728,1.123489 -0.2502,-1.359875 1.3898,-2.491042 3.6372,-2.51274 2.5618,-0.0247 3.8731,-1.213752 3.5147,-3.186556 -0.6487,-3.571491 4.2608,-5.404782 6.709,-2.50504 0.8867,1.050295 2.367,1.740825 3.289,1.534661 1.9095,-0.426972 0.4982,-5.986267 -1.9835,-7.814862 -2.9846,-2.199265 -2.7566,-7.016621 0.3648,-7.714696 1.6867,-0.377011 2.7233,0.341983 2.3042,1.598086 -0.4194,1.256102 0.1123,2.644641 1.1891,3.085232 1.0733,0.440726 1.9764,3.526047 2.0065,6.856234 0.04,4.258571 0.6524,5.433557 2.0722,3.960029 1.1097,-1.152175 1.6469,-3.211927 1.194,-4.577276 -0.4527,-1.365327 -0.3506,-5.14227 0.2279,-8.393142 0.9754,-5.481915 1.1695,-5.278177 2.6726,2.807655 0.8923,4.794968 0.8562,9.51327 -0.074,10.484183 -0.9503,0.990163 -0.2317,2.040034 1.636,2.390207 1.8322,0.343384 3.039,-0.03961 2.682,-0.851385 -1.4931,-3.393678 0.7685,-11.957845 2.9238,-11.072655 1.3561,0.556715 1.6908,-0.220319 0.796,-1.847713 -0.849,-1.544697 -2.4653,-2.35934 -3.5914,-1.810325 -1.1969,0.583487 -1.7963,-0.649538 -1.4431,-2.967797 0.3325,-2.181372 1.1036,-3.000799 1.7132,-1.821029 0.6104,1.179659 3.2075,1.194391 5.7716,0.03271 2.7038,-1.225147 4.8481,-1.088661 5.1047,0.323511 0.241,1.340002 -0.9796,2.753888 -2.7183,3.142761 -1.8772,0.419583 -2.5161,1.833113 -1.5738,3.480648 0.8727,1.525625 0.7738,4.251672 -0.2149,6.056679 -1.2515,2.279647 -1.1959,2.70633 0.1886,1.395103 1.0908,-1.037676 3.343,-0.669589 5.0049,0.818003 1.6616,1.487548 4.0139,2.450227 5.2265,2.139334 1.213,-0.311049 0.3873,-1.539601 -1.8352,-2.730253 -3.4929,-1.871347 -3.8661,-3.086301 -2.75,-8.961296 0.7097,-3.737997 1.4128,-7.153151 1.5627,-7.589115 0.8331,-2.43004 12.1168,-5.31935 12.5014,-3.20127 0.2412,1.34308 -0.4826,2.06069 -1.6151,1.59558 -1.1327,-0.46508 -2.434,0.27615 -2.8917,1.64782 -0.4579,1.371357 0.1666,2.270144 1.3832,1.997906 1.3205,-0.295093 2.0316,1.380082 1.7604,4.146855 -0.7828,7.976028 1.8906,4.536617 3.7376,-4.808722 1.5357,-7.773709 1.9651,-8.302969 3.3749,-4.160139 0.8889,2.61066 2.4394,4.56252 3.4459,4.337417 1.0067,-0.225191 1.9921,0.480472 2.1896,1.568042 0.2011,1.086992 -1.7062,2.012773 -4.2315,2.056214 -2.5253,0.0434 -3.1859,0.441437 -1.4682,0.884677 1.7182,0.443085 5.2378,2.246444 7.8215,4.007409 2.5836,1.760943 5.747,2.46329 7.0298,1.560631 1.2826,-0.902592 2.5634,-0.447935 2.8456,1.01066 0.3329,1.728028 0.9423,1.407031 1.7443,-0.920507 0.6774,-1.964771 0.6525,-4.257815 -0.054,-5.095736 -0.7073,-0.837899 0.094,-1.832023 1.7807,-2.209257 1.6863,-0.377011 2.8274,-1.39853 2.5361,-2.269833 -2.5725,-7.682047 -1.7193,-12.858747 2.3045,-13.989737 2.4097,-0.67742 3.3266,-0.49015 2.0373,0.41716 -1.9157,1.34739 -1.7648,2.17886 0.8269,4.54921 2.7071,2.47607 2.6295,2.80372 -0.5309,2.23946 -2.7882,-0.49776 -3.4979,0.46552 -2.8732,3.90074 0.6435,3.537556 1.3161,3.892914 2.9976,1.582645 1.5521,-2.132835 2.8933,-2.444845 4.7203,-1.098315 1.8202,1.341221 3.4722,0.976094 5.7585,-1.27184 2.7193,-2.67462 2.7169,-3.05446 -0.02,-2.5013 -3.0759,0.62221 -7.6164,-5.95062 -5.9882,-8.6685 0.4264,-0.71167 21.027,-5.91612 45.7784,-11.56534 37.4196,-8.54033 45.0972,-9.75493 45.5603,-7.20705 0.309,1.68492 2.3,4.0766 4.43,5.31392 2.631,1.52874 3.2398,1.48169 1.8992,-0.14666 -1.0854,-1.3181 -1.0356,-2.60623 0.1104,-2.86247 1.1455,-0.25635 2.268,0.55038 2.4935,1.79244 0.2764,1.52279 1.5666,1.19933 3.9598,-0.99288 3.2696,-2.99506 3.5609,-2.70896 3.7016,3.63282 0.1124,5.12291 0.8991,6.7169 3.0697,6.23151 1.6907,-0.37815 2.2395,-1.83561 1.3058,-3.46772 -0.8857,-1.54855 -0.6527,-3.8115 0.5214,-5.02946 1.4874,-1.54472 1.9518,-1.03173 1.5356,1.69718 -0.3277,2.15104 0.1144,3.75224 0.9814,3.55827 0.8679,-0.19405 1.8479,1.13395 2.1784,2.95113 0.4183,2.29932 -0.6586,3.152 -3.5411,2.80423 -3.6052,-0.43505 -3.7087,-0.15311 -0.798,2.17752 1.8389,1.47248 4.1063,1.89601 5.0386,0.94118 2.8943,-2.9635 8.5251,-3.97327 8.9558,-1.60587 0.2397,1.30522 1.2296,0.88419 2.3591,-1.00154 1.5529,-2.59225 1.3366,-3.50668 -1.0621,-4.49177 -2.43,-0.99793 -2.4139,-1.8063 0.084,-4.18378 2.2163,-2.10938 2.4306,-4.00698 0.7535,-6.67684 -1.2883,-2.05156 -2.3273,-4.57563 -2.3088,-5.60907 0.022,-1.0337 -0.8925,-0.91682 -2.0249,0.2593 -3.0205,3.13687 -15.0608,6.40007 -14.2098,3.85125 0.3997,-1.19699 -0.6533,-1.86772 -2.3403,-1.49055 -1.6861,0.37703 -3.2448,-0.29589 -3.4631,-1.49571 -0.538,-2.95792 2.1358,-3.3386 5.5871,-0.79542 2.206,1.62553 3.2553,1.39092 4.7209,-1.05577 2.7731,-4.6295096 5.5275,-4.5504096 4.9474,0.14221 -0.4804,3.89117 -0.4095,3.87535 1.4821,-0.33133 1.6356,-3.63731 5.1804,-5.1313796 20.0803,-8.4633896 13.9516,-3.11993 17.869,-3.34641 17.1125,-0.98908 -0.7757,2.41656 -0.4631,2.36315 1.4921,-0.25419 3.2615,-4.36718997 32.9753,-10.93365 35.6272,-7.87314 1.418,1.63647 1.8039,1.4699 1.4459,-0.62435 -0.3853,-2.26703 7.4499,-4.54331 37.9437,-11.0224004 21.137,-4.49095 38.57563,-7.37171 38.75221,-6.40158 0.57308,3.15062 -2.78634,5.1064 -4.32359,2.51706 -1.12629,-1.89712 -1.41384,-1.85386 -1.16642,0.17469 0.17657,1.48163 -1.10262,2.42508 -2.8508,2.09725 -1.7485,-0.32767 -3.0002,0.38585 -2.7821,1.58569 0.2165,1.20003 1.8272,2.44967 3.57534,2.77741 1.74814,0.32779 3.33756,1.86944 3.53159,3.4260204 0.26507,2.21829 0.0301,2.28714 -1.13512,0.32513 -0.81829,-1.3778104 -2.35132,-2.3119804 -3.40701,-2.0758804 -1.0552,0.23612 -1.1118,1.3845104 -0.1264,2.5523704 0.98605,1.16771 0.73904,3.30876 -0.5492,4.75794 -1.773,1.99472 -1.4142,2.26647 1.47666,1.11866 2.10009,-0.83383 3.86006,-0.50382 3.91123,0.7333 0.0562,1.23726003 1.72546,3.3459 3.72021,4.68606 3.21916,2.16283 3.40196,1.82637 1.62614,-2.99416997 -1.49411,-4.05604003 -1.2487,-5.28995003 0.96918,-4.87419003 1.63336,0.30619 2.74862,2.00672 2.47873,3.7789 -0.43944,2.8818 0.71655,3.36552 4.5407,1.90301003 0.67181,-0.25688 2.2225,0.67339997 3.44631,2.06711997 1.79891,2.04909 2.44001,1.92814 3.34819,-0.63263 0.61823,-1.74226997 2.71451,-2.86753997 4.6623,-2.50238997 2.22952,0.41787 3.3512,-0.43467 3.03115,-2.30366003 -0.33811,-1.96223 0.12641,-2.27475 1.36749,-0.92222 1.03158,1.1246 3.79385,2.70624003 6.13834,3.51459003 3.08172,1.06257997 -19.58607,6.89194997 -81.81233,21.03937957 -54.1812,12.31841 -85.7861,18.70247 -85.2941,17.22937 1.1428,-3.42337 -2.572,-9.02572 -4.5928,-6.92689 -1.0609,1.10168 -0.5661,2.28405 1.2844,3.07027 2.2178,0.94232 1.8902,1.53818 -1.2463,2.26514 -2.3407,0.54169 -4.4787,2.31336 -4.7518,3.93524 -0.3973,2.35903 -0.6267,2.41032 -1.1476,0.25666 -0.7645,-3.1581 -6.7383,-2.39693 -6.1596,0.78498 0.253,1.40618 -59.2647,15.498108 -170.8391,40.448625 -127.9485,28.612113 -170.9947,37.582133 -170.2948,35.486503 0.615,-1.84263 0.1665,-2.00467 -1.3093,-0.47243 -1.2355,1.28274 -5.3032,3.33828 -9.0395,4.56795 -5.1778,1.70406 -6.3579,1.50807 -4.9607,-0.8239 1.0079,-1.68281 1.5118,-4.82673 1.1191,-6.9864 -0.7563,-4.16137 3.8593,-6.49204 6.5483,-3.30664 0.9142,1.08247 0.1926,1.62432 -1.6948,1.27128 -2.0035,-0.3755 -3.0727,0.57258 -2.7357,2.4249 0.3017,1.67317 2.3499,2.79348 4.5465,2.49037 3.2924,-0.45416 3.7493,-1.89589 2.6021,-8.20674 -1.275,-7.01183 -1.0751,-7.42158 2.383,-4.8739 2.0762,1.5299 3.5423,4.30706 3.2585,6.17142 -0.2843,1.86445 0.4351,3.78079 1.5989,4.25857 1.1634,0.4778 1.9157,-0.22991 1.6723,-1.57033 -0.2414,-1.34183 0.4474,-2.07308 1.5366,-1.62579 1.0894,0.44722 2.2432,-0.91121 2.5642,-3.01872 0.5396,-3.54006 0.9046,-3.62067 4.7893,-1.05739 5.4891,3.62138 6.4195,3.24938 5.0883,-2.03443 -1.7252,-6.846351 -8.2631,-10.358377 -15.7216,-8.445104 -5.0182,1.287259 -6.6105,0.88904 -6.2372,-1.559518 0.2753,-1.808367 -0.3725,-3.093066 -1.4307,-2.856124 -1.0625,0.237721 -1.9273,3.276931 -1.9227,6.754152 0,4.470654 -1.1821,6.588584 -4.0584,7.231774 -2.2373,0.50035 -4.2078,0.13931 -4.3791,-0.80445 -0.1686,-0.943 -1.2915,-1.49493 -2.4892,-1.2271 -1.1975,0.26776 -1.4,1.84548 -0.4503,3.50604 0.9499,1.66048 0.9658,3.18936 0.034,3.39755 -0.9304,0.20808 -2.7099,-1.98972 -3.9541,-4.88414 -1.2441,-2.89441 -3.0143,-4.48145 -3.9335,-3.52683 -2.5875,2.68686 -1.38,5.50595 4.0811,9.53018 2.8346,2.08842 4.2889,4.47173 3.3531,5.49331 -0.9098,0.99253 -1.8917,3.3901 -2.1822,5.32801 -0.3162,2.11029 -1.0109,1.22488 -1.7315,-2.20766 -0.6614,-3.15228 -2.7123,-6.01381 -4.5559,-6.35942 -4.809,-0.90146 -5.0769,-0.67881 -4.2733,3.55048 0.6197,3.25672 0.915,3.27315 2.0361,0.11216 0.7216,-2.03431 1.4755,-2.71372 1.6763,-1.50996 0.2007,1.20374 -0.6977,4.46943 -1.9953,7.25686 -1.9163,4.11619 -2.2669,4.30119 -1.867,0.98504 0.2707,-2.24564 -0.3298,-3.89823 -1.3514,-3.67063 -1.0137,0.22677 -1.575,-1.34775 -1.2475,-3.49881 0.4328,-2.83979 -0.03,-3.26235 -1.6841,-1.5428 -1.5176,1.57581 -1.9643,1.42045 -1.3352,-0.4641 1.3235,-3.96452 -1.0844,-3.02957 -3.778,1.46701 -1.9442,3.24553 -1.7859,4.08216 1.1897,6.27433 1.8882,1.39123 2.9956,3.25975 2.4609,4.15231 -1.6673,2.78266 -4.2504,2.49057 -4.2544,-0.48101 0,-1.6608 -1.4987,-2.19381 -3.6104,-1.28528 -3.3514,1.44173 -3.4231,1.24542 -1.0162,-2.77274 2.9505,-4.92497 2.8442,-8.59719 -0.2365,-7.90966 -1.1456,0.25635 -1.7907,-0.40908 -1.4339,-1.47827 0.3567,-1.06928 -1.0573,-1.70869 -3.143,-1.42092 -3.1487,0.43447 -3.3028,1.09701 -0.9085,3.90651 2.1223,2.49026 2.4845,4.61756 1.3709,8.06024 -1.319,4.08165 -1.4943,3.87853 -1.378,-1.5962 0.1124,-5.30842 -0.5058,-6.13011 -4.0143,-5.34538 -2.2809,0.50996 -4.3557,-0.21787 -4.61,-1.61771 -0.2526,-1.40005 -0.8734,-1.85969 -1.3749,-1.02204 -0.5022,0.83775 0.6271,3.56486 2.5109,6.05991 3.0444,4.03389 6.1913,11.86378 4.8852,12.1558 -0.2719,0.0628 -3.0598,-2.92832 -6.1955,-6.64248 z m 74.1481,-14.92578 c -0.728,-0.53619 -2.193,0.48889 -3.2567,2.27829 -1.5362,2.58569 -1.2649,2.78576 1.3232,0.97499 1.7912,-1.25312 2.6613,-2.71706 1.9335,-3.25328 z m 13.2938,0.23686 c -0.3758,-2.06946 -6.4537,-1.79568 -7.1609,0.32246 -0.4308,1.29047 1.0395,1.93867 3.267,1.44053 2.2273,-0.49799 3.9798,-1.29151 3.8939,-1.76306 z m 42.0701,-16.513514 c 1.5738,-3.242682 1.394,-3.534682 -1.0972,-1.781996 -1.638,1.152821 -2.8194,2.97276 -2.6242,4.044196 0.5117,2.805095 1.5768,2.156803 3.7214,-2.2622 z m 13.5547,-4.043083 c -0.2153,-1.161744 -1.6093,-1.251051 -3.1064,-0.197618 -1.4971,1.053543 -2.6517,2.3013 -2.5662,2.772892 0.09,0.470591 1.4836,0.560454 3.1064,0.197619 1.6229,-0.363035 2.7779,-1.610726 2.5662,-2.77287 z M -507.683,60.315232 c -0.2165,-1.200044 -0.7866,-2.094291 -1.2638,-1.987581 -0.4773,0.106598 -1.236,1.29803 -1.6867,2.647378 -0.4503,1.349304 0.1144,2.244018 1.2643,1.987514 1.1456,-0.256125 1.9045,-1.447534 1.6862,-2.647311 z m -37.0538,4.18413 c -0.7278,-0.536174 -2.193,0.488884 -3.2565,2.278312 -1.5365,2.58569 -1.265,2.785756 1.3231,0.974986 1.7915,-1.253098 2.6611,-2.717057 1.9334,-3.253298 z m -211.3258,37.738778 c -0.449,-2.471742 -1.1126,-2.07835 -2.7127,1.60815 -1.1652,2.68428 -2.2518,4.14396 -2.4157,3.24397 -0.1665,-0.89967 -1.1098,-0.79274 -2.1029,0.23946 -1.2326,1.28003 -0.8897,2.6946 1.0799,4.4581 2.4669,2.20824 3.1658,1.9402 4.8163,-1.84669 1.0616,-2.43636 1.6626,-5.90223 1.3351,-7.70203 z m 139.6425,-20.768807 c -0.09,-0.470657 -1.5864,-1.125492 -3.3349,-1.453232 -1.7484,-0.327717 -3.0057,0.355002 -2.7948,1.517191 0.2155,1.161789 1.7122,1.816134 3.3349,1.453232 1.623,-0.363058 2.8803,-1.045599 2.7948,-1.517191 z m -150.1291,29.924697 c -0.2167,-1.20004 -1.2816,-1.98362 -2.3635,-1.74167 -1.082,0.24177 -1.7889,1.42163 -1.5708,2.62143 0.2165,1.20005 1.2818,1.98358 2.3638,1.74163 1.0819,-0.24175 1.7886,-1.42154 1.5705,-2.62139 z m 217.4966,-53.446528 c -0.2165,-1.2 -1.1716,-1.376833 -2.1186,-0.393368 -0.9469,0.983442 -1.9407,0.584911 -2.208,-0.885746 -0.2651,-1.470946 -0.8562,-2.05628 -1.3083,-1.301501 -1.3378,2.233046 2.8086,8.108931 4.4899,6.362921 0.848,-0.880472 1.3631,-2.582485 1.145,-3.782306 z M -737.673,98.295696 c 0.1585,-3.101634 -0.5277,-3.892109 -2.2903,-2.650293 -2.7248,1.917168 -2.8646,4.259194 -0.3648,6.101147 2.2518,1.65919 2.4031,1.46249 2.6551,-3.450854 z m 491.701,-111.262565 c -0.9499,-1.66054 -2.4899,-2.84856 -3.4218,-2.64013 -0.9322,0.2083 -0.9178,1.7376 0.034,3.39806 0.9503,1.66045 2.4896,2.8485604 3.4221,2.6401104 0.932,-0.20853 0.9174,-1.7376004 -0.034,-3.3980404 z m -249.3005,51.64343 c -0.3052,-1.55647 -1.0262,-1.11512 -1.8144,1.10729 -1.0803,3.04547 -1.4162,3.15404 -1.9036,0.61482 -0.3301,-1.69518 -1.0161,-2.37583 -1.5346,-1.51056 -1.4107,2.35463 2.2995,5.96829 4.1522,4.04435 0.8813,-0.91547 1.3765,-2.83068 1.1004,-4.25596 z m 299.69433,-40.7781696 c -0.37584,-2.18315 0.13645,-3.02877 1.20054,-1.97118 1.02556,1.01932 2.79979,2.41039 3.94254,3.09127003 1.14255,0.68096 0.60217,1.56797 -1.20054,1.97118 -1.82259,0.40749997 -3.57333,-0.96538 -3.94254,-3.09127003 z M -385.5627,33.707391 c -0.2863,-1.42337 0.2587,-3.39306 1.2058,-4.37657 0.9471,-0.98346 1.5433,-2.76977 1.3253,-3.96962 -0.2165,-1.20006 -1.2912,-1.25256 -2.3846,-0.11705 -1.2415,1.28928 -1.6275,0.98586 -1.0288,-0.80808 0.5272,-1.57984 1.8006,-2.52683 2.8291,-2.10442 1.0288,0.42243 2.0945,-0.56559 2.3682,-2.19524 0.3417,-2.03255 0.72,-1.94336 1.2046,0.28406 0.3868,1.78633 -0.5783,6.08866 -2.1485,9.56134 -1.5702,3.47268 -3.0871,5.14921 -3.3711,3.72567 z m 166.00302,-39.5949296 c -0.88048,-1.04351 -0.51268,-3.40347 0.83715,-5.2480004 2.66314,-3.65893 3.75071,-1.49968 1.9177,3.8071404 -0.7003,2.02762 -1.78165,2.59321 -2.75485,1.44086 z M -528.4125,61.414063 c -0.7253,-0.534394 -1.2148,-3.002758 -1.0873,-5.485276 0.2185,-4.262889 0.4113,-4.331544 3.4651,-1.236029 4.2153,4.272836 2.1649,10.068761 -2.3778,6.721305 z m 332.73159,-75.168472 c -0.19263,-1.07175 0.98624,-2.89138 2.62461,-4.04422 2.49038,-1.75266 2.67037,-1.46066 1.0968,1.78202 -2.14443,4.41893 -3.21154,5.06756 -3.72141,2.2622 z M -723.474,100.62606 c -0.3253,-1.799998 0.1966,-3.44909 1.162,-3.665113 0.966,-0.21609 2.5335,0.965816 3.4834,2.626281 1.0523,1.839032 0.5962,3.272122 -1.1614,3.665142 -1.5888,0.35544 -3.1563,-0.82655 -3.484,-2.62631 z m 35.8336,-8.381724 c -1.4622,-0.30277 -2.8442,-1.570579 -3.0709,-2.817335 -0.251,-1.368376 0.9525,-1.452163 3.0322,-0.210081 3.3684,2.01077 4.2904,-0.932079 1.042,-3.325691 -3.0964,-2.281717 -3.6622,-7.439453 -0.8847,-8.060639 1.8619,-0.416579 3.234,1.894513 4.1644,7.014462 1.3762,7.568261 0.8566,8.464711 -4.2836,7.400219 z m 9.1641,-5.23309 c -1.8997,-2.228529 -2.3592,-3.866049 -1.1615,-4.13388 1.0912,-0.244108 2.2205,0.78046 2.5097,2.276532 0.3507,1.813374 0.9635,1.487236 1.838,-0.978547 1.1305,-3.187536 1.4086,-3.189783 2.0126,-0.01558 1.0529,5.535505 -1.6486,7.018023 -5.1988,2.852408 z m 451.47099,-98.544025 c -0.88671,-1.05034 -0.67502,-2.11931 0.47074,-2.37554 1.14576,-0.25615 2.26163,0.5159 2.48014,1.71565 0.21651,1.20007 0,2.2687404 -0.47114,2.3755704 -0.47697,0.10659 -1.59283,-0.6654104 -2.47974,-1.7156804 z m 256.73234,-57.97986 c -0.4585,-2.08254 -1.81194,-3.56766 -3.00947,-3.2998 -1.19774,0.26796 -1.92753,-1.15445 -1.62173,-3.16066 0.31885,-2.09164 -0.17256,-2.89333 -1.14616,-1.87996 -0.93667,0.9723 -1.8912,0.72808 -2.12236,-0.54256 -0.22875,-1.27094 1.49771,-2.73915 3.84201,-3.26338 2.34369,-0.52418 3.79686,-0.17692 3.22839,0.77185 -0.56826,0.94866 -0.0702,2.62513 1.10683,3.72538 1.17686,1.10035 1.78325,4.12351 1.34823,6.71806 -0.67301,4.00649 -0.91822,4.14683 -1.62494,0.9309 z m -235.42461,49.79649 c -1.04503,-1.82689 -0.59435,-3.25949 1.16803,-3.65352 3.18164,-0.71145 4.52505,2.53561 2.09407,5.06028 -0.84798,0.88047 -2.3162,0.24731 -3.2621,-1.40676 z m 18.87394,-2.50495 c -0.35858,-1.48074 -1.71302,-2.19938 -3.01088,-1.59698 -1.29806,0.60243 -2.37259,-0.0819 -2.38824,-1.52084 -0.0201,-1.43903 -1.38033,-2.86943 -3.03235,-3.17912 -2.07622,-0.38919 -2.47332,0.50949 -1.28582,2.91007 1.58099,3.19686 1.43892,3.22223 -1.78426,0.31766 -1.92612,-1.73498 -4.08922,-2.27291 -4.80637,-1.19537 -0.71816,1.07757 -0.89153,0.58969 -0.38607,-1.08415 0.50566,-1.67384 2.42215,-3.34547 4.25898,-3.71465 4.69982,-0.94463 14.18796,5.17643 13.58679,8.76508 -0.39329,2.3473 -0.6407,2.41117 -1.15178,0.29718 z m 235.16576,-57.05873 c -1.02175,-5.35015 -0.58793,-6.86647 1.83984,-6.41159 3.97866,0.74583 4.28888,2.3832 1.61791,8.5386 -2.00498,4.61958 -2.18959,4.5059 -3.45735,-2.12707 z M -698.8984,86.61701 c 0,-2.938042 2.3899,-6.682159 4.6322,-7.24426 0.707,-0.176254 1.1791,1.744808 1.0491,4.271034 -0.251,4.907531 -5.6746,7.745606 -5.6813,2.973226 z m 99.5046,-24.088538 c -0.4513,-2.470167 0.1344,-4.100899 1.2984,-3.623076 1.1639,0.477779 1.879,2.421341 1.5897,4.318992 -0.7403,4.858371 -1.9308,4.571601 -2.8881,-0.695916 z m 75.7913,-13.778091 c -1.4626,-0.30277 -2.9294,-2.19266 -3.2601,-4.19976 -0.5365,-3.26551 -0.3156,-3.29033 2.1292,-0.24021 1.5019,1.87551 3.5775,2.53048 4.6129,1.45546 1.1283,-1.17174 1.503,-0.82008 0.9363,0.87795 -0.5201,1.55785 -1.1289,2.79284 -1.3526,2.74428 -0.2238,-0.0483 -1.6035,-0.33595 -3.0659,-0.6387 z m -96.4114,17.857737 c 0.3476,-2.316634 1.2272,-3.773382 1.9552,-3.237163 0.7274,0.536286 0.4423,2.431845 -0.632,4.212149 -1.5539,2.572871 -1.8254,2.372849 -1.3232,-0.974986 z m 10.7322,-3.058839 c -0.3678,-2.562544 0,-3.183619 0.9486,-1.583753 0.8548,1.447668 1.1271,3.344874 0.6063,4.215754 -0.5217,0.871058 -1.2208,-0.313453 -1.5535,-2.632223 z m 72.7787,-16.275298 c -0.3678,-2.56257 0,-3.18367 0.9489,-1.58378 0.8548,1.44763 1.1269,3.34485 0.6064,4.21576 -0.5217,0.87103 -1.221,-0.31343 -1.5539,-2.63218 z m 3.7888,-0.79206 c -0.3379,-1.87092 0.3931,-2.98555 1.6296,-2.47784 1.2364,0.50778 1.905,1.95099 1.4858,3.20714 -1.1361,3.40289 -2.4191,3.10264 -3.1154,-0.7293 z m 124.7679,-25.8657 c -3.7034,-0.7668 -4.008,-4.41086 -0.4346,-5.20992 1.6225,-0.36302 3.2177,0.81275 3.545,2.61252 0.3255,1.80005 0.3612,3.24413 0.072,3.21006 -0.2877,-0.0343 -1.7196,-0.31 -3.182,-0.61273 z m 191.94189,-44.82519 c -0.37463,-2.07727 1.28963,-3.69376 4.56358,-4.42584 4.36191,-0.97541 4.87199,-0.5639 3.30424,2.66636 -1.01954,2.10092 -3.07308,4.09256 -4.56317,4.42581 -1.49069,0.3332 -2.97737,-0.86658 -3.30465,-2.66633 z M -631.9541,68.051825 c -0.739,-0.875264 -0.054,-1.879714 1.5206,-2.231889 1.575,-0.352131 3.0129,0.17759 3.1941,1.177567 0.1806,1.000044 -0.5024,2.004183 -1.5204,2.231823 -1.0177,0.227595 -2.455,-0.302237 -3.1943,-1.177501 z m 442.30579,-99.289834 c -0.88671,-1.05036 -0.67462,-2.11933 0.47074,-2.37552 1.14576,-0.25635 2.26162,0.51581 2.47974,1.71568 0.21671,1.20008 0,2.26874 -0.47094,2.37554 -0.47717,0.10637 -1.59263,-0.66539 -2.47954,-1.7157 z"
       style="fill:#db1b1b;fill-opacity:1" />
  </g>
</svg>
