<?xml version="1.0" encoding="UTF-8" standalone="no"?>
<!-- Created with Inkscape (http://www.inkscape.org/) -->

<svg
   xmlns:dc="http://purl.org/dc/elements/1.1/"
   xmlns:cc="http://creativecommons.org/ns#"
   xmlns:rdf="http://www.w3.org/1999/02/22-rdf-syntax-ns#"
   xmlns:svg="http://www.w3.org/2000/svg"
   xmlns="http://www.w3.org/2000/svg"
   xmlns:sodipodi="http://sodipodi.sourceforge.net/DTD/sodipodi-0.dtd"
   xmlns:inkscape="http://www.inkscape.org/namespaces/inkscape"
   version="1.1"
   id="svg2"
   width="438.75311"
   height="618.56616"
   viewBox="0 0 438.75312 618.56617"
   sodipodi:docname="css.svg"
   inkscape:version="0.92.4 (f8dce91, 2019-08-02)">
  <metadata
     id="metadata8">
    <rdf:RDF>
      <cc:Work
         rdf:about="">
        <dc:format>image/svg+xml</dc:format>
        <dc:type
           rdf:resource="http://purl.org/dc/dcmitype/StillImage" />
        <dc:title></dc:title>
      </cc:Work>
    </rdf:RDF>
  </metadata>
  <defs
     id="defs6" />
  <sodipodi:namedview
     pagecolor="#ffffff"
     bordercolor="#666666"
     borderopacity="1"
     objecttolerance="10"
     gridtolerance="10"
     guidetolerance="10"
     inkscape:pageopacity="0"
     inkscape:pageshadow="2"
     inkscape:window-width="1598"
     inkscape:window-height="860"
     id="namedview4"
     showgrid="false"
     fit-margin-top="0"
     fit-margin-left="0"
     fit-margin-right="0"
     fit-margin-bottom="0"
     inkscape:zoom="0.69411765"
     inkscape:cx="-294.85363"
     inkscape:cy="209.99517"
     inkscape:window-x="0"
     inkscape:window-y="0"
     inkscape:window-maximized="1"
     inkscape:current-layer="svg2" />
  <g
     id="g219"
     transform="translate(-775.47697,46.594365)">
    <path
       style="fill:#eaeaea;stroke-width:1.33333337"
       d="m 903.78723,547.42243 c -47.88003,-13.3915 -87.38589,-24.67949 -87.79081,-25.08441 -0.53381,-0.53381 -40.33451,-439.764848 -40.46835,-446.599048 -0.0108,-0.55 98.68041,-1 219.31374,-1 207.98259,0 219.33569,0.1208 219.37919,2.33333 0.1399,7.12781 -39.3021,443.864988 -40.1751,444.855268 -1.4032,1.59157 -176.70398,50.18634 -180.34801,49.9939 -1.57084,-0.0829 -42.03064,-11.10752 -89.91066,-24.49904 z M 866.17515,-4.594365 v -42 h 38.66666 38.66667 v 15.333333 15.333334 H 922.17515 900.84181 V -3.261032 9.405635 h 21.33334 21.33333 v 14 13.999997 h -38.66667 -38.66666 z m 89.33333,28 v -14 h 16.19256 16.19256 l -16.14959,-12.333333 -16.14957,-12.333334 -0.043,-15.666666 -0.043,-15.666667 h 39.33333 39.33333 v 15.292295 15.292294 l -16.0381,0.374372 -16.038,0.374372 16.038,12.585503 16.0381,12.585504 v 13.747829 13.747828 h -39.33333 -39.33333 z m 89.33332,0.04104 V 9.487714 l 16.2028,-0.374372 16.2028,-0.374374 -16.2028,-12.405904 -16.2028,-12.405904 v -15.260762 -15.260763 h 40 40 v 15.292295 15.292294 l -16.3333,0.374372 -16.3333,0.374372 16.2687,12.666667 16.2688,12.666667 0.064,13.666666 0.064,13.666664 h -40 -40 z"
       id="path199"
       inkscape:connector-curvature="0" />
    <path
       style="fill:#abd1e7;stroke-width:1.33333337"
       d="m 904.34776,547.34655 c -48.30505,-13.46652 -88.09586,-24.75305 -88.424,-25.0812 -0.4095,-0.4095 -40.34553,-442.348758 -40.41079,-447.193048 -0.002,-0.18333 98.69551,-0.33333 219.32884,-0.33333 174.54879,0 219.34449,0.3403 219.38769,1.66666 0.1766,5.40796 -39.3398,444.525318 -40.0816,445.399338 -1.0662,1.25622 -177.03867,50.26516 -179.97275,50.12302 -1.1,-0.0533 -41.52232,-11.11493 -89.82739,-24.58144 z m 89.82739,-99.77462 v -28.50038 l -15.66667,-4.24485 c -8.61667,-2.33467 -22.56667,-6.15949 -31,-8.49963 l -15.33333,-4.25477 -1.73679,-19.33333 c -0.95524,-10.63334 -2.01667,-20.68334 -2.35873,-22.33334 -0.62055,-2.99321 -0.68372,-3 -27.92988,-3 -20.93531,0 -27.31763,0.38894 -27.34947,1.66667 -0.0228,0.91667 1.59443,20.62615 3.59393,43.79883 l 3.63546,42.13217 55.40608,15.42317 c 30.47333,8.48275 56.15606,15.47327 57.07273,15.53451 1.28483,0.0859 1.66667,-6.41827 1.66667,-28.38905 z m 62.24415,-50.4163 c -0.4256,-1.06364 -0.7416,-0.7477 -0.8055,0.80556 -0.058,1.40555 0.2572,2.19306 0.7002,1.75 0.4431,-0.44305 0.4905,-1.59306 0.1052,-2.55556 z m 56,-9.33333 c -0.4256,-1.06364 -0.7416,-0.74771 -0.8055,0.80556 -0.058,1.40555 0.2572,2.19305 0.7002,1.75 0.4431,-0.44305 0.4905,-1.59307 0.1052,-2.55556 z m 1.3333,-14.66667 c -0.4256,-1.06364 -0.7415,-0.7477 -0.8055,0.80556 -0.058,1.40555 0.2572,2.19306 0.7003,1.75 0.443,-0.44305 0.4904,-1.59306 0.1052,-2.55556 z M 994.17515,304.73897 V 277.40563 H 930.69043 867.2057 l 0.77153,5.66667 c 0.42434,3.11667 1.41886,14.06667 2.21004,24.33333 0.79118,10.26667 1.72355,20.01667 2.07193,21.66667 l 0.63342,3 h 60.64126 60.64127 z m 124.91085,8.41666 c -0.4257,-1.06364 -0.7416,-0.7477 -0.8056,0.80556 -0.058,1.40555 0.2573,2.19306 0.7003,1.75 0.4431,-0.44305 0.4904,-1.59306 0.1052,-2.55556 z m 1.3333,-14.66666 c -0.4256,-1.06364 -0.7416,-0.74771 -0.8056,0.80556 -0.058,1.40554 0.2573,2.19305 0.7003,1.75 0.4431,-0.44306 0.4905,-1.59307 0.1052,-2.55556 z m 1.3333,-14.66667 c -0.4256,-1.06364 -0.7415,-0.74771 -0.8055,0.80556 -0.058,1.40555 0.2572,2.19305 0.7003,1.75 0.443,-0.44305 0.4904,-1.59307 0.1052,-2.55556 z m 1.3334,-21.33333 c -0.4257,-1.06364 -0.7416,-0.74771 -0.8056,0.80556 -0.058,1.40554 0.2573,2.19305 0.7003,1.75 0.4431,-0.44306 0.4904,-1.59307 0.1052,-2.55556 z m 1.3333,-14.66667 c -0.4256,-1.06364 -0.7416,-0.74771 -0.8056,0.80556 -0.058,1.40555 0.2573,2.19305 0.7003,1.75 0.4431,-0.44307 0.4905,-1.59307 0.1052,-2.55556 z m 1.3333,-14.66667 c -0.4256,-1.06364 -0.7415,-0.7477 -0.8055,0.80556 -0.058,1.40555 0.2572,2.19306 0.7003,1.75 0.443,-0.44306 0.4904,-1.59306 0.1052,-2.55556 z M 994.17515,194.73897 V 168.0723 h -67.96667 -67.96666 l 0.58534,3.66667 c 0.32194,2.01666 1.22547,11.76666 2.00785,21.66666 0.78238,9.9 1.75672,20.25 2.16519,23 l 0.74268,5 h 65.21613 65.21614 z m 132.91085,23.75 c -0.4257,-1.06364 -0.7416,-0.74771 -0.8056,0.80556 -0.058,1.40554 0.2573,2.19305 0.7003,1.75 0.4431,-0.44307 0.4904,-1.59307 0.1052,-2.55556 z m -29.2442,-51.41566 c -18.8833,-0.20865 -49.7833,-0.20865 -68.6666,0 -18.8834,0.20866 -3.4334,0.37936 34.3333,0.37936 37.7667,0 53.2166,-0.1707 34.3333,-0.37936 z M 866.17515,-4.594365 v -42 h 38.66666 38.66667 v 15.333333 15.333334 H 922.17515 900.84181 V -3.261032 9.405635 h 21.33334 21.33333 v 14 13.999997 h -38.66667 -38.66666 z m 89.33333,28.041039 V 9.487712 l 15.85611,-0.374372 15.8561,-0.374372 -15.79596,-12 -15.79594,-12 -0.0601,-15.666666 -0.0602,-15.666667 h 39.33333 39.33338 v 15.292295 15.292294 l -16.1086,0.374372 -16.1085,0.374372 16.1085,12.640852 16.1086,12.640851 v 13.692483 13.692478 h -39.33338 -39.33333 z m 89.33332,0 V 9.487712 l 16.2028,-0.374372 16.2028,-0.374372 -16.2028,-12.405904 -16.2028,-12.405904 v -15.260762 -15.260763 h 40 40 v 15.333333 15.333334 h -16.723 -16.723 l 16.723,13.34051 16.723,13.34051 v 13.326157 13.326153 h -40 -40 z"
       id="path197"
       inkscape:connector-curvature="0" />
    <path
       style="fill:#ffffff;stroke-width:1.33333337"
       d="m 904.84181,547.16099 c -48.76666,-13.59045 -88.77613,-24.80461 -88.90992,-24.92034 -0.1338,-0.11574 -8.97346,-98.60096 -19.64371,-218.85606 C 785.61793,183.1295 776.57031,82.488972 776.18235,79.738972 l -0.70538,-5 h 219.34908 c 120.64205,0 219.35085,0.45 219.35315,1 0.01,2.38209 -38.7101,436.202618 -39.3717,441.126258 l -0.7336,5.45962 -89.7377,24.87372 c -49.3557,13.68056 -89.98289,24.82842 -90.28267,24.77304 -0.29978,-0.0554 -40.44505,-11.22016 -89.21172,-24.81062 z m 91,-70.6384 c -1.26038,-0.50857 -1.66666,-7.62048 -1.66666,-29.17454 v -28.50204 l -5,-1.46655 c -2.75,-0.8066 -16.7,-4.61619 -31,-8.46575 l -26,-6.9992 -1.84944,-22.25444 -1.84944,-22.25444 h -28.45056 -28.45056 l 0.61541,3.66667 c 0.33848,2.01667 2.19655,21.66667 4.12904,43.66667 1.9325,22 3.64709,40.15652 3.8102,40.34782 0.16311,0.19131 26.04004,7.50211 57.50428,16.24622 50.44036,14.01768 64.20562,17.6098 58.20773,15.18958 z m 59.30559,-15.92252 c -0.4431,-0.44305 -1.5931,-0.49041 -2.5556,-0.1052 -1.0636,0.42563 -0.7477,0.74158 0.8056,0.80555 1.4055,0.0579 2.193,-0.25724 1.75,-0.70029 z m 24,-6.66666 c -0.4431,-0.44306 -1.5931,-0.49042 -2.5556,-0.1052 -1.0636,0.42562 -0.7477,0.74157 0.8056,0.80554 1.4055,0.0579 2.193,-0.25724 1.75,-0.70029 z m 29.2802,-20.19444 c -0.3354,-1.28334 -0.6098,-0.23334 -0.6098,2.33333 0,2.56667 0.2744,3.61667 0.6098,2.33333 0.3353,-1.28333 0.3353,-3.38333 0,-4.66666 z m 1.3333,-14.66667 c -0.3353,-1.28333 -0.6097,-0.23333 -0.6097,2.33333 0,2.56667 0.2744,3.61667 0.6097,2.33334 0.3354,-1.28334 0.3354,-3.38334 0,-4.66667 z m 1.3382,-14.64129 c -0.338,-1.2973 -0.6368,-0.55871 -0.664,1.64129 -0.027,2.2 0.2494,3.26141 0.6146,2.35871 0.3653,-0.90271 0.3875,-2.70271 0.05,-4 z m -54.6715,-10.69204 c -0.3354,-1.28334 -0.6098,-0.23334 -0.6098,2.33333 0,2.56667 0.2744,3.61667 0.6098,2.33333 0.3353,-1.28333 0.3353,-3.38333 0,-4.66666 z m 56,-5.33334 c -0.3354,-1.28333 -0.6098,-0.23333 -0.6098,2.33334 0,2.56666 0.2744,3.61666 0.6098,2.33333 0.3353,-1.28333 0.3353,-3.38333 0,-4.66667 z m -54.6618,-7.97462 c -0.3381,-1.2973 -0.6369,-0.55871 -0.6641,1.64129 -0.027,2.2 0.2495,3.26141 0.6147,2.35871 0.3652,-0.90271 0.3875,-2.70271 0.05,-4 z m 55.9951,-6.69204 c -0.3353,-1.28334 -0.6097,-0.23334 -0.6097,2.33333 0,2.56667 0.2744,3.61667 0.6097,2.33333 0.3354,-1.28333 0.3354,-3.38333 0,-4.66666 z m -54.6666,-8 c -0.3354,-1.28334 -0.6098,-0.23334 -0.6098,2.33333 0,2.56667 0.2744,3.61667 0.6098,2.33333 0.3353,-1.28333 0.3353,-3.38333 0,-4.66666 z m 56,-6.66667 c -0.3354,-1.28333 -0.6098,-0.23333 -0.6098,2.33333 0,2.56667 0.2744,3.61667 0.6098,2.33334 0.3353,-1.28334 0.3353,-3.38334 0,-4.66667 z m -54.6618,-6.64129 c -0.3381,-1.2973 -0.6369,-0.55871 -0.6641,1.64129 -0.027,2.2 0.2494,3.26141 0.6147,2.35871 0.3652,-0.90271 0.3874,-2.70271 0.05,-4 z m 55.9951,-8.02538 c -0.3354,-1.28333 -0.6098,-0.23333 -0.6098,2.33334 0,2.56666 0.2744,3.61666 0.6098,2.33333 0.3353,-1.28333 0.3353,-3.38333 0,-4.66667 z m -54.6618,-5.30796 c -0.3381,-1.29729 -0.6369,-0.5587 -0.6641,1.6413 -0.027,2.2 0.2495,3.26141 0.6147,2.3587 0.3652,-0.9027 0.3875,-2.7027 0.05,-4 z m 56,-9.33333 c -0.3381,-1.29729 -0.6369,-0.55871 -0.6641,1.64129 -0.027,2.2 0.2495,3.26142 0.6147,2.35871 0.3652,-0.90271 0.3875,-2.70271 0.05,-4 z M 994.17515,304.73897 V 277.40563 H 930.65187 867.1286 l 0.78264,7.66667 c 0.43046,4.21667 1.52622,16.51667 2.43503,27.33333 l 1.65238,19.66667 h 61.08824 61.08826 z m 124.91915,9 c -0.3354,-1.28334 -0.6098,-0.23334 -0.6098,2.33333 0,2.56667 0.2744,3.61667 0.6098,2.33333 0.3353,-1.28333 0.3353,-3.38333 0,-4.66666 z m 1.3333,-14.66667 c -0.3354,-1.28333 -0.6098,-0.23333 -0.6098,2.33333 0,2.56667 0.2744,3.61667 0.6098,2.33334 0.3353,-1.28334 0.3353,-3.38334 0,-4.66667 z m 1.3333,-14.66667 c -0.3354,-1.28333 -0.6098,-0.23333 -0.6098,2.33334 0,2.56666 0.2744,3.61666 0.6098,2.33333 0.3354,-1.28333 0.3354,-3.38333 0,-4.66667 z m -53.3284,-18.64129 c -0.3381,-1.29729 -0.6369,-0.55871 -0.6641,1.64129 -0.027,2.2 0.2494,3.26142 0.6147,2.35871 0.3652,-0.90271 0.3874,-2.70271 0.05,-4 z m 54.6618,-2.69204 c -0.3354,-1.28333 -0.6098,-0.23333 -0.6098,2.33333 0,2.56667 0.2744,3.61667 0.6098,2.33334 0.3353,-1.28334 0.3353,-3.38334 0,-4.66667 z m -53.3285,-10.64129 c -0.338,-1.2973 -0.6369,-0.55871 -0.664,1.64129 -0.027,2.2 0.2494,3.26141 0.6146,2.35871 0.3652,-0.90271 0.3875,-2.70271 0.05,-4 z m 54.6618,-4.02538 c -0.3354,-1.28333 -0.6098,-0.23333 -0.6098,2.33334 0,2.56666 0.2744,3.61666 0.6098,2.33333 0.3353,-1.28333 0.3353,-3.38333 0,-4.66667 z m -53.3285,-9.30796 c -0.338,-1.29729 -0.6368,-0.5587 -0.664,1.6413 -0.027,2.2 0.2494,3.26141 0.6146,2.3587 0.3653,-0.9027 0.3875,-2.7027 0.05,-4 z m 54.6618,-5.3587 c -0.3354,-1.28334 -0.6098,-0.23334 -0.6098,2.33333 0,2.56667 0.2744,3.61667 0.6098,2.33333 0.3354,-1.28333 0.3354,-3.38333 0,-4.66666 z m -53.3284,-6.6413 c -0.3381,-1.29729 -0.6369,-0.5587 -0.6641,1.6413 -0.027,2.2 0.2494,3.26141 0.6147,2.3587 0.3652,-0.9027 0.3874,-2.7027 0.05,-4 z m 54.6618,-8.02537 c -0.3354,-1.28333 -0.6098,-0.23333 -0.6098,2.33333 0,2.56667 0.2744,3.61667 0.6098,2.33334 0.3353,-1.28334 0.3353,-3.38334 0,-4.66667 z M 994.17515,194.75097 V 168.0963 l 69.00005,-0.3576 c 37.9499,-0.19668 7.2727,-0.50208 -68.17183,-0.67867 l -137.17177,-0.32106 0.78365,6.33333 c 0.431,3.48333 1.4541,15.03333 2.27355,25.66667 0.81944,10.63333 1.72527,20.08333 2.01294,21 0.4091,1.30356 14.76593,1.66666 65.89823,1.66666 h 65.37518 z m 134.25245,9.65466 c -0.3354,-1.28333 -0.6098,-0.23333 -0.6098,2.33334 0,2.56666 0.2744,3.61666 0.6098,2.33333 0.3353,-1.28333 0.3353,-3.38333 0,-4.66667 z m 1.3333,-14.66666 c -0.3354,-1.28334 -0.6098,-0.23334 -0.6098,2.33333 0,2.56667 0.2744,3.61667 0.6098,2.33333 0.3354,-1.28333 0.3354,-3.38333 0,-4.66666 z m 1.3334,-14.66667 c -0.3354,-1.28333 -0.6098,-0.23333 -0.6098,2.33333 0,2.56667 0.2744,3.61667 0.6098,2.33334 0.3353,-1.28334 0.3353,-3.38334 0,-4.66667 z M 866.17515,-4.594365 v -42 h 38.66666 38.66667 v 15.333333 15.333334 h -22 -22 V -3.261032 9.405635 h 22 22 v 14 13.999997 h -38.66667 -38.66666 z m 89.33333,28.041039 V 9.487712 l 16.162,-0.374372 16.162,-0.374372 -16.162,-12.382264 -16.162,-12.382264 v -15.284402 -15.284403 h 39.33333 39.33339 v 15.333333 15.333334 h -16.8101 -16.81 l 16.753,13 16.7531,13 0.057,13.666666 0.057,13.666664 h -39.33331 -39.33333 z m 89.90292,12.186768 c -0.374,-0.9747 -0.5052,-7.1247 -0.2915,-13.666664 l 0.3886,-11.894476 16.4619,-0.375404 16.4618,-0.375403 -16.7866,-12.957931 -16.7867,-12.957929 -0.01,-15 -0.01,-15 h 39.3334 39.3333 v 15.292295 15.292294 l -16.0424,0.374372 -16.0423,0.374372 16.0423,12.527196 16.0424,12.527196 v 13.806138 13.806134 h -38.7085 c -30.9661,0 -38.8446,-0.35447 -39.3886,-1.77219 z"
       id="path195"
       inkscape:connector-curvature="0" />
    <path
       style="fill:#54a3d3;stroke-width:1.33333337"
       d="m 904.84181,547.16099 c -48.76666,-13.59045 -88.77613,-24.80461 -88.90992,-24.92034 -0.1338,-0.11574 -8.97346,-98.60096 -19.64371,-218.85606 C 785.61793,183.1295 776.57031,82.488972 776.18235,79.738972 l -0.70538,-5 h 219.34908 c 120.64205,0 219.35085,0.45 219.35315,1 0.01,2.38209 -38.7101,436.202618 -39.3717,441.126258 l -0.7336,5.45962 -89.7377,24.87372 c -49.3557,13.68056 -89.98289,24.82842 -90.28267,24.77304 -0.29978,-0.0554 -40.44505,-11.22016 -89.21172,-24.81062 z m 147.99999,-85.86338 c 29.7,-8.18315 54.1776,-15.03404 54.3946,-15.22423 0.3544,-0.31059 3.2113,-32.27404 19.6038,-219.33441 2.6027,-29.7 4.7178,-55.35 4.7002,-57 l -0.032,-3 H 994.84181 c -129.31021,0 -136.66096,0.1256 -136.56069,2.33333 0.0583,1.28333 1.10829,13.43333 2.33334,27 l 2.22736,24.66667 104.97338,0.3414 104.9734,0.34141 -0.7464,5.65859 c -0.4106,3.11222 -1.7486,15.5586 -2.9734,27.6586 l -2.227,22 -99.85571,0.34186 -99.85571,0.34188 0.78175,7.65812 c 0.42997,4.21198 1.52533,16.50814 2.43414,27.3248 l 1.65238,19.66667 h 95.20544 95.20541 l -0.7632,5 c -0.4199,2.75 -2.0373,18.5 -3.5943,35 -1.5571,16.5 -2.9164,30.04748 -3.0206,30.10552 -0.1043,0.058 -13.9896,3.77341 -30.8562,8.25639 l -30.66672,8.15085 -30.66667,-8.33664 -30.66666,-8.33664 -1.84944,-22.25308 -1.84944,-22.25307 h -28.45056 -28.45056 l 0.61541,3.66667 c 0.33848,2.01667 2.19655,21.66667 4.12904,43.66667 1.9325,22 3.64709,40.15652 3.8102,40.34782 0.96162,1.12786 115.07072,32.0277 116.71201,31.6047 1.1,-0.2835 26.29999,-7.21075 55.99999,-15.39388 z M 866.17515,-4.594365 v -42 h 38.66666 38.66667 v 15.333333 15.333334 h -22 -22 V -3.261032 9.405635 h 22 22 v 14 13.999997 h -38.66667 -38.66666 z m 89.33333,28.041039 V 9.487712 l 16.162,-0.374372 16.162,-0.374372 -16.162,-12.382264 -16.162,-12.382264 v -15.284402 -15.284403 h 39.33333 39.33339 v 15.333333 15.333334 h -16.8101 -16.81 l 16.753,13 16.7531,13 0.057,13.666666 0.057,13.666664 h -39.33331 -39.33333 z m 89.90292,12.186768 c -0.374,-0.9747 -0.5052,-7.1247 -0.2915,-13.666664 l 0.3886,-11.894476 16.4619,-0.375404 16.4618,-0.375403 -16.7866,-12.957931 -16.7867,-12.957929 -0.01,-15 -0.01,-15 h 39.3334 39.3333 v 15.292295 15.292294 l -16.0424,0.374372 -16.0423,0.374372 16.0423,12.527196 16.0424,12.527196 v 13.806138 13.806134 h -38.7085 c -30.9661,0 -38.8446,-0.35447 -39.3886,-1.77219 z"
       id="path193"
       inkscape:connector-curvature="0" />
    <path
       style="fill:#27a6de;stroke-width:1.33333337"
       d="M 905.54672,546.88002 816.25164,522.05943 796.43063,299.62641 C 785.52908,177.28825 776.86367,76.939342 777.17416,76.628852 c 0.31049,-0.3105 98.63553,-0.41274 218.50008,-0.2272 l 217.93556,0.33732 -19.6491,219.333328 c -10.807,120.63333 -19.6886,220.83333 -19.7369,222.66667 -0.086,3.26572 -1.7982,3.80513 -84.4016,26.59149 -46.3725,12.792 -86.7137,23.95837 -89.6471,24.81416 -5.05113,1.47367 -10.05749,0.24285 -94.62838,-23.2646 z m 145.89798,-84.86244 c 30.3983,-8.45533 55.5595,-15.66321 55.9138,-16.01751 0.6287,-0.62869 13.8721,-145.44722 15.3979,-168.37817 0.9607,-14.43797 8.5012,-100.67973 9.3162,-106.5496 l 0.6016,-4.33333 H 995.42465 858.17515 l 0.0158,4.33333 c 0.009,2.38333 0.90624,13.93333 1.99456,25.66667 1.08831,11.73333 1.98121,22.08333 1.9842,23 0.004,1.31913 21.83057,1.66666 104.67211,1.66666 h 104.66668 l 0.01,3.66667 c 0.011,4.44956 -3.9001,43.79416 -4.7717,48 l -0.6216,3 h -99.08575 c -54.49713,0 -99.36557,0.27987 -99.70763,0.62192 -0.83026,0.83027 3.79359,53.67824 4.8454,55.38009 0.53496,0.86586 33.71565,1.33132 94.90251,1.33132 h 94.07987 l -0.9638,12.33334 c -0.53,6.78333 -1.9514,22.17404 -3.1585,34.20156 l -2.1948,21.86824 -28.6667,7.76328 c -15.7667,4.2698 -30.07626,7.77909 -31.7991,7.79842 -3.3616,0.0377 -58.91609,-14.51608 -60.45917,-15.8387 -0.50874,-0.43604 -1.55148,-7.3928 -2.31724,-15.45947 -0.76575,-8.06667 -1.7427,-17.81667 -2.17099,-21.66667 l -0.77871,-7 h -28.57073 c -21.98251,0 -28.56431,0.38432 -28.54292,1.66667 0.13082,7.84237 7.85809,85.33105 8.58174,86.05708 1.00188,1.00519 110.67947,31.89789 114.05713,32.12629 1.1,0.0744 26.87129,-6.78276 57.26959,-15.23809 z M 866.17515,-4.594365 v -42 h 38.66666 38.66667 v 15.333333 15.333334 h -22 -22 V -3.261032 9.405635 h 22 22 v 14 13.999997 h -38.66667 -38.66666 z m 89.33333,28.041039 V 9.487712 L 971.71125,9.11334 987.91404,8.738968 971.71125,-3.666936 955.50848,-16.07284 v -15.260762 -15.260763 h 39.33333 39.33339 v 15.333333 15.333334 h -16.8084 -16.8084 l 16.8084,13.324928 16.8084,13.324928 v 13.341738 13.341736 h -39.33339 -39.33333 z m 89.90292,12.186768 c -0.374,-0.9747 -0.5052,-7.1247 -0.2915,-13.666664 l 0.3886,-11.894476 16.2033,-0.666667 16.2032,-0.666667 -13.9597,-10.666666 c -20.9101,-15.977495 -19.1135,-13.152674 -19.1135,-30.05194 v -14.614727 h 39.3334 39.3333 v 15.292295 15.292294 l -16.158,0.374372 -16.1581,0.374372 16.1581,12.547967 16.158,12.547967 V 23.620268 37.405632 H 1084.8 c -30.9661,0 -38.8446,-0.35447 -39.3886,-1.77219 z"
       id="path191"
       inkscape:connector-curvature="0" />
    <path
       style="fill:#158ccd;stroke-width:1.33333337"
       d="M 905.54672,546.88002 816.25164,522.05943 796.43063,299.62641 C 785.52908,177.28825 776.86367,76.939342 777.17416,76.628852 c 0.31049,-0.3105 98.63553,-0.41274 218.50008,-0.2272 l 217.93556,0.33732 -19.6491,219.333328 c -10.807,120.63333 -19.6886,220.83333 -19.7369,222.66667 -0.086,3.26572 -1.7982,3.80513 -84.4016,26.59149 -46.3725,12.792 -86.7137,23.95837 -89.6471,24.81416 -5.05113,1.47367 -10.05749,0.24285 -94.62838,-23.2646 z m 164.62848,-33.9946 c 63.8831,-17.70923 68.7345,-19.25975 69.6416,-22.25753 0.5363,-1.77224 8.1818,-85.12226 16.9901,-185.22226 8.8083,-100.1 16.3563,-184.55 16.7733,-187.66666 l 0.7583,-5.66667 h -89.415 -89.41502 v 27.33333 27.33334 h -68.66667 -68.66666 l 0.0158,4.33333 c 0.009,2.38333 0.90624,13.93333 1.99456,25.66667 1.08831,11.73333 1.98121,22.08333 1.9842,23 0.004,1.31104 14.23056,1.66666 66.6721,1.66666 h 66.66667 v 27.33334 27.33333 h -63.77777 c -35.07779,0 -64.05765,0.27987 -64.39971,0.62192 -0.83026,0.83027 3.79359,53.67824 4.84539,55.38009 0.52839,0.85495 22.741,1.33132 62.07745,1.33132 h 61.25464 v 42 c 0,37.60379 -0.2232,42 -2.13244,42 -2.72608,0 -58.22597,-14.81685 -59.45917,-15.87386 -0.50874,-0.43604 -1.55148,-7.3928 -2.31724,-15.45947 -0.76575,-8.06667 -1.7427,-17.81667 -2.17099,-21.66667 l -0.77871,-7 H 900.0792 c -21.98251,0 -28.56431,0.38432 -28.54292,1.66667 0.1553,9.31053 7.936,85.46552 8.81148,86.24397 0.85462,0.7599 75.40965,21.75686 112.82739,31.77562 2.12788,0.56974 2.33333,3.0788 2.33333,28.49465 v 27.86989 l 3,-0.76786 c 1.65002,-0.42234 33.90002,-9.33375 71.66672,-19.80315 z M 866.17515,-4.594365 v -42 h 38.66666 38.66667 v 15.333333 15.333334 h -22 -22 V -3.261032 9.405635 h 22 22 v 14 13.999997 h -38.66667 -38.66666 z m 89.33333,28.041039 V 9.487712 L 971.71125,9.11334 987.91404,8.738968 971.71125,-3.666936 955.50848,-16.07284 v -15.260762 -15.260763 h 39.33333 39.33339 v 15.333333 15.333334 h -16.8084 -16.8084 l 16.8084,13.324928 16.8084,13.324928 v 13.341738 13.341736 h -39.33339 -39.33333 z m 89.90292,12.186768 c -0.374,-0.9747 -0.5052,-7.1247 -0.2915,-13.666664 l 0.3886,-11.894476 16.2033,-0.666667 16.2032,-0.666667 -13.9597,-10.666666 c -20.9101,-15.977495 -19.1135,-13.152674 -19.1135,-30.05194 v -14.614727 h 39.3334 39.3333 v 15.292295 15.292294 l -16.158,0.374372 -16.1581,0.374372 16.1581,12.547967 16.158,12.547967 V 23.620268 37.405632 H 1084.8 c -30.9661,0 -38.8446,-0.35447 -39.3886,-1.77219 z"
       id="path189"
       inkscape:connector-curvature="0" />
    <path
       style="fill:#006fb9;stroke-width:1.33333337"
       d="m 903.79373,546.30294 c -75.52743,-21.02377 -87.12214,-24.58357 -87.60776,-26.89731 -1.02785,-4.89722 -39.5358,-442.252798 -38.98741,-442.801178 0.29707,-0.29707 98.59364,-0.38834 218.43681,-0.2028 l 217.89673,0.33732 -19.5287,218.666658 c -10.7408,120.26667 -19.7461,220.43083 -20.0118,222.58703 l -0.4831,3.92037 -88,24.39888 c -48.4,13.41939 -89.50002,24.359 -91.33335,24.31027 -1.83334,-0.0488 -42.50496,-10.99239 -90.38142,-24.31924 z m 164.78307,-32.35509 c 38.6458,-10.70179 70.6458,-19.85179 71.1113,-20.33334 0.6797,-0.70326 34.5876,-375.27882 34.5092,-381.21826 -0.018,-1.33246 -18.4042,-1.60579 -89.6888,-1.33334 l -89.66669,0.34272 -0.36038,27.66667 -0.36039,27.66667 h -67.97295 -67.97294 l 0.0396,5.66666 c 0.0218,3.11667 0.90396,14.36667 1.96038,25 1.05642,10.63334 1.9386,20.38334 1.96039,21.66667 0.0372,2.19027 4.08645,2.33333 66.03961,2.33333 h 66 v 27.33334 27.33333 h -63.25464 c -34.79005,0 -63.49818,0.45 -63.79584,1 -0.29766,0.55 0.53886,12.7 1.85891,27 1.32006,14.3 2.42819,26.75 2.46251,27.66667 0.049,1.30828 13.25124,1.66666 61.39573,1.66666 h 61.33334 v 42 c 0,23.1 -0.45876,42 -1.01947,42 -1.66256,0 -58.97564,-15.55065 -59.59471,-16.16973 -0.31229,-0.31229 -1.19461,-7.15185 -1.96072,-15.19904 -0.76609,-8.04717 -1.74332,-17.78123 -2.17161,-21.63123 l -0.77871,-7 h -28.57073 c -26.34172,0 -28.56654,0.18204 -28.51716,2.33334 0.24799,10.80457 7.78243,84.68925 8.72792,85.5883 0.67019,0.63728 23.41852,7.25666 50.55185,14.70972 27.13334,7.45308 52.48334,14.45259 56.33334,15.55446 l 7,2.00341 v 27.90539 c 0,24.32581 0.26532,27.90538 2.06836,27.90538 1.1376,0 33.6876,-8.756 72.3333,-19.45778 z M 866.17515,-4.594365 v -42 h 38.66666 38.66667 v 15.333333 15.333334 h -22 -22 V -3.261032 9.405635 h 22 22 v 14 13.999997 h -38.66667 -38.66666 z m 89.33333,28.041039 V 9.487712 L 971.71125,9.11334 987.91404,8.738968 971.71125,-3.666936 955.50848,-16.07284 v -15.260762 -15.260763 h 39.33333 39.33339 v 15.333333 15.333334 h -16.8084 -16.8084 l 16.8084,13.324928 16.8084,13.324928 v 13.341738 13.341736 h -39.33339 -39.33333 z m 89.90292,12.186768 c -0.374,-0.9747 -0.5052,-7.1247 -0.2915,-13.666664 l 0.3886,-11.894476 16.2033,-0.666667 16.2032,-0.666667 -13.9597,-10.666666 c -20.9101,-15.977495 -19.1135,-13.152674 -19.1135,-30.05194 v -14.614727 h 39.3334 39.3333 v 15.292295 15.292294 l -16.158,0.374372 -16.1581,0.374372 16.1581,12.547967 16.158,12.547967 V 23.620268 37.405632 H 1084.8 c -30.9661,0 -38.8446,-0.35447 -39.3886,-1.77219 z"
       id="path187"
       inkscape:connector-curvature="0" />
    <path
       style="fill:#585858;stroke-width:1.33333337"
       d="m 866.17515,-4.594365 v -42 h 38.66666 38.66667 v 15.333333 15.333334 h -22 -22 V -3.261032 9.405635 h 22 22 v 14 13.999997 h -38.66667 -38.66666 z m 89.33333,28.041039 V 9.487712 L 971.71125,9.11334 987.91404,8.738968 971.71125,-3.666936 955.50848,-16.07284 v -15.260762 -15.260763 h 39.33333 39.33339 v 15.333333 15.333334 h -16.8084 -16.8084 l 16.8084,13.324928 16.8084,13.324928 v 13.341738 13.341736 h -39.33339 -39.33333 z m 89.90292,12.186768 c -0.374,-0.9747 -0.5052,-7.1247 -0.2915,-13.666664 l 0.3886,-11.894476 16.2033,-0.666667 16.2032,-0.666667 -13.9597,-10.666666 c -20.9101,-15.977495 -19.1135,-13.152674 -19.1135,-30.05194 v -14.614727 h 39.3334 39.3333 v 15.292295 15.292294 l -16.158,0.374372 -16.1581,0.374372 16.1581,12.547967 16.158,12.547967 V 23.620268 37.405632 H 1084.8 c -30.9661,0 -38.8446,-0.35447 -39.3886,-1.77219 z"
       id="path185"
       inkscape:connector-curvature="0" />
    <path
       style="fill:#000000;stroke-width:1.33333337"
       d="m 866.17515,-5.261032 v -41.333333 h 38.66666 38.66667 v 14.666667 14.666666 h -22 -22 v 14 14 h 22 22 v 12.666667 12.666667 h -38.66667 -38.66666 z m 89.33333,28.666667 V 10.738968 h 16.66667 c 9.16666,0 16.66666,-0.452838 16.66666,-1.006308 0,-0.553469 -7.5,-6.70063 -16.66666,-13.660358 l -16.66667,-12.65405 v -15.006309 -15.006308 h 38.66667 38.66665 v 14.666667 14.666666 h -16 c -8.8,0 -16,0.512762 -16,1.139471 0,0.626708 7.2,6.763653 16,13.637655 l 16,12.498182 V 23.04329 36.072302 h -38.66665 -38.66667 z m 90.66672,0.03984 V 10.818644 l 17,-0.373169 17,-0.373173 -17,-13.173888 -17,-13.17389 V -31.43492 -46.594365 h 38.6666 38.6667 v 14.666667 14.666666 h -16.6667 c -9.1666,0 -16.6334,0.45 -16.5926,1 0.041,0.55 7.5407,6.843971 16.6666,13.986602 l 16.5927,12.986602 v 12.680064 12.680066 h -38.6667 -38.6666 V 23.445471 Z"
       id="path183"
       inkscape:connector-curvature="0" />
  </g>
</svg>
