<?xml version="1.0" encoding="UTF-8" standalone="no"?>
<!-- Created with Inkscape (http://www.inkscape.org/) -->

<svg
   xmlns:dc="http://purl.org/dc/elements/1.1/"
   xmlns:cc="http://creativecommons.org/ns#"
   xmlns:rdf="http://www.w3.org/1999/02/22-rdf-syntax-ns#"
   xmlns:svg="http://www.w3.org/2000/svg"
   xmlns="http://www.w3.org/2000/svg"
   xmlns:sodipodi="http://sodipodi.sourceforge.net/DTD/sodipodi-0.dtd"
   xmlns:inkscape="http://www.inkscape.org/namespaces/inkscape"
   width="185.56111mm"
   height="124.70996mm"
   viewBox="0 0 185.56111 124.70996"
   version="1.1"
   id="svg8"
   inkscape:version="0.92.4 (f8dce91, 2019-08-02)"
   sodipodi:docname="email-icon.svg">
  <defs
     id="defs2" />
  <sodipodi:namedview
     id="base"
     pagecolor="#ffffff"
     bordercolor="#666666"
     borderopacity="1.0"
     inkscape:pageopacity="0.0"
     inkscape:pageshadow="2"
     inkscape:zoom="0.7"
     inkscape:cx="592.72194"
     inkscape:cy="362.64943"
     inkscape:document-units="mm"
     inkscape:current-layer="layer1"
     showgrid="false"
     inkscape:window-width="1598"
     inkscape:window-height="860"
     inkscape:window-x="0"
     inkscape:window-y="0"
     inkscape:window-maximized="1" />
  <metadata
     id="metadata5">
    <rdf:RDF>
      <cc:Work
         rdf:about="">
        <dc:format>image/svg+xml</dc:format>
        <dc:type
           rdf:resource="http://purl.org/dc/dcmitype/StillImage" />
        <dc:title></dc:title>
      </cc:Work>
    </rdf:RDF>
  </metadata>
  <g
     inkscape:label="Layer 1"
     inkscape:groupmode="layer"
     id="layer1"
     transform="translate(-14.56468,-14.749565)">
    <g
       id="g154"
       transform="translate(3.779757,-2.6458333)">
      <path
         style="fill:#2bf3f3;stroke-width:0.35277778"
         d="m 10.784923,79.663689 v -62.26528 h 92.780557 92.78055 v 62.26528 62.265281 H 103.56548 10.784923 Z"
         id="path190"
         inkscape:connector-curvature="0" />
      <path
         style="fill:#33e9f0;stroke-width:0.35277778"
         d="m 10.784923,79.663689 v -62.26528 h 92.780557 92.78055 v 62.26528 62.265281 h -5.64334 -5.64333 l -0.0904,-54.945142 -0.0904,-54.945141 -0.0871,54.945141 -0.0871,54.945142 H 103.39019 22.076023 l -0.09041,-54.945142 -0.09041,-54.945141 -0.08708,54.945141 -0.08708,54.945142 h -5.468055 -5.468056 z"
         id="path188"
         inkscape:connector-curvature="0" />
      <path
         style="fill:#38e3ed;stroke-width:0.35277778"
         d="m 10.784923,79.663689 v -62.26528 h 86.274987 86.27498 l -0.24896,0.440972 -0.24896,0.440972 0.47509,-0.440972 0.47508,-0.440972 h 6.27945 6.27944 v 62.26528 62.265281 h -5.64334 -5.64333 l -0.0904,-54.945142 -0.0904,-54.945141 -0.0871,54.945141 -0.0871,54.945142 H 103.39019 22.076023 l -0.09041,-54.945142 -0.09041,-54.945141 -0.08708,54.945141 -0.08708,54.945142 h -5.468055 -5.468056 z"
         id="path186"
         inkscape:connector-curvature="0" />
      <path
         style="fill:#36e2ec;stroke-width:0.35277778"
         d="m 21.987812,86.933444 -0.09039,-54.995524 1.234722,0.640401 1.234722,0.640401 1.19918,0.897568 1.199179,0.897567 0.300126,-0.185488 0.300126,-0.185488 v 0.348604 0.348605 l 1.612835,1.088489 1.612835,1.088489 0.336183,-0.207774 0.336184,-0.207773 -0.09694,0.467195 -0.09693,0.467194 0.613565,-0.04836 0.613564,-0.04836 -0.135565,0.224753 -0.135564,0.224753 0.466186,0.430637 0.466186,0.430637 0.174491,-0.430637 0.174491,-0.430637 0.03491,0.529166 0.03492,0.529167 3.608909,2.436801 3.608908,2.436801 6.438194,4.343886 6.438195,4.343886 v -0.22008 -0.220084 l 0.617361,0.689501 0.617361,0.689497 1.268797,0.770914 1.268797,0.770915 0.287066,-0.259905 0.287069,-0.259909 -0.198137,0.352777 -0.198138,0.352778 1.640882,1.091735 1.640886,1.09173 1.763889,1.103853 1.763889,1.103852 0.353095,0.273858 0.353096,0.273861 1.324673,0.989676 1.324677,0.989676 0.405208,-0.250434 0.405211,-0.250433 -0.228872,0.370321 -0.228868,0.370318 0.615333,0.26936 0.615336,0.269364 0.352778,-0.0854 0.352777,-0.08541 -0.262713,0.262714 -0.262714,0.262714 2.202992,1.424848 2.202991,1.424852 0.176389,0.202067 0.176389,0.202068 0.980105,0.623873 0.980101,0.623874 0.397319,-0.245558 0.397323,-0.245558 -0.233994,0.378608 -0.233994,0.378608 3.61907,2.404929 3.61907,2.404925 0.176389,0.20001 0.176388,0.200011 1.411112,0.861134 1.411111,0.861131 0.264583,-0.086 0.264583,-0.086 v 0.303724 0.303724 l 2.204861,1.514298 2.204862,1.514303 4.233333,2.884043 4.233334,2.884043 2.07612,1.442268 2.07612,1.442272 0.82323,-0.375091 0.82324,-0.375091 -0.18615,-0.301191 -0.18614,-0.301191 h 0.5708 0.57081 l -0.25172,-0.407285 -0.25172,-0.407286 0.46081,0.284794 0.4608,0.284791 0.44352,-0.606552 0.44353,-0.606556 0.2967,-0.02025 0.29672,-0.02025 1.50656,-1.036542 1.50656,-1.036546 -0.20197,-0.326792 -0.20197,-0.326796 0.60537,0.232297 0.60536,0.232301 -0.28877,-0.467237 -0.28877,-0.467236 0.39033,0.24124 0.39033,0.241236 3.45654,-2.459962 3.45654,-2.459961 1.11197,-0.813573 1.11196,-0.813576 -0.16015,-0.260544 -0.16015,-0.260541 0.51089,0.196046 0.51088,0.196046 0.56577,-0.807749 0.56577,-0.807748 v 0.263017 0.263017 l 0.97014,-0.617347 0.97014,-0.617343 0.17639,-0.187346 0.17639,-0.187343 2.56258,-1.698579 2.56258,-1.698583 -0.23584,-0.381593 -0.23584,-0.381592 0.36682,0.226709 0.36682,0.226705 2.24533,-1.50725 2.24532,-1.50725 2.99862,-2.078606 2.99861,-2.078605 1.23472,-0.905863 1.23472,-0.905866 0.25918,-0.354785 0.25918,-0.354785 0.0108,0.352777 0.0108,0.352778 0.25918,-0.35608 0.25918,-0.356079 1.51189,-0.980169 1.51188,-0.980168 -0.20729,-0.335404 -0.20729,-0.335407 0.60536,0.232297 0.60536,0.232301 -0.28876,-0.467237 -0.28877,-0.467236 0.40014,0.247301 0.40014,0.247304 1.85923,-1.348066 1.85922,-1.348067 2.11068,-1.402367 2.11069,-1.402368 0.68986,-0.617361 0.68987,-0.617361 h 0.27022 0.27022 l 0.88997,-0.889962 0.88996,-0.889962 0.12206,0.09621 0.12206,0.09621 1.27044,-0.870521 1.27044,-0.870521 -0.20427,-0.330514 -0.20427,-0.330514 0.39483,0.244012 0.39481,0.244012 2.11138,-1.512421 2.11137,-1.512422 1.96344,-1.347855 1.96345,-1.347854 -0.20012,-0.323799 -0.20012,-0.323799 0.54749,0.210091 0.54751,0.210109 V 40.013931 39.62341 l 0.26458,0.07737 0.26459,0.07737 1.5875,-1.044211 1.5875,-1.044211 0.17639,-0.215073 0.17638,-0.215072 0.80364,-0.42329 0.80363,-0.423291 -0.2046,-0.331036 -0.20459,-0.331037 0.46303,0.177681 0.46303,0.177681 1.14279,-1.04378 1.1428,-1.04378 v 0.17345 0.17345 l 1.5875,-1.092228 1.5875,-1.092229 V 87.055075 141.92897 H 103.39128 22.0782 Z m 80.695718,-15.935427 -1.41111,-1.02313 -2.980254,-2.005365 -2.980252,-2.005369 h -0.443812 -0.443809 l 0.135319,-0.218955 0.135322,-0.218955 -3.943199,-2.632665 -3.943201,-2.632667 -0.176389,-0.176389 -0.176389,-0.176389 -6.173611,-4.134221 -6.173611,-4.134218 -4.409722,-2.988891 -4.409723,-2.988893 -0.445424,-0.391485 -0.445424,-0.391484 -0.43652,0.251016 -0.436521,0.251016 0.24946,-0.27662 0.249456,-0.27662 -1.307789,-0.886639 -1.307793,-0.88664 -2.219823,-1.550707 -2.219822,-1.550707 -0.392324,0.24247 -0.392324,0.24247 0.201803,-0.326524 0.201803,-0.326523 -5.699669,-3.843725 -5.699668,-3.843724 h -0.42525 -0.425251 l 0.0686,-0.25273 0.0686,-0.252729 -2.910417,-1.977353 -2.910417,-1.977354 -0.01073,0.260407 -0.01073,0.260407 -0.359584,-0.617369 -0.359584,-0.617369 -1.05116,-0.543576 -1.051159,-0.543576 -0.338377,0.209128 -0.338377,0.209129 0.155475,-0.459295 0.155475,-0.459295 -2.717154,-1.755094 -2.717155,-1.755094 -0.264584,0.0794 -0.264583,0.0794 V 21.65336 21.322198 l -2.185378,-1.344533 -2.185378,-1.344533 -0.372261,0.117593 -0.372261,0.117592 0.275648,-0.275647 0.275648,-0.275648 -0.804814,-0.446805 -0.804815,-0.446805 79.992353,-0.0125 79.99237,-0.0125 v 0.133429 0.133428 l -2.02848,1.365877 -2.02847,1.365877 -0.59064,0.640534 -0.59065,0.640533 -0.2913,-0.02606 -0.2913,-0.02606 -0.54011,0.443859 -0.54011,0.44386 -1.80496,1.211962 -1.80496,1.211962 0.17349,0.551927 0.17348,0.551927 -0.36451,-0.51514 -0.36452,-0.515139 -0.6389,0.551062 -0.6389,0.551062 -2.82222,1.940248 -2.82222,1.940249 -2.64584,1.838764 -2.64583,1.838765 -2.18678,1.451473 -2.18679,1.451473 0.18454,0.298582 0.18453,0.298582 -0.36433,-0.09694 -0.36434,-0.09694 -2.62899,1.760365 -2.62899,1.760366 0.1657,0.268107 0.1657,0.268107 h -0.49485 -0.49485 l -2.26,1.496725 -2.25999,1.496725 -0.17639,0.178969 -0.17639,0.17897 -3.08269,2.068817 -3.08269,2.068817 0.22678,0.36694 0.22678,0.36694 -0.39127,-0.241816 -0.39126,-0.241817 -1.77991,1.278735 -1.77991,1.278736 v 0.340505 0.340505 l -0.29498,-0.182307 -0.29498,-0.182307 -2.43904,1.714895 -2.43905,1.714898 -0.61736,0.563256 -0.61737,0.563259 h -0.28625 -0.28626 l -0.77208,0.7193 -0.77207,0.719296 -0.005,-0.278324 -0.005,-0.278328 -0.25918,0.35608 -0.25918,0.35608 -1.41111,0.937451 -1.41111,0.937454 -3.35139,2.343379 -3.35139,2.343376 -2.46944,1.654757 -2.46945,1.654757 -0.35277,0.270711 -0.35278,0.270708 -2.73975,1.934153 -2.73974,1.934151 -0.25887,-0.02893 -0.25886,-0.02893 -1.41112,-1.023126 z m 10.6735,-3.454171 0.79571,-0.69644 -0.44293,-0.17859 -0.44294,-0.178594 0.42015,-0.02783 0.42015,-0.02783 0.19418,0.314191 0.19418,0.314187 -0.96711,0.588694 -0.96711,0.588691 0.79572,-0.69644 z"
         id="path184"
         inkscape:connector-curvature="0" />
      <path
         style="fill:#4bcde3;stroke-width:0.35277778"
         d="M 22.073812,87.072023 V 32.215076 h 0.323313 0.323313 l 4.880159,3.258557 4.880159,3.258558 0.176389,0.181026 0.176389,0.181026 3.880556,2.614669 3.880555,2.61467 6.879167,4.613539 6.879166,4.61354 0.176389,0.180124 0.176389,0.180125 3.175,2.079692 3.175,2.079696 2.645833,1.785479 2.645834,1.785482 3.704166,2.481394 3.704167,2.481396 0.176389,0.179822 0.176389,0.179818 4.761939,3.175 4.761942,3.175 0.353336,0.276888 0.353338,0.276892 3.704167,2.508521 3.704167,2.508522 4.233333,2.886795 4.233334,2.886795 2.08929,1.451405 2.08929,1.451409 0.71071,-0.380361 0.71071,-0.380362 0.375,-0.311185 0.375,-0.311182 2.64583,-1.848365 2.64584,-1.848362 2.03538,-1.408705 2.03539,-1.408705 2.37433,-1.682771 2.37434,-1.682771 2.46944,-1.665814 2.46945,-1.665809 0.17639,-0.182002 0.17639,-0.182002 2.46944,-1.669118 2.46945,-1.669122 2.46944,-1.691965 2.46944,-1.691965 2.99862,-2.084105 2.99861,-2.084105 1.28126,-0.902004 1.28126,-0.902003 0.65902,-0.445555 0.65901,-0.445558 3.35139,-2.309407 3.35139,-2.309411 2.46944,-1.654757 2.46945,-1.654757 0.68388,-0.617361 0.68388,-0.617361 h 0.26106 0.26106 l 0.46617,-0.441178 0.46617,-0.441177 2.46945,-1.654552 2.46944,-1.654551 3.35139,-2.334931 3.35139,-2.334932 2.46944,-1.651951 2.46945,-1.651951 0.17639,-0.179194 0.17638,-0.179195 3.79237,-2.578596 3.79236,-2.578596 V 87.051064 141.92897 H 103.38909 22.073812 Z M 102.15437,70.635022 100.21409,69.24294 93.511311,64.751923 86.808534,60.260911 86.632145,60.084522 86.455756,59.908133 80.282145,55.773912 74.108534,51.639694 69.698812,48.637912 65.289089,45.63613 64.759923,45.282072 64.230756,44.928014 62.819645,43.980975 61.408534,43.033935 54.000201,38.041095 46.591867,33.048255 42.534923,30.27152 38.477978,27.494786 37.243256,26.684899 36.008534,25.875014 35.655756,25.60046 35.302978,25.325906 29.36843,21.362157 23.433881,17.398409 h 79.929689 79.92969 v 0.133429 0.133428 l -2.02608,1.365877 -2.02608,1.365877 -0.46856,0.440972 -0.46857,0.440973 h -0.26106 -0.26106 l -0.68388,0.617361 -0.68388,0.617361 -2.46945,1.652967 -2.46944,1.652967 -2.64583,1.838918 -2.64584,1.838917 -2.64583,1.832452 -2.64583,1.832452 -2.82223,1.938263 -2.82222,1.938264 -2.64583,1.844155 -2.64583,1.844156 -2.46945,1.650161 -2.46944,1.650162 -0.17639,0.179194 -0.17639,0.179195 -3.52778,2.400722 -3.52778,2.400722 -3.52777,2.472328 -3.52778,2.472328 -2.46945,1.650535 -2.46944,1.650531 -0.17639,0.182499 -0.17639,0.182495 -1.41111,0.937451 -1.41111,0.937454 -3.35139,2.343379 -3.35139,2.343376 -2.46944,1.654757 -2.46945,1.654757 -0.35278,0.270711 -0.35277,0.270708 -2.73975,1.934153 -2.73974,1.934151 -0.25887,-0.02593 -0.25887,-0.02593 z"
         id="path182"
         inkscape:connector-curvature="0" />
      <path
         style="fill:#5abadb;stroke-width:0.35277778"
         d="M 22.073812,87.072023 V 32.215076 h 0.305163 0.305163 l 2.076087,1.403042 2.076087,1.403041 0.529166,0.354379 0.529167,0.354379 1.411111,0.94707 1.411111,0.947071 5.468056,3.711531 5.468055,3.711532 3.704167,2.485235 3.704167,2.485234 0.352777,0.275935 0.352778,0.275934 1.411111,0.940798 1.411111,0.940798 5.468056,3.627086 5.468055,3.627085 0.353593,0.27784 0.353593,0.277845 4.761685,3.175 4.761685,3.175 0.176389,0.176389 0.176389,0.176389 3.880555,2.612224 3.880556,2.612221 5.291666,3.587446 5.291667,3.587447 2.645833,1.823226 2.645834,1.823226 0.529166,0.360028 0.529167,0.360027 2.798602,1.913679 2.79861,1.913682 0.69815,-0.373642 0.69815,-0.373637 3.28046,-2.338243 3.28046,-2.338239 2.84084,-1.940278 2.84084,-1.940278 0.75467,-0.617361 0.75467,-0.617361 h 0.23228 0.23228 l 0.68388,-0.617362 0.68389,-0.617361 2.46944,-1.657763 2.46944,-1.657759 2.29306,-1.607806 2.29306,-1.607806 3.52777,-2.373877 3.52778,-2.373877 0.17639,-0.184689 0.17639,-0.184694 1.41111,-0.93745 1.41111,-0.937454 3.35139,-2.34338 3.35139,-2.343376 2.46944,-1.651952 2.46945,-1.651949 0.17639,-0.179197 0.17639,-0.179194 2.11666,-1.398427 2.11667,-1.398428 0.92106,-0.718239 0.92107,-0.718239 0.66643,-0.445556 0.66644,-0.445556 3.35139,-2.30941 3.35139,-2.30941 2.46944,-1.651951 2.46945,-1.651951 0.17638,-0.179194 0.17639,-0.179195 2.64584,-1.786448 2.64583,-1.786449 3.43958,-2.385943 3.43959,-2.385944 V 87.044771 141.92897 H 103.38909 22.073812 Z M 102.15437,70.633512 100.21409,69.239917 96.157145,66.515495 92.1002,63.791073 91.923811,63.613492 91.747423,63.435911 83.280756,57.791466 74.814089,52.147021 74.6377,51.965631 l -0.176388,-0.181389 -3.527778,-2.36097 -3.527778,-2.36097 -2.116667,-1.422038 -2.116666,-1.422037 -0.353339,-0.268936 -0.353335,-0.268937 -4.761382,-3.175 -4.761382,-3.175 -0.353335,-0.279639 -0.353338,-0.279639 -6.173611,-4.153829 -6.173612,-4.15383 -4.409722,-2.974865 -4.409722,-2.974865 -0.176389,-0.185771 -0.176389,-0.185771 -3.661258,-2.371868 -3.661258,-2.371868 h 79.949449 79.94946 v 0.122121 0.122122 l -3.43959,2.366795 -3.43958,2.366795 -3.52778,2.472328 -3.52778,2.472328 -2.46944,1.653339 -2.46945,1.653339 -0.35277,0.276171 -0.35278,0.276171 -4.94689,3.427996 -4.94688,3.427996 -2.10867,1.411111 -2.10867,1.411111 -0.17639,0.179195 -0.17639,0.179194 -2.46944,1.650533 -2.46945,1.650534 -3.52778,2.472328 -3.52777,2.472328 -3.52778,2.400722 -3.52778,2.400722 -0.17639,0.176389 -0.17639,0.176389 -3.52778,2.400723 -3.52777,2.40072 -3.52778,2.434326 -3.52778,2.434322 -0.35878,0.280232 -0.35879,0.280233 -2.11066,1.405985 -2.11066,1.405989 -3.08396,2.209983 -3.08395,2.209988 -0.26744,-0.02593 -0.26743,-0.02593 z"
         id="path180"
         inkscape:connector-curvature="0" />
      <path
         style="fill:#69abd5;stroke-width:0.35277778"
         d="M 22.073812,87.072023 V 32.215076 h 0.305163 0.305163 l 2.076087,1.403042 2.076087,1.403041 0.529166,0.35382 0.529167,0.353819 2.116667,1.435933 2.116666,1.435932 3.527778,2.363457 3.527778,2.363457 0.176389,0.176388 0.176389,0.176389 4.76194,3.175 4.761941,3.175001 0.353336,0.268936 0.353338,0.268936 2.116667,1.417146 2.116667,1.417146 7.231944,4.826628 7.231944,4.826628 0.176389,0.19007 0.176389,0.190066 6.35,4.257576 6.35,4.257576 5.468056,3.70598 5.468055,3.705984 2.645833,1.848753 2.645834,1.848753 2.469445,1.650161 2.46944,1.65016 0.17639,0.214577 0.17639,0.214578 0.75278,0.396077 0.75279,0.396078 2.24582,-1.48977 2.24583,-1.489774 0.46849,-0.443304 0.46847,-0.443304 0.74403,-0.398187 0.74402,-0.398187 0.37499,-0.311881 0.375,-0.311884 2.99861,-2.103017 2.99862,-2.103018 0.37499,-0.311884 0.375,-0.31188 0.74402,-0.398187 0.74403,-0.398188 0.46847,-0.443487 0.46849,-0.443488 2.46944,-1.657558 2.46944,-1.657555 2.29306,-1.604825 2.29306,-1.604821 4.93888,-3.363892 4.93889,-3.363891 3.52778,-2.479908 3.52778,-2.479908 2.46944,-1.650534 2.46945,-1.650531 0.17639,-0.182002 0.17639,-0.182001 2.46944,-1.668367 2.46944,-1.668368 2.29306,-1.609954 2.29306,-1.609954 2.46944,-1.654956 2.46944,-1.654956 0.17639,-0.182 0.17639,-0.182 2.46945,-1.651951 2.46944,-1.651951 3.35139,-2.340921 3.35139,-2.340922 2.55764,-1.747711 2.55764,-1.747712 V 87.061273 141.92897 H 103.38909 22.073812 Z m 81.138888,-15.779187 -1.23472,-0.774241 -0.17639,-0.189953 -0.17639,-0.189953 -4.7625,-3.175 -4.7625,-3.175001 -0.176389,-0.176388 -0.176388,-0.176389 -5.820834,-3.880143 -5.820833,-3.88014 -0.176389,-0.176805 -0.176389,-0.176802 -6.173611,-4.134538 -6.173611,-4.134538 -2.116667,-1.417359 -2.116666,-1.417359 -0.353339,-0.268936 -0.353335,-0.268937 -4.761943,-3.175 -4.761939,-3.175 -0.176389,-0.176389 -0.176389,-0.176389 -5.820833,-3.880555 -5.820833,-3.880556 -0.176389,-0.176389 -0.176389,-0.176389 -4.7625,-3.175 -4.7625,-3.175 -0.176389,-0.185771 -0.176389,-0.185771 -3.661258,-2.371868 -3.661258,-2.371868 h 80.008249 80.00825 l -0.21697,0.216966 -0.21696,0.216967 -3.45781,2.409395 -3.4578,2.409395 -3.52778,2.400722 -3.52777,2.400722 -0.17639,0.176389 -0.17639,0.176389 -2.10856,1.411111 -2.10855,1.411111 -3.71228,2.555062 -3.71228,2.555062 -0.36949,0.30249 -0.36949,0.30249 -3.33468,2.257726 -3.33467,2.257726 -0.17639,0.176389 -0.17639,0.176389 -3.35139,2.272069 -3.35139,2.272069 -2.63984,1.784876 -2.63983,1.784875 -0.68988,0.617361 -0.68988,0.617361 h -0.26106 -0.26105 l -0.46618,0.441178 -0.46617,0.441177 -2.46944,1.653133 -2.46945,1.653135 -3.52777,2.472326 -3.52778,2.472331 -3.52778,2.40072 -3.52778,2.400723 -0.17639,0.176389 -0.17638,0.176389 -2.11667,1.405985 -2.11667,1.405989 -3.08396,2.209983 -3.08395,2.209988 -0.091,-0.006 -0.091,-0.0059 -1.23472,-0.774245 z"
         id="path178"
         inkscape:connector-curvature="0" />
      <path
         style="fill:#7997cb;stroke-width:0.35277778"
         d="M 22.073812,87.072023 V 32.215076 h 0.303549 0.303548 l 1.195757,0.813437 1.195757,0.813436 1.940278,1.302024 1.940277,1.302024 0.353593,0.26579 0.353592,0.265789 4.761686,3.175 4.761685,3.175001 0.176389,0.181389 0.176389,0.18139 3.527777,2.36097 3.527778,2.36097 2.116667,1.422038 2.116667,1.422037 0.352777,0.270442 0.352778,0.270441 8.466667,5.63368 8.466666,5.633682 0.176389,0.185649 0.176389,0.185646 5.820833,3.877931 5.820834,3.877931 0.176389,0.179013 0.176388,0.179014 4.7625,3.175 4.7625,3.175 0.176389,0.184538 0.176389,0.184538 1.049165,0.669124 1.049164,0.669125 0.361947,0.297218 0.361946,0.297219 2.116667,1.424189 2.116667,1.424192 2.469445,1.655456 2.46944,1.655455 0.17639,0.214577 0.17639,0.214578 0.75278,0.396077 0.75279,0.396078 2.24582,-1.489795 2.24583,-1.489791 0.68388,-0.617361 0.68389,-0.617361 h 0.26105 0.26106 l 0.46617,-0.441593 0.46618,-0.441593 1.41111,-0.938714 1.41111,-0.93871 3.52778,-2.484152 3.52777,-2.484152 2.29306,-1.585665 2.29305,-1.585666 2.29306,-1.604825 2.29306,-1.604821 4.93888,-3.363892 4.93889,-3.363891 3.52778,-2.454392 3.52778,-2.454391 0.52917,-0.35874 0.52916,-0.358736 2.64584,-1.817892 2.64583,-1.817889 2.07068,-1.442505 2.07067,-1.442505 2.16266,-1.517238 2.16266,-1.517239 2.46944,-1.654956 2.46944,-1.654956 0.17639,-0.179194 0.17639,-0.179195 3.35139,-2.272069 3.35139,-2.272069 2.64583,-1.784875 2.64584,-1.784876 0.17639,-0.189973 0.17638,-0.189974 2.20487,-1.488444 2.20486,-1.488444 V 87.069299 141.92897 H 103.38909 22.073812 Z M 103.2127,71.292836 101.97798,70.518595 101.80159,70.328642 101.6252,70.138689 99.508534,68.727588 97.391867,67.316484 97.039089,67.04754 96.686311,66.778593 94.569645,65.360038 92.452978,63.941484 86.279367,59.817127 80.105756,55.69277 79.929367,55.507396 79.752978,55.322021 73.579367,51.187802 67.405756,47.053583 62.996034,44.051801 58.586312,41.050019 58.057145,40.69652 57.527978,40.343021 55.411312,38.916785 53.294645,37.490548 47.121034,33.353507 40.947423,29.216465 40.594645,28.931242 40.241867,28.64602 35.832145,25.644614 31.422423,22.643207 27.557517,20.109003 23.69261,17.574798 l 39.936434,-0.0897 39.936436,-0.0897 39.90683,0.0897 39.90684,0.0897 -2.07142,1.408705 -2.07142,1.408705 -2.64583,1.848363 -2.64584,1.848364 -0.35277,0.270718 -0.35278,0.270719 -2.11667,1.411102 -2.11666,1.411102 -0.17639,0.176389 -0.17639,0.176389 -2.10856,1.411111 -2.10855,1.411111 -3.71228,2.555062 -3.71228,2.555062 -0.36195,0.295443 -0.36194,0.295443 -1.04917,0.669124 -1.04916,0.669125 -0.17639,0.184537 -0.17639,0.184538 -2.64583,1.784875 -2.64584,1.784875 -3.35138,2.27207 -3.35139,2.272069 -0.17639,0.181152 -0.17639,0.181151 -2.11068,1.406349 -2.11068,1.406348 -0.68987,0.617361 -0.68987,0.617361 h -0.26106 -0.26105 l -0.47002,0.440973 -0.47002,0.440972 -3.34754,2.272069 -3.34754,2.272069 -2.63984,1.784875 -2.63984,1.784876 -0.68988,0.617361 -0.68987,0.617361 h -0.26106 -0.26106 l -0.46857,0.440972 -0.46856,0.440973 -2.81983,1.90173 -2.81983,1.901733 -2.82222,1.955059 -2.82222,1.955059 -1.83702,1.346684 -1.83702,1.34668 -0.10326,-0.006 -0.10326,-0.0059 -1.23472,-0.774245 z"
         id="path176"
         inkscape:connector-curvature="0" />
      <path
         style="fill:#8688c5;stroke-width:0.35277778"
         d="M 22.073812,87.072023 V 32.215076 h 0.303549 0.303548 l 1.195757,0.813437 1.195757,0.813436 1.940278,1.302024 1.940277,1.302024 0.358786,0.26579 0.358785,0.265789 2.110659,1.406349 2.110659,1.406348 0.176389,0.181152 0.176389,0.181151 4.761685,3.175001 4.761686,3.175 0.353592,0.26579 0.353593,0.265789 1.940277,1.302024 1.940278,1.302024 1.234722,0.808468 1.234723,0.808467 0.352777,0.275021 0.352778,0.275021 7.231944,4.828966 7.231945,4.828967 7.055555,4.759067 7.055556,4.759068 0.353339,0.284275 0.353335,0.284276 4.761942,3.175 4.761939,3.175 0.466172,0.440972 0.466171,0.440973 h 0.261059 0.261059 l 0.717067,0.668051 0.71707,0.668049 1.025144,0.566677 1.025147,0.566678 3.704167,2.645822 3.704163,2.645823 0.93984,0.522563 0.93984,0.522563 2.23516,-1.471849 2.23516,-1.471849 1.05834,-0.819916 1.05833,-0.819915 0.35278,-0.259264 0.35278,-0.259267 1.41111,-0.939334 1.41111,-0.939331 3.52778,-2.480779 3.52777,-2.480779 3.52778,-2.40072 3.52778,-2.400724 0.46617,-0.440972 0.46617,-0.440972 h 0.26106 0.26106 l 0.69268,-0.617361 0.69268,-0.617362 4.7537,-3.175 4.7537,-3.175 0.38504,-0.359844 0.38504,-0.35984 3.14274,-2.109604 3.14274,-2.109601 0.17639,-0.179193 0.17638,-0.179197 2.46945,-1.654955 2.46944,-1.654955 2.29306,-1.609954 2.29305,-1.609954 2.46945,-1.668368 2.46944,-1.668368 0.17639,-0.182001 0.17639,-0.182 2.46945,-1.651951 2.46944,-1.651951 3.35139,-2.334931 3.35139,-2.334932 2.46944,-1.65195 2.46945,-1.651952 0.17639,-0.192779 0.17638,-0.192779 2.20487,-1.488444 2.20486,-1.488444 V 87.069299 141.92897 H 103.38909 22.073812 Z M 101.08899,69.790493 97.744645,67.502024 97.215478,67.15113 96.686311,66.800236 95.2752,65.854707 l -1.411111,-0.945529 -6.35,-4.293997 -6.35,-4.293998 -6.526389,-4.380136 -6.526388,-4.380137 -0.176389,-0.176389 -0.176389,-0.176389 -4.761939,-3.175 -4.761943,-3.175 -0.353335,-0.269552 -0.353339,-0.269552 -1.411111,-0.936217 -1.411111,-0.936216 -3.880555,-2.612279 -3.880556,-2.612279 -0.705556,-0.511832 -0.705555,-0.511832 -7.055556,-4.776136 -7.055555,-4.776136 -3.864906,-2.535652 -3.864907,-2.535651 39.936434,-0.0897 39.936436,-0.0897 39.90683,0.0897 39.90684,0.0897 -2.07142,1.408705 -2.07142,1.408705 -2.64583,1.860123 -2.64584,1.860122 -0.52916,0.351729 -0.52917,0.351728 -3.35139,2.30941 -3.35139,2.30941 -2.46944,1.65195 -2.46945,1.651952 -0.17638,0.202439 -0.17639,0.202439 -2.11667,1.381883 -2.11667,1.381882 -0.68388,0.623345 -0.68388,0.623345 h -0.26106 -0.26106 l -0.46856,0.440972 -0.46857,0.440973 -2.64344,1.784875 -2.64344,1.784875 -3.35138,2.27207 -3.35139,2.272069 -0.17639,0.179194 -0.17639,0.179195 -2.46945,1.668368 -2.46944,1.668368 -2.29306,1.609954 -2.29305,1.609955 -2.46945,1.654954 -2.46944,1.654955 -0.17639,0.18396 -0.17639,0.183956 -2.11068,1.406348 -2.11068,1.406349 -0.68987,0.617361 -0.68986,0.617361 h -0.26106 -0.26106 l -0.46857,0.440972 -0.46856,0.440973 -2.64344,1.784875 -2.64344,1.784876 -3.34389,2.272069 -3.34388,2.272069 -0.68705,0.613325 -0.68706,0.613329 -0.64337,0.204195 -0.64336,0.204198 v 0.329004 0.329005 h -0.27163 -0.27163 z"
         id="path174"
         inkscape:connector-curvature="0" />
      <path
         style="fill:#917cc0;stroke-width:0.35277778"
         d="M 22.073812,87.072023 V 32.215076 h 0.199581 0.199581 l 0.770558,0.40559 0.770558,0.40559 0.176388,0.211771 0.176389,0.211771 4.7625,3.175001 4.7625,3.175 0.176389,0.176389 0.176389,0.176388 4.761685,3.175001 4.761686,3.175 0.353592,0.26579 0.353593,0.265789 1.940277,1.302024 1.940278,1.302024 1.234722,0.808468 1.234723,0.808467 0.358785,0.269552 0.358786,0.269553 2.110659,1.4111 2.110658,1.411104 0.352778,0.271198 0.352778,0.271202 5.468055,3.634807 5.468056,3.63481 6.526389,4.384277 6.526389,4.38428 0.176389,0.181391 0.176388,0.181388 3.527778,2.360472 3.527778,2.360471 2.293056,1.620093 2.293055,1.62009 1.058333,0.680314 1.058334,0.680311 0.529166,0.36437 0.529167,0.364367 3.527778,2.465183 3.527774,2.465186 0.93594,0.521642 0.93594,0.521638 2.46404,-1.667069 2.46403,-1.667069 2.42086,-1.690631 2.42086,-1.690631 3.70417,-2.612588 3.70416,-2.612587 3.52778,-2.39956 3.52778,-2.399559 0.46617,-0.440972 0.46617,-0.440972 h 0.26106 0.26106 l 0.69268,-0.617361 0.69268,-0.617362 4.75292,-3.175 4.75291,-3.175 0.68467,-0.617361 0.68466,-0.617361 h 0.26106 0.26106 l 0.46857,-0.440972 0.46856,-0.440972 2.81983,-1.90173 2.81983,-1.901734 2.64583,-1.840579 2.64583,-1.840579 1.5875,-1.113198 1.5875,-1.113197 2.46945,-1.668075 2.46944,-1.668075 0.17639,-0.182001 0.17639,-0.182 2.46945,-1.651951 2.46944,-1.651951 3.35139,-2.30941 3.35139,-2.30941 0.52916,-0.364929 0.52917,-0.36493 2.16266,-1.491737 2.16265,-1.491738 2.15887,-1.502029 2.15888,-1.502028 V 87.069299 141.92897 H 103.38909 22.073812 Z M 101.08899,69.790493 97.744645,67.502024 97.215478,67.151687 96.686311,66.801354 94.569645,65.367937 92.452978,63.93452 88.9252,61.568792 85.397423,59.203064 85.044645,58.933884 84.691867,58.664704 82.5752,57.247345 80.458534,55.829986 74.284923,51.695448 68.111312,47.56091 l -0.176389,-0.18139 -0.176389,-0.18139 -3.527778,-2.36097 -3.527778,-2.360969 -2.116666,-1.422038 -2.116667,-1.422038 -0.352778,-0.270567 -0.352778,-0.270567 -4.7625,-3.157056 -4.7625,-3.157055 -0.176388,-0.192703 -0.176389,-0.192702 -6.526389,-4.383091 -6.526389,-4.383092 -4.386763,-2.943487 -4.386764,-2.943486 -0.169949,-0.16995 -0.16995,-0.16995 h 79.610182 79.61019 v 0.276716 0.276716 l -1.14653,0.675778 -1.14653,0.675778 -0.35278,0.301948 -0.35277,0.301947 -2.99861,2.1007 -2.99862,2.100699 -0.52916,0.353609 -0.52917,0.35361 -3.35139,2.30941 -3.35139,2.30941 -2.46944,1.65195 -2.46945,1.651952 -0.17638,0.207779 -0.17639,0.20778 -2.46945,1.637709 -2.46944,1.637709 -1.5875,1.117784 -1.5875,1.117784 -2.64584,1.840579 -2.64583,1.84058 -2.82222,1.901731 -2.82222,1.901732 -0.17639,0.179194 -0.17639,0.179195 -2.46945,1.668368 -2.46944,1.668368 -2.29306,1.609954 -2.29305,1.609955 -2.46945,1.654954 -2.46944,1.654955 -0.17639,0.182002 -0.17639,0.182001 -2.46944,1.668075 -2.46945,1.668074 -1.5875,1.113198 -1.5875,1.113197 -2.64583,1.840579 -2.64583,1.84058 -2.81623,1.901733 -2.81623,1.90173 -0.68554,0.613325 -0.68555,0.613329 -0.64337,0.204195 -0.64336,0.204198 v 0.329004 0.329005 h -0.27163 -0.27163 z"
         id="path172"
         inkscape:connector-curvature="0" />
      <path
         style="fill:#9674bb;stroke-width:0.35277778"
         d="M 22.073812,87.072023 V 32.215076 h 0.199581 0.199581 l 0.770558,0.40559 0.770558,0.40559 0.176388,0.211771 0.176389,0.211771 4.7625,3.175001 4.7625,3.175 0.176389,0.176389 0.176389,0.176388 4.761685,3.175001 4.761686,3.175 0.353592,0.268936 0.353593,0.268936 2.116666,1.422038 2.116667,1.422037 3.527778,2.365728 3.527777,2.365727 0.352778,0.274384 0.352778,0.274383 4.938889,3.26915 4.938889,3.269152 6.526389,4.426145 6.526388,4.426144 2.645834,1.817349 2.645833,1.817349 0.529167,0.349109 0.529166,0.349108 1.234723,0.821701 1.234722,0.821704 2.230557,1.566016 2.230561,1.566016 0.944439,0.608274 0.944443,0.60827 0.529166,0.365029 0.529167,0.365027 3.527778,2.465183 3.527774,2.465186 0.93505,0.521176 0.93504,0.521177 2.59274,-1.743234 2.59273,-1.743234 2.37433,-1.687262 2.37434,-1.687259 2.03539,-1.408705 2.03538,-1.408705 2.64584,-1.848362 2.64583,-1.848365 0.35879,-0.270707 0.35878,-0.270711 2.11066,-1.409344 2.11066,-1.409347 0.46617,-0.442737 0.46617,-0.442739 h 0.26106 0.26106 l 0.69268,-0.617361 0.69268,-0.617362 4.75292,-3.175 4.75291,-3.175 0.68467,-0.617361 0.68466,-0.617361 h 0.26106 0.26106 l 0.47002,-0.440972 0.47001,-0.440972 3.34755,-2.272069 3.34754,-2.272069 2.64344,-1.784876 2.64344,-1.784876 0.46856,-0.440972 0.46857,-0.440972 h 0.26106 0.26106 l 0.68388,-0.617416 0.68388,-0.617415 2.11667,-1.411057 2.11666,-1.411057 0.17639,-0.179194 0.17639,-0.179195 2.46945,-1.651951 2.46944,-1.651951 3.35139,-2.30941 3.35139,-2.30941 0.52916,-0.364929 0.52917,-0.36493 2.16266,-1.491737 2.16265,-1.491738 2.15887,-1.502029 2.15888,-1.502028 V 87.069299 141.92897 H 103.38909 22.073812 Z m 79.892018,-16.6908 -2.457296,-1.697743 -1.940278,-1.299661 -1.940278,-1.299662 -0.353339,-0.26579 -0.353335,-0.26579 -4.761381,-3.175 -4.761382,-3.175 -0.353335,-0.268936 -0.353339,-0.268937 -2.116667,-1.417359 -2.116666,-1.417359 -6.173611,-4.134538 -6.173611,-4.134538 -0.176389,-0.19598 -0.176389,-0.195979 -3.527778,-2.345293 -3.527778,-2.345292 -2.116666,-1.423125 -2.116667,-1.423126 -0.352778,-0.270567 -0.352778,-0.270567 -4.7625,-3.157056 -4.7625,-3.157055 -0.176388,-0.192703 -0.176389,-0.192702 -5.820834,-3.877931 -5.820833,-3.877931 -0.176389,-0.18577 -0.176389,-0.185768 -4.7625,-3.138021 -4.7625,-3.13802 -0.335139,-0.294808 -0.335138,-0.294807 h 79.62194 79.62195 v 0.276716 0.276716 l -1.14653,0.666855 -1.14653,0.666854 -0.17639,0.202957 -0.17639,0.202958 -1.5875,1.074586 -1.5875,1.074587 -2.82222,1.959918 -2.82222,1.959917 -2.64583,1.838918 -2.64584,1.838918 -2.46944,1.650161 -2.46945,1.650162 -0.17638,0.207779 -0.17639,0.20778 -2.46945,1.638004 -2.46944,1.638004 -2.29306,1.614538 -2.29305,1.614539 -2.46945,1.654956 -2.46944,1.654956 -0.17639,0.179194 -0.17639,0.179195 -2.82222,1.906237 -2.82222,1.906237 -2.07068,1.445152 -2.07068,1.445152 -2.16266,1.517238 -2.16265,1.51724 -2.46945,1.654954 -2.46944,1.654955 -0.17639,0.182002 -0.17639,0.182001 -2.46944,1.668368 -2.46945,1.668367 -2.29305,1.609954 -2.29306,1.609955 -2.46944,1.654954 -2.46945,1.654955 -0.17639,0.18396 -0.17638,0.183956 -2.11068,1.406348 -2.11069,1.406349 -0.68553,0.613325 -0.68554,0.613329 -0.64337,0.204195 -0.64336,0.204198 v 0.329004 0.329005 h -0.27673 -0.27673 z"
         id="path170"
         inkscape:connector-curvature="0" />
      <path
         style="fill:#b452ad;stroke-width:0.35277778"
         d="M 22.073812,87.072023 V 32.215076 h 0.199581 0.199581 l 0.770558,0.40559 0.770558,0.40559 0.176388,0.211771 0.176389,0.211771 3.880556,2.612223 3.880555,2.612223 5.291667,3.590925 5.291667,3.590927 1.411111,0.935633 1.411111,0.935632 0.353338,0.269552 0.353336,0.269553 4.761381,3.175 4.761382,3.175 0.353335,0.273819 0.353339,0.273815 4.409722,2.8974 4.409722,2.897395 0.176389,0.180175 0.176389,0.180174 4.7625,3.175 4.7625,3.175 0.176389,0.176389 0.176389,0.176389 4.7625,3.175 4.7625,3.175 0.176389,0.21536 0.176389,0.215361 1.058333,0.580905 1.058333,0.580908 2.469445,1.766292 2.469444,1.766295 3.527778,2.371326 3.527778,2.37133 0.176388,0.181388 0.176389,0.181391 1.940279,1.275433 1.94028,1.275429 0.43124,0.238686 0.43125,0.238683 2.56736,-1.775623 2.56737,-1.775619 2.37433,-1.67877 2.37434,-1.678775 2.03539,-1.408705 2.03538,-1.408705 2.64584,-1.860123 2.64583,-1.860123 0.52917,-0.351727 0.52916,-0.35173 3.35139,-2.319069 3.35139,-2.319073 2.46945,-1.645095 2.46944,-1.645095 0.17639,-0.179193 0.17639,-0.179197 2.46944,-1.668075 2.46945,-1.668074 1.5875,-1.113197 1.5875,-1.113198 2.64583,-1.840579 2.64583,-1.840579 2.81983,-1.901734 2.81983,-1.90173 0.46856,-0.440972 0.46857,-0.440972 h 0.26106 0.26106 l 0.69138,-0.617361 0.69139,-0.617361 3.34388,-2.27207 3.34389,-2.272069 2.64583,-1.784875 2.64583,-1.784876 0.17639,-0.176388 0.17639,-0.176389 2.11667,-1.406349 2.11667,-1.406348 0.17638,-0.183957 0.17639,-0.183958 2.46945,-1.665646 2.46944,-1.665646 2.02847,-1.42426 2.02848,-1.42426 V 87.066117 141.92897 H 103.38909 22.073812 Z m 79.859548,-16.71324 -2.424826,-1.675303 -1.940278,-1.299661 -1.940278,-1.299662 -0.353339,-0.26579 -0.353335,-0.26579 -4.761381,-3.175 -4.761382,-3.175 L 85.045206,58.933641 84.691867,58.664704 82.5752,57.242667 80.458534,55.820631 76.930756,53.459658 73.402978,51.09869 73.226589,50.9173 73.0502,50.73591 l -6.173611,-4.134538 -6.173611,-4.134538 -2.116666,-1.417359 -2.116667,-1.41736 -0.358786,-0.268936 -0.358785,-0.268936 -2.110659,-1.411102 -2.110659,-1.411102 -0.352778,-0.276854 -0.352777,-0.276854 -1.999817,-1.310655 -1.999819,-1.310655 -6.290459,-4.233334 -6.290461,-4.233333 -0.176389,-0.183145 -0.176389,-0.183144 -4.7625,-3.138021 -4.7625,-3.13802 -0.335139,-0.294808 -0.335138,-0.294807 h 79.62194 79.62195 v 0.276716 0.276716 l -1.14653,0.666855 -1.14653,0.666854 -0.17639,0.206259 -0.17639,0.206259 -1.41111,0.937452 -1.41111,0.937452 -3.35139,2.343379 -3.35139,2.343379 -2.46944,1.65195 -2.46944,1.651951 -0.17639,0.182001 -0.17639,0.182 -2.59884,1.761083 -2.59883,1.761083 -2.04094,1.411112 -2.04093,1.411111 -2.06301,1.445152 -2.06301,1.445151 -2.82222,1.906238 -2.82222,1.906237 -0.17639,0.179194 -0.17639,0.179195 -2.46944,1.654956 -2.46945,1.654956 -2.29305,1.609953 -2.29306,1.609954 -2.46944,1.668368 -2.46945,1.668367 -0.17639,0.182002 -0.17639,0.182001 -2.46944,1.654955 -2.46945,1.654955 -2.16265,1.51724 -2.16266,1.517238 -2.07067,1.44515 -2.07068,1.445155 -2.82222,1.906234 -2.82223,1.906239 -0.17639,0.179193 -0.17638,0.179197 -2.59548,1.761081 -2.59548,1.761084 -1.15331,0.77131 -1.15331,0.77131 z"
         id="path168"
         inkscape:connector-curvature="0" />
      <path
         style="fill:#c242a5;stroke-width:0.35277778"
         d="M 22.073812,87.034279 V 32.13959 l 0.440972,0.172148 0.440972,0.172149 4.409722,2.975564 4.409723,2.975564 5.644444,3.833585 5.644444,3.833586 5.820834,3.934163 5.820833,3.934163 1.411111,0.946806 1.411111,0.946807 0.529167,0.352156 0.529167,0.352154 3.351388,2.189589 3.351389,2.189593 0.176389,0.185812 0.176389,0.185815 3.880556,2.612224 3.880555,2.612221 5.291667,3.590925 5.291666,3.590925 1.411112,0.947071 1.411111,0.947071 0.529166,0.353878 0.529167,0.353879 2.293056,1.582303 2.293055,1.582304 3.527778,2.373877 3.527778,2.373877 0.176388,0.181388 0.176389,0.181391 1.940279,1.275433 1.94028,1.275429 0.43321,0.2399 0.43322,0.239899 2.56539,-1.786502 2.5654,-1.786505 2.46944,-1.6689 2.46945,-1.6689 0.46848,-0.443488 0.46848,-0.443487 0.74402,-0.398188 0.74402,-0.398187 0.375,-0.313235 0.375,-0.313235 2.90279,-2.020295 2.90279,-2.020295 2.21249,-1.527792 2.21248,-1.527789 4.05695,-2.790631 4.05694,-2.790631 0.35278,-0.267688 0.35278,-0.267691 2.46944,-1.671176 2.46945,-1.671172 2.29305,-1.609954 2.29306,-1.609954 2.46944,-1.654955 2.46945,-1.654955 0.17639,-0.179197 0.17638,-0.179193 3.52778,-2.400723 3.52778,-2.400722 3.52778,-2.472328 3.52778,-2.472328 2.46944,-1.650533 2.46944,-1.650533 0.17639,-0.179195 0.17639,-0.179194 3.64053,-2.469445 3.64053,-2.469444 1.29836,-0.95666 1.29836,-0.956659 1.05833,-0.59187 1.05834,-0.591871 0.17639,-0.215359 0.17638,-0.215359 0.61737,-0.484168 0.61736,-0.484168 V 87.028828 141.92897 H 103.38909 22.073812 Z m 80.386458,-16.299244 -1.8934,-1.301902 -0.17639,-0.176389 -0.17639,-0.176389 -4.76194,-3.175 -4.761943,-3.175 -0.353335,-0.26955 -0.353338,-0.269554 -1.234723,-0.808468 -1.234722,-0.808468 -1.940278,-1.302022 -1.940277,-1.302025 -0.353339,-0.26579 -0.353335,-0.26579 -4.761943,-3.175 -4.761939,-3.175 -0.176389,-0.179014 -0.176389,-0.179013 -5.820833,-3.877931 -5.820833,-3.877931 -0.176389,-0.176389 -0.176389,-0.176389 -4.761939,-3.175 -4.761943,-3.175 -0.353335,-0.276845 -0.353338,-0.276845 -1.990574,-1.310655 -1.990573,-1.310655 -3.65387,-2.449854 -3.653872,-2.449854 -0.176389,-0.195979 -0.176389,-0.19598 -4.761685,-3.175 -4.761686,-3.175 -0.353592,-0.268647 -0.353593,-0.268647 -2.469444,-1.619345 -2.469444,-1.619345 -0.146991,-0.140481 -0.146991,-0.14048 h 79.685782 79.68578 l -0.51657,0.50459 -0.51657,0.504589 -2.29305,1.591167 -2.29306,1.591167 -3.52778,2.40216 -3.52777,2.402161 -0.17639,0.176389 -0.17639,0.176388 -2.11667,1.406349 -2.11666,1.406348 -0.17639,0.183957 -0.17639,0.183958 -2.59884,1.761083 -2.59883,1.761083 -2.03428,1.411112 -2.03427,1.411111 -2.59883,1.761083 -2.59884,1.761083 -0.17639,0.179195 -0.17639,0.179194 -3.35139,2.27207 -3.35139,2.272069 -2.64343,1.784875 -2.64344,1.784876 -0.46857,0.440972 -0.46857,0.440972 h -0.26105 -0.26106 l -0.68388,0.617416 -0.68389,0.617415 -2.11666,1.411057 -2.11667,1.411057 -0.17639,0.179193 -0.17639,0.179197 -2.46944,1.654955 -2.46945,1.654955 -2.29305,1.609954 -2.29306,1.609954 -2.46944,1.668368 -2.46945,1.668367 -0.17638,0.179197 -0.17639,0.179193 -2.82223,1.906239 -2.82222,1.906235 -2.05952,1.445154 -2.05954,1.44515 -1.16234,0.772736 -1.16234,0.772735 z"
         id="path166"
         inkscape:connector-curvature="0" />
      <path
         style="fill:#c939a2;stroke-width:0.35277778"
         d="M 22.073812,87.034279 V 32.13959 l 0.440972,0.170879 0.440972,0.17088 4.938889,3.338605 4.938889,3.338604 3.880556,2.613676 3.880555,2.613676 0.176389,0.185374 0.176389,0.185374 6.173611,4.124357 6.173611,4.124357 2.116667,1.429935 2.116666,1.429936 0.529167,0.349246 0.529167,0.349243 2.822222,1.874323 2.822222,1.874322 2.645833,1.823551 2.645834,1.823551 0.529166,0.349109 0.529167,0.349109 1.411111,0.944276 1.411111,0.944281 5.291667,3.589644 5.291666,3.589641 1.411112,0.947071 1.411111,0.947071 0.529166,0.353878 0.529167,0.353879 2.293056,1.582811 2.293055,1.582812 2.469444,1.68439 2.469445,1.684387 2.822223,1.962461 2.82222,1.96246 0.78756,0.416317 0.78757,0.416313 1.50549,-0.978616 1.50549,-0.97862 0.46617,-0.441593 0.46617,-0.441593 h 0.26106 0.26106 l 0.68388,-0.617414 0.68388,-0.617418 2.11068,-1.411054 2.11069,-1.411059 0.68986,-0.617361 0.68987,-0.617361 h 0.26106 0.26106 l 0.47473,-0.440972 0.47473,-0.440972 1.57894,-1.074586 1.57894,-1.074586 2.99861,-2.079181 2.99861,-2.079177 1.76389,-1.233424 1.76389,-1.233424 4.40972,-2.998583 4.40972,-2.998583 1.41112,-0.989376 1.41111,-0.989372 2.29305,-1.608762 2.29306,-1.608758 2.46944,-1.654955 2.46945,-1.654955 0.17639,-0.179197 0.17638,-0.179193 3.52778,-2.400723 3.52778,-2.400722 3.52778,-2.446811 3.52778,-2.446812 0.52916,-0.358738 0.52917,-0.358738 2.64583,-1.813391 2.64584,-1.813391 2.82222,-1.954809 2.82222,-1.954809 1.5875,-1.160673 1.5875,-1.160674 1.05833,-0.585607 1.05834,-0.585607 0.17639,-0.215359 0.17638,-0.215359 0.61737,-0.484168 0.61736,-0.484168 V 87.028828 141.92897 H 103.38909 22.073812 Z m 80.571418,-16.206594 -1.72559,-1.198407 -0.35333,-0.274462 -0.35334,-0.274461 -4.761381,-3.175 -4.761382,-3.175 -0.353335,-0.26955 -0.353338,-0.269554 -1.234723,-0.808468 -1.234722,-0.808468 -1.940278,-1.302022 -1.940277,-1.302025 -0.352778,-0.265801 -0.352778,-0.265796 -2.110659,-1.411105 -2.110659,-1.4111 -0.358785,-0.268937 -0.358786,-0.268936 -2.116666,-1.417359 -2.116667,-1.417359 -6.173611,-4.134538 -6.173611,-4.134538 -0.176389,-0.176389 -0.176389,-0.176389 -4.7625,-3.175 -4.7625,-3.175 -0.466171,-0.440972 -0.466171,-0.440973 h -0.30238 -0.30238 l -0.466171,-0.453608 -0.466171,-0.453608 -1.120539,-0.69292 -1.120539,-0.692919 -3.641962,-2.464444 -3.64196,-2.464443 -0.176389,-0.18139 -0.176389,-0.18139 -4.761685,-3.175 -4.761686,-3.175 -0.353592,-0.268647 -0.353593,-0.268647 -2.469444,-1.619345 -2.469444,-1.619345 -0.146991,-0.140481 -0.146991,-0.14048 h 79.685782 79.68578 l -0.51657,0.50459 -0.51657,0.504589 -2.29305,1.591167 -2.29306,1.591167 -3.52778,2.40216 -3.52777,2.402161 -0.17639,0.179194 -0.17639,0.179195 -2.46945,1.654955 -2.46944,1.654957 -2.29306,1.622247 -2.29305,1.622247 -1.05833,0.680312 -1.05834,0.680313 -0.66643,0.449401 -0.66644,0.449401 -0.92106,0.71824 -0.92107,0.718239 -2.11666,1.398427 -2.11667,1.398428 -0.17639,0.176389 -0.17639,0.176388 -3.35139,2.27207 -3.35139,2.272069 -2.64343,1.784875 -2.64344,1.784876 -0.46857,0.440972 -0.46857,0.440972 h -0.26105 -0.26106 l -0.68988,0.617361 -0.68988,0.617361 -2.81622,1.901732 -2.81623,1.901732 -2.64583,1.840579 -2.64584,1.840579 -1.5875,1.113198 -1.5875,1.113197 -2.46944,1.668074 -2.46945,1.668075 -0.17638,0.179197 -0.17639,0.179193 -2.82223,1.906239 -2.82222,1.906235 -2.05952,1.445154 -2.05954,1.44515 -1.15378,0.767317 -1.15378,0.767313 z"
         id="path164"
         inkscape:connector-curvature="0" />
      <path
         style="fill:#d8299b;stroke-width:0.35277778"
         d="M 22.42659,87.054493 V 32.180017 l 0.462327,0.282113 0.462327,0.282113 3.682812,2.469444 3.682811,2.469445 0.176389,0.176389 0.176389,0.176389 4.7625,3.175 4.7625,3.175 0.176389,0.180125 0.176389,0.180126 6.879166,4.61423 6.879167,4.614231 3.351389,2.227005 3.351389,2.227009 1.411111,0.95547 1.411111,0.95547 2.645833,1.809952 2.645834,1.809951 0.529166,0.349109 0.529167,0.349109 1.411111,0.944276 1.411111,0.944281 5.291667,3.590925 5.291666,3.590928 3.880556,2.615012 3.880556,2.615014 0.176388,0.194596 0.176389,0.194599 2.645834,1.757254 2.645833,1.757256 2.822223,1.962461 2.82222,1.96246 0.78756,0.416317 0.78757,0.416313 1.50549,-0.978616 1.50549,-0.97862 0.46617,-0.441593 0.46617,-0.441593 h 0.26106 0.26106 l 0.68388,-0.617361 0.68388,-0.617361 2.46945,-1.668618 2.46944,-1.668618 2.46945,-1.753373 2.46944,-1.753376 2.29306,-1.582363 2.29305,-1.582364 2.64584,-1.84809 2.64583,-1.84809 4.23333,-2.881383 4.23334,-2.881387 1.5875,-1.118898 1.5875,-1.118902 2.46944,-1.668074 2.46945,-1.668075 0.17638,-0.182001 0.17639,-0.182002 2.46945,-1.650531 2.46944,-1.650534 3.52778,-2.472328 3.52778,-2.472328 3.52778,-2.400722 3.52777,-2.400722 0.17639,-0.176389 0.17639,-0.176389 3.35139,-2.272069 3.35139,-2.27207 2.64344,-1.784875 2.64343,-1.784875 0.46857,-0.440973 0.46857,-0.440972 0.23938,-4.23e-4 0.23939,-4.24e-4 1.02501,-0.881513 1.02501,-0.881529 h 0.27083 0.27085 l 1.08539,-0.913304 1.08541,-0.913304 V 87.040664 141.92897 H 103.56548 22.42659 Z m 80.21864,-16.226808 -1.72559,-1.198407 -0.35277,-0.274705 -0.35278,-0.274705 -3.527779,-2.365727 -3.527777,-2.365728 -2.116667,-1.422037 -2.116667,-1.422037 -0.353338,-0.268936 -0.353336,-0.268937 -4.761381,-3.175 -4.761382,-3.175 -0.353335,-0.268937 -0.353339,-0.268936 -2.116666,-1.417359 -2.116667,-1.417359 -6.173611,-4.134538 -6.173611,-4.134538 -0.176389,-0.19598 -0.176389,-0.195979 -3.527778,-2.345293 -3.527777,-2.345293 -2.116667,-1.434506 -2.116667,-1.434506 -0.529166,-0.354838 -0.529167,-0.354839 -0.94089,-0.608272 -0.94089,-0.608272 -3.645222,-2.464444 -3.64522,-2.464443 -0.176389,-0.18139 -0.176389,-0.18139 -3.527778,-2.363457 -3.527778,-2.363457 -2.116666,-1.424552 -2.116667,-1.424551 -0.374998,-0.30941 -0.374998,-0.30941 -0.859724,-0.453095 -0.859724,-0.453096 -0.841326,-0.652958 -0.841324,-0.652959 h 79.619779 79.61979 l -0.20915,0.338411 -0.20915,0.338411 -2.5457,1.689856 -2.5457,1.689856 -0.38504,0.360048 -0.38504,0.360047 -3.14274,2.109602 -3.14273,2.109603 -0.17639,0.176389 -0.17639,0.176388 -3.64053,2.469445 -3.64053,2.469445 -1.29836,0.956659 -1.29836,0.956659 -1.04108,0.588393 -1.04109,0.588392 -0.48342,0.483421 -0.48342,0.48342 h -0.26106 -0.26106 l -0.68388,0.617361 -0.68388,0.617361 -2.46944,1.654757 -2.46945,1.654757 -3.35139,2.334931 -3.35138,2.334931 -2.46945,1.654552 -2.46944,1.654551 -0.46617,0.441178 -0.46618,0.441177 h -0.26105 -0.26106 l -0.68988,0.617361 -0.68988,0.617361 -2.63983,1.784876 -2.63984,1.784876 -3.34755,2.272069 -3.34754,2.272069 -0.47002,0.440972 -0.47001,0.440972 h -0.26106 -0.26106 l -0.68388,0.617361 -0.68388,0.617361 -2.46945,1.652969 -2.46944,1.652965 -2.64583,1.843419 -2.64584,1.843416 -2.05952,1.442505 -2.05954,1.442504 -1.15378,0.767317 -1.15378,0.767313 z"
         id="path162"
         inkscape:connector-curvature="0" />
      <path
         style="fill:#e51893;stroke-width:0.35277778"
         d="M 22.42659,87.051202 V 32.173436 l 0.440972,0.271443 0.440972,0.271442 3.527778,2.395046 3.527778,2.395047 0.529166,0.360691 0.529167,0.360692 4.409722,3.006749 4.409722,3.00675 6.173611,4.12925 6.173611,4.129251 0.176389,0.177583 0.176389,0.177582 4.233334,2.78426 4.233333,2.784256 0.881944,0.589396 0.881945,0.589397 2.822222,1.95617 2.822222,1.956171 1.411111,0.925819 1.411111,0.92582 0.353339,0.269554 0.353335,0.26955 4.761943,3.175 4.761939,3.175 0.176389,0.176389 0.176389,0.176389 4.7625,3.175 4.7625,3.175 0.176388,0.194596 0.176389,0.194599 2.645834,1.759356 2.645833,1.759356 3.413333,2.367576 3.41334,2.367573 h 0.27187 0.27187 l 1.43007,-0.970139 1.43007,-0.970139 0.46617,-0.440972 0.46617,-0.440972 h 0.26106 0.26106 l 0.68388,-0.617361 0.68388,-0.617361 2.46945,-1.668618 2.46944,-1.668618 2.46945,-1.75 2.46944,-1.749997 3.52778,-2.402219 3.52778,-2.402215 0.17639,-0.176389 0.17639,-0.176389 1.76388,-1.202433 1.76389,-1.202429 3.88056,-2.656102 3.88055,-2.6561 1.41112,-0.996978 1.41111,-0.996975 2.46944,-1.668074 2.46945,-1.668075 0.17638,-0.182001 0.17639,-0.182002 2.46945,-1.651949 2.46944,-1.651952 3.35139,-2.343378 3.35139,-2.343379 1.41111,-0.937452 1.41111,-0.937452 0.17639,-0.182496 0.17639,-0.182496 2.46944,-1.651952 2.46945,-1.65195 3.35139,-2.334932 3.35139,-2.334931 2.46944,-1.654552 2.46945,-1.654551 0.46617,-0.441177 0.46617,-0.441178 0.23938,-4.23e-4 0.23939,-4.24e-4 1.02501,-0.881513 1.02501,-0.881529 h 0.27083 0.27085 l 1.08539,-0.913304 1.08541,-0.913304 V 87.040664 141.92897 H 103.56548 22.42659 Z m 81.08229,-15.642757 -0.82535,-0.645382 -5.468052,-3.695905 -5.468055,-3.695904 -1.411112,-0.932844 -1.411111,-0.932839 -0.353338,-0.269554 -0.353336,-0.269551 -4.761942,-3.175 -4.761939,-3.175 -0.466171,-0.440972 -0.466171,-0.440973 h -0.30238 -0.30238 l -0.466171,-0.440972 -0.466172,-0.440972 -4.7625,-3.175 -4.7625,-3.175 -0.176388,-0.176389 -0.176389,-0.176389 -6.173611,-4.134538 -6.173611,-4.134538 -2.116667,-1.417359 -2.116667,-1.41736 -0.374999,-0.30941 -0.374996,-0.30941 -0.859726,-0.45291 -0.859723,-0.45291 -0.921064,-0.741338 -0.921064,-0.741339 -0.666436,-0.434503 -0.666436,-0.434504 -1.411111,-0.944278 -1.411111,-0.944278 -5.291667,-3.589645 -5.291667,-3.589644 -1.411111,-0.935633 -1.411111,-0.935633 -0.374998,-0.310026 -0.374998,-0.310026 -0.859724,-0.453095 -0.859724,-0.453096 -0.841326,-0.652958 -0.841324,-0.652959 h 79.619779 79.61979 l -0.20915,0.338411 -0.20915,0.338411 -2.5457,1.690061 -2.5457,1.690062 -0.68388,0.617361 -0.68388,0.617361 h -0.26106 -0.26106 l -0.46617,0.441177 -0.46617,0.441178 -2.46944,1.654551 -2.46945,1.654552 -3.35139,2.30941 -3.35139,2.30941 -0.65724,0.445555 -0.65725,0.445556 -1.22579,0.956192 -1.2258,0.956192 -0.6746,0.214109 -0.67459,0.214108 v 0.305233 0.305232 l -0.64337,0.204196 -0.64337,0.204197 -0.68554,0.613326 -0.68555,0.613326 -2.63983,1.784876 -2.63984,1.784875 -3.35139,2.272069 -3.35139,2.27207 -0.17639,0.176388 -0.17639,0.176389 -3.52778,2.400723 -3.52778,2.400722 -3.52777,2.472329 -3.52778,2.472327 -2.46945,1.653134 -2.46944,1.653134 -0.46617,0.441177 -0.46617,0.441177 h -0.26106 -0.26106 l -0.68987,0.617361 -0.68988,0.617361 -2.63984,1.784876 -2.63984,1.784876 -3.34754,2.272069 -3.34755,2.272068 -0.47001,0.440973 -0.47002,0.440972 h -0.26106 -0.26106 l -0.68388,0.620173 -0.68388,0.620173 -0.93854,0.60198 -0.93855,0.60198 z"
         id="path160"
         inkscape:connector-curvature="0" />
      <path
         style="fill:#fb0088;stroke-width:0.35277778"
         d="M 22.42659,87.067017 V 32.205065 l 1.499305,0.971843 1.499306,0.971843 0.176389,0.17969 0.176388,0.179691 4.761686,3.175 4.761685,3.175 0.353593,0.268936 0.353592,0.268936 2.116667,1.425657 2.116666,1.425656 3.527778,2.351743 3.527778,2.351743 0.176389,0.188181 0.176389,0.18818 7.055555,4.685039 7.055556,4.685041 0.529166,0.343662 0.529167,0.343659 2.469444,1.694945 2.469445,1.694942 1.940278,1.310799 1.940277,1.310802 0.529167,0.350312 0.529167,0.350316 3.704166,2.520985 3.704167,2.520985 5.291667,3.59319 5.291666,3.593187 2.645834,1.805707 2.645833,1.805707 0.359537,0.274737 0.359537,0.274732 3.7701,2.557639 3.7701,2.557639 h 0.25541 0.25539 l 2.84691,-1.960834 2.8469,-1.960834 2.46945,-1.750409 2.46944,-1.75041 2.46945,-1.668413 2.46944,-1.668413 0.46848,-0.443488 0.46848,-0.443487 0.74402,-0.398188 0.74403,-0.398187 0.37499,-0.320707 0.375,-0.320706 3.52778,-2.435952 3.52778,-2.435952 4.58611,-3.104649 4.58611,-3.104649 0.46617,-0.440973 0.46617,-0.440972 h 0.26106 0.26106 l 0.68388,-0.617361 0.68388,-0.617361 2.46945,-1.654757 2.46944,-1.654757 3.35139,-2.309411 3.35139,-2.309407 0.52917,-0.35361 0.52916,-0.35361 2.99861,-2.113713 2.99861,-2.113713 0.52917,-0.364067 0.52917,-0.364067 3.35139,-2.30941 3.35139,-2.30941 2.46944,-1.651951 2.46944,-1.651951 0.17639,-0.182 0.17639,-0.182 2.46945,-1.655457 2.46944,-1.655456 2.11667,-1.455015 2.11666,-1.455015 0.52917,-0.477575 0.52917,-0.477575 -0.0904,54.831827 -0.0904,54.831826 h -80.9603 -80.9603 z m 79.85899,-16.518725 -2.07149,-1.490564 -3.175001,-2.105353 -3.175,-2.105353 L 93.6877,64.661648 93.511311,64.476274 87.3377,60.351917 81.164089,56.22756 79.047423,54.797624 76.930756,53.367689 76.401589,53.014188 75.872423,52.66069 71.4627,49.658908 67.052978,46.657126 60.879367,42.522907 54.705756,38.388688 54.529367,38.208222 54.352978,38.027755 51.001589,35.830791 47.650201,33.633827 47.288254,33.337142 46.926308,33.040456 45.877143,32.365953 44.827978,31.691449 44.475201,31.419743 44.122423,31.148037 42.005756,29.726 l -2.116667,-1.422038 -3.527777,-2.36097 -3.527778,-2.36097 -0.176389,-0.185467 -0.176389,-0.185467 -3.351389,-2.196964 -3.351389,-2.196964 -0.357027,-0.29209 -0.357027,-0.29209 -0.701306,-0.406558 -0.701306,-0.406558 79.706098,-0.01073 79.70611,-0.01073 -0.68388,0.617361 -0.68388,0.617361 -2.46945,1.670881 -2.46944,1.670881 -1.5875,1.113197 -1.5875,1.113198 -2.64584,1.840579 -2.64583,1.840579 -2.82222,1.901732 -2.82222,1.901732 -0.17639,0.184537 -0.17639,0.184537 -1.04917,0.669125 -1.04916,0.669125 -0.36195,0.294068 -0.36194,0.294069 -2.29306,1.565387 -2.29306,1.565387 -3.52777,2.40216 -3.52778,2.40216 -0.17639,0.179195 -0.17639,0.179195 -2.46944,1.650533 -2.46945,1.650533 -3.52778,2.472328 -3.52777,2.472328 -3.52483,2.400721 -3.52482,2.400723 -0.35573,0.280233 -0.35573,0.280233 -3.52778,2.434322 -3.52778,2.434325 -3.52778,2.40072 -3.52778,2.400723 -0.17638,0.176389 -0.17639,0.176389 -3.14274,2.109601 -3.14274,2.109604 -0.38504,0.364416 -0.38504,0.364416 -0.92712,0.59273 -0.92711,0.592734 z"
         id="path158"
         inkscape:connector-curvature="0" />
      <path
         style="fill:#fc0085;stroke-width:0.35277778"
         d="M 22.598533,87.953967 V 33.802576 l 0.09261,27.075696 0.09261,27.075695 -0.09261,27.075693 -0.09261,27.0757 z m 69.280278,-8.348035 -0.484166,-0.586923 0.79375,0.422945 0.79375,0.422949 v 0.163975 0.163978 h -0.309584 -0.30958 z m 24.768839,-0.218457 0.14699,-0.09983 0.58596,-0.446472 0.58595,-0.446472 0.26231,0.424416 0.2623,0.424417 -0.38291,-0.236651 -0.38291,-0.23665 -0.22158,0.358532 -0.22159,0.358531 h -0.39075 -0.39076 z m 19.54977,-13.612937 1.05834,-0.656269 0.30918,0.177345 0.30919,0.177348 -1.14344,0.48078 -1.14344,0.48078 -0.22408,-0.0018 -0.22408,-0.0018 1.05833,-0.656269 z M 87.205035,60.336507 86.584738,59.882934 h 0.670462 0.670464 v 0.453573 0.45357 h -0.05017 -0.05016 z M 46.297887,32.685446 46.062701,32.450262 V 32.15628 31.862298 l 0.617361,0.02785 0.617361,0.02785 -0.44317,0.178669 -0.44317,0.178668 0.199407,0.322648 0.199404,0.322647 H 46.671482 46.53307 l -0.235183,-0.235186 z m 124.791013,-7.121815 0.67204,-0.756888 h 0.12171 0.12172 v 0.340365 0.340366 l -0.79375,0.416522 -0.79375,0.416522 z"
         id="path156"
         inkscape:connector-curvature="0" />
    </g>
  </g>
</svg>
