<?xml version="1.0" encoding="UTF-8" standalone="no"?>
<!-- Created with Inkscape (http://www.inkscape.org/) -->

<svg
   xmlns:dc="http://purl.org/dc/elements/1.1/"
   xmlns:cc="http://creativecommons.org/ns#"
   xmlns:rdf="http://www.w3.org/1999/02/22-rdf-syntax-ns#"
   xmlns:svg="http://www.w3.org/2000/svg"
   xmlns="http://www.w3.org/2000/svg"
   xmlns:sodipodi="http://sodipodi.sourceforge.net/DTD/sodipodi-0.dtd"
   xmlns:inkscape="http://www.inkscape.org/namespaces/inkscape"
   version="1.1"
   id="svg2"
   width="439.36523"
   height="618.58643"
   viewBox="0 0 439.36524 618.58643"
   sodipodi:docname="html5.svg"
   inkscape:version="0.92.4 (f8dce91, 2019-08-02)">
  <metadata
     id="metadata8">
    <rdf:RDF>
      <cc:Work
         rdf:about="">
        <dc:format>image/svg+xml</dc:format>
        <dc:type
           rdf:resource="http://purl.org/dc/dcmitype/StillImage" />
        <dc:title></dc:title>
      </cc:Work>
    </rdf:RDF>
  </metadata>
  <defs
     id="defs6" />
  <sodipodi:namedview
     pagecolor="#ffffff"
     bordercolor="#666666"
     borderopacity="1"
     objecttolerance="10"
     gridtolerance="10"
     guidetolerance="10"
     inkscape:pageopacity="0"
     inkscape:pageshadow="2"
     inkscape:window-width="1438"
     inkscape:window-height="860"
     id="namedview4"
     showgrid="false"
     fit-margin-top="0"
     fit-margin-left="0"
     fit-margin-right="0"
     fit-margin-bottom="0"
     inkscape:zoom="0.98163059"
     inkscape:cx="452.17976"
     inkscape:cy="255.86593"
     inkscape:window-x="1600"
     inkscape:window-y="0"
     inkscape:window-maximized="1"
     inkscape:current-layer="svg2" />
  <path
     id="path129"
     style="fill:#eaeaea;stroke-width:1.33333337"
     d="m 262.49023,42.068359 c 0.39592,1.310198 0.7444,2.616723 0.0703,0.123047 -0.0293,-0.04989 -0.0417,-0.074 -0.0703,-0.123047 z M 62.587891,47.197266 c -0.183367,-0.055 0.398485,0.266436 0.705078,0.320312 -0.07847,-0.06799 -0.158184,-0.126008 -0.220703,-0.113281 -0.273885,-0.128064 -0.422819,-0.188568 -0.484375,-0.207031 z m 2.550781,74.328124 c -39.804708,0.001 -64.55756385,0.0498 -64.65234388,0.14453 -0.52385997,0.52385 39.38884488,446.71697 40.01562488,447.34375 0.30046,0.30047 40.045624,11.55928 88.322267,25.01953 48.27664,13.46026 88.81001,24.50864 90.07422,24.55274 2.06096,0.072 179.7594,-48.76635 180.40429,-49.58203 0.14663,-0.18546 9.22037,-100.8366 20.16407,-223.66993 L 439.36523,122 220.09766,121.66211 c -60.29857,-0.0924 -115.15428,-0.13813 -154.958988,-0.13672 z" />
  <path
     id="path127"
     style="fill:#bababa;stroke-width:1.33333337"
     d="m 262.49023,42.068359 c 0.39592,1.310198 0.7444,2.616723 0.0703,0.123047 -0.0293,-0.04989 -0.0417,-0.074 -0.0703,-0.123047 z M 62.587891,47.197266 c -0.183367,-0.055 0.398485,0.266436 0.705078,0.320312 -0.07847,-0.06799 -0.158184,-0.126008 -0.220703,-0.113281 -0.273885,-0.128064 -0.422819,-0.188568 -0.484375,-0.207031 z M 0,121.33398 0.62695312,125 c 0.34498002,2.01667 9.39678488,102.66602 20.11523488,223.66602 10.718448,121 19.602397,220.13252 19.742187,220.29296 0.13979,0.16044 39.823771,11.34898 88.185545,24.86524 48.36179,13.51627 88.82969,24.62793 89.92969,24.6914 2.88213,0.16643 178.89664,-48.84831 179.98047,-50.11914 0.74164,-0.8696 40.24503,-439.94321 40.07226,-445.39648 -0.042,-1.32636 -44.82861,-1.66602 -219.35156,-1.66602 z m 82.292969,92 h 68.154301 68.15234 V 240.66602 268 h -38 -38 l 0.0156,4.33398 c 0.009,2.38333 0.90778,13.93269 1.9961,25.66602 1.08831,11.73334 1.97942,22.38269 1.98242,23.66602 0.005,2.16448 2.61111,2.33398 36.00586,2.33398 h 36 v 27.33398 27.33204 h -60.66602 c -33.36666,0 -60.666012,-0.22248 -60.666012,-0.49414 0,-1.75016 -13.489764,-152.19796 -14.152344,-157.8379 z m 271.458981,29.79297 c 0.12126,0.0184 0.26617,0.22418 0.42578,0.62305 0.38521,0.9625 0.33759,2.11163 -0.10546,2.55469 -0.44306,0.44306 -0.75908,-0.34445 -0.70118,-1.75 0.04,-0.97079 0.17877,-1.45834 0.38086,-1.42774 z m -1.33203,14.66797 c 0.12126,0.0184 0.26422,0.22223 0.42383,0.6211 0.38522,0.96249 0.33759,2.11357 -0.10547,2.55664 -0.44305,0.44305 -0.75712,-0.34445 -0.69922,-1.75 0.04,-0.9708 0.17876,-1.45834 0.38086,-1.42774 z m -6.66797,74.66602 c 0.12126,0.0184 0.26617,0.22418 0.42578,0.62304 0.38521,0.96249 0.33759,2.11163 -0.10546,2.55469 -0.44306,0.44305 -0.75908,-0.34446 -0.70118,-1.75 0.04,-0.97079 0.17877,-1.45833 0.38086,-1.42773 z m -1.33203,14.66601 c 0.12126,0.0184 0.26422,0.22418 0.42383,0.62305 0.38522,0.9625 0.33759,2.11164 -0.10547,2.55469 -0.44305,0.44306 -0.75712,-0.34445 -0.69922,-1.75 0.04,-0.97079 0.17876,-1.45834 0.38086,-1.42774 z m -1.33398,14.66797 c 0.12126,0.0184 0.26617,0.22223 0.42578,0.6211 0.38521,0.96249 0.33758,2.11359 -0.10547,2.55664 -0.44305,0.44305 -0.75907,-0.34445 -0.70117,-1.75 0.04,-0.9708 0.17876,-1.45834 0.38086,-1.42774 z m -57.33399,30.66602 c 0.12126,0.0184 0.26617,0.22418 0.42578,0.62304 0.38521,0.96249 0.33759,2.11163 -0.10546,2.55469 -0.44307,0.44305 -0.75908,-0.34446 -0.70118,-1.75 0.04,-0.97079 0.17877,-1.45833 0.38086,-1.42773 z m 54.66797,0 c 0.12126,0.0184 0.26422,0.22418 0.42383,0.62304 0.38522,0.96249 0.33759,2.11163 -0.10547,2.55469 -0.44305,0.44305 -0.75712,-0.34446 -0.69922,-1.75 0.04,-0.97079 0.17876,-1.45833 0.38086,-1.42773 z M 99.626953,406.66602 h 27.486327 27.48633 l 0.043,3 c 0.0788,5.45944 3.57676,39.73084 4.10547,40.2246 0.28532,0.26649 13.71823,4.06053 29.85156,8.42969 l 29.33398,7.94336 0.66602,28.86914 c 0.36667,15.87838 0.66797,28.80265 0.66797,28.71875 0,-0.0838 -24.8432,-7.13622 -55.20508,-15.66992 C 118.27667,495.3128 108.68464,492.21174 107.83203,490 c -0.56539,-1.46666 -2.29131,-17.66666 -3.83398,-36 -1.54267,-18.33333 -3.15667,-36.48398 -3.58789,-40.33398 z m 184.792967,0.46093 c 0.12126,0.0184 0.26422,0.22418 0.42383,0.62305 0.38522,0.9625 0.33759,2.11164 -0.10547,2.55469 -0.44306,0.44306 -0.75712,-0.34445 -0.69922,-1.75 0.04,-0.97079 0.17876,-1.45834 0.38086,-1.42774 z m 54.66602,0 c 0.12126,0.0184 0.26617,0.22418 0.42578,0.62305 0.38521,0.9625 0.33758,2.11164 -0.10547,2.55469 -0.44305,0.44306 -0.75907,-0.34445 -0.70117,-1.75 0.04,-0.97079 0.17876,-1.45834 0.38086,-1.42774 z m -56,14.66797 c 0.12126,0.0184 0.26617,0.22223 0.42578,0.6211 0.38521,0.96249 0.33758,2.11359 -0.10547,2.55664 -0.44307,0.44305 -0.75907,-0.34445 -0.70117,-1.75 0.04,-0.9708 0.17876,-1.45834 0.38086,-1.42774 z m 54.66601,0 c 0.12126,0.0184 0.26617,0.22223 0.42578,0.6211 0.38521,0.96249 0.33759,2.11359 -0.10546,2.55664 -0.44306,0.44305 -0.75908,-0.34445 -0.70118,-1.75 0.04,-0.9708 0.17877,-1.45834 0.38086,-1.42774 z m -56,14.66602 c 0.12126,0.0184 0.26617,0.22418 0.42578,0.62304 0.38521,0.96249 0.33759,2.11163 -0.10546,2.55469 -0.44307,0.44305 -0.75908,-0.34446 -0.70118,-1.75 0.04,-0.97079 0.17877,-1.45833 0.38086,-1.42773 z m 54.66797,0 c 0.12126,0.0184 0.26422,0.22418 0.42383,0.62304 0.38522,0.96249 0.33759,2.11163 -0.10547,2.55469 -0.44305,0.44305 -0.75712,-0.34446 -0.69922,-1.75 0.04,-0.97079 0.17876,-1.45833 0.38086,-1.42773 z m -2.66797,30.66601 c 0.12126,0.0184 0.26617,0.22418 0.42578,0.62305 0.38521,0.9625 0.33759,2.11164 -0.10546,2.55469 -0.44306,0.44306 -0.75908,-0.34445 -0.70118,-1.75 0.04,-0.97079 0.17877,-1.45834 0.38086,-1.42774 z m -1.33203,14.66797 c 0.12126,0.0184 0.26422,0.22223 0.42383,0.6211 0.38522,0.96249 0.33759,2.11359 -0.10547,2.55664 -0.44305,0.44305 -0.75712,-0.34445 -0.69922,-1.75 0.04,-0.9708 0.17876,-1.45834 0.38086,-1.42774 z" />
  <path
     id="path125"
     style="fill:#eea793;stroke-width:1.33333337"
     d="m 262.49023,42.068359 c 0.39592,1.310198 0.7444,2.616723 0.0703,0.123047 -0.0293,-0.04989 -0.0417,-0.074 -0.0703,-0.123047 z M 62.587891,47.197266 c -0.183367,-0.055 0.398485,0.266436 0.705078,0.320312 -0.07847,-0.06799 -0.158184,-0.126008 -0.220703,-0.113281 -0.273885,-0.128064 -0.422819,-0.188568 -0.484375,-0.207031 z M 0,121.33398 0.62695312,125 c 0.34498002,2.01667 9.39678488,102.66602 20.11523488,223.66602 10.718448,121 19.602397,220.13252 19.742187,220.29296 0.13979,0.16044 39.823771,11.34898 88.185545,24.86524 48.36179,13.51627 88.82969,24.62793 89.92969,24.6914 2.88213,0.16643 178.89664,-48.84831 179.98047,-50.11914 0.74164,-0.8696 40.24503,-439.94321 40.07226,-445.39648 -0.042,-1.32636 -44.82861,-1.66602 -219.35156,-1.66602 z m 150.59961,92 h 68 V 240.66602 268 h -38 c -29.49984,0 -38.00508,0.37217 -38.02149,1.66602 -0.0116,0.91667 1.0097,13.51667 2.26954,28 L 147.13867,324 h 35.73047 35.73047 v 27.33398 27.33204 H 158.01562 97.429688 L 96.677734,373 c -0.77753,-5.84998 -14.078125,-155.17094 -14.078125,-158.05078 0,-1.24566 15.608458,-1.61524 68.000001,-1.61524 z m 203.15234,29.79297 c 0.12126,0.0184 0.26617,0.22418 0.42578,0.62305 0.38521,0.9625 0.33759,2.11163 -0.10546,2.55469 -0.44306,0.44306 -0.75908,-0.34445 -0.70118,-1.75 0.04,-0.97079 0.17877,-1.45834 0.38086,-1.42774 z m -1.33203,14.66797 c 0.12126,0.0184 0.26422,0.22223 0.42383,0.6211 0.38522,0.96249 0.33759,2.11357 -0.10547,2.55664 -0.44305,0.44305 -0.75712,-0.34445 -0.69922,-1.75 0.04,-0.9708 0.17876,-1.45834 0.38086,-1.42774 z m -6.66797,74.66602 c 0.12126,0.0184 0.26617,0.22418 0.42578,0.62304 0.38521,0.96249 0.33759,2.11163 -0.10546,2.55469 -0.44306,0.44305 -0.75908,-0.34446 -0.70118,-1.75 0.04,-0.97079 0.17877,-1.45833 0.38086,-1.42773 z m -1.33203,14.66601 c 0.12126,0.0184 0.26422,0.22418 0.42383,0.62305 0.38522,0.9625 0.33759,2.11164 -0.10547,2.55469 -0.44305,0.44306 -0.75712,-0.34445 -0.69922,-1.75 0.04,-0.97079 0.17876,-1.45834 0.38086,-1.42774 z m -1.33398,14.66797 c 0.12126,0.0184 0.26617,0.22223 0.42578,0.6211 0.38521,0.96249 0.33758,2.11359 -0.10547,2.55664 -0.44305,0.44305 -0.75907,-0.34445 -0.70117,-1.75 0.04,-0.9708 0.17876,-1.45834 0.38086,-1.42774 z m -57.33399,30.66602 c 0.12126,0.0184 0.26617,0.22418 0.42578,0.62304 0.38521,0.96249 0.33759,2.11163 -0.10546,2.55469 -0.44307,0.44305 -0.75908,-0.34446 -0.70118,-1.75 0.04,-0.97079 0.17877,-1.45833 0.38086,-1.42773 z m 54.66797,0 c 0.12126,0.0184 0.26422,0.22418 0.42383,0.62304 0.38522,0.96249 0.33759,2.11163 -0.10547,2.55469 -0.44305,0.44305 -0.75712,-0.34446 -0.69922,-1.75 0.04,-0.97079 0.17876,-1.45833 0.38086,-1.42773 z M 99.933594,406.66602 h 27.333986 c 15.03333,0 27.33394,0.45 27.33594,1 0.0111,2.81412 4.00562,42.11666 4.30859,42.39257 0.19465,0.17726 13.55417,3.86668 29.6875,8.19922 l 29.33398,7.87891 0.66602,28.93359 c 0.36667,15.91352 0.66797,28.86219 0.66797,28.77539 0,-0.0868 -25.2,-7.21973 -56,-15.84961 l -56,-15.68945 -3.58594,-39.1543 c -1.97205,-21.53423 -3.62337,-40.8017 -3.66797,-42.81836 z m 184.486326,0.46093 c 0.12126,0.0184 0.26422,0.22418 0.42383,0.62305 0.38522,0.9625 0.33759,2.11164 -0.10547,2.55469 -0.44306,0.44306 -0.75712,-0.34445 -0.69922,-1.75 0.04,-0.97079 0.17876,-1.45834 0.38086,-1.42774 z m 54.66602,0 c 0.12126,0.0184 0.26617,0.22418 0.42578,0.62305 0.38521,0.9625 0.33758,2.11164 -0.10547,2.55469 -0.44305,0.44306 -0.75907,-0.34445 -0.70117,-1.75 0.04,-0.97079 0.17876,-1.45834 0.38086,-1.42774 z m -56,14.66797 c 0.12126,0.0184 0.26617,0.22223 0.42578,0.6211 0.38521,0.96249 0.33758,2.11359 -0.10547,2.55664 -0.44307,0.44305 -0.75907,-0.34445 -0.70117,-1.75 0.04,-0.9708 0.17876,-1.45834 0.38086,-1.42774 z m 54.66601,0 c 0.12126,0.0184 0.26617,0.22223 0.42578,0.6211 0.38521,0.96249 0.33759,2.11359 -0.10546,2.55664 -0.44306,0.44305 -0.75908,-0.34445 -0.70118,-1.75 0.04,-0.9708 0.17877,-1.45834 0.38086,-1.42774 z m -56,14.66602 c 0.12126,0.0184 0.26617,0.22418 0.42578,0.62304 0.38521,0.96249 0.33759,2.11163 -0.10546,2.55469 -0.44307,0.44305 -0.75908,-0.34446 -0.70118,-1.75 0.04,-0.97079 0.17877,-1.45833 0.38086,-1.42773 z m 54.66797,0 c 0.12126,0.0184 0.26422,0.22418 0.42383,0.62304 0.38522,0.96249 0.33759,2.11163 -0.10547,2.55469 -0.44305,0.44305 -0.75712,-0.34446 -0.69922,-1.75 0.04,-0.97079 0.17876,-1.45833 0.38086,-1.42773 z m -2.66797,30.66601 c 0.12126,0.0184 0.26617,0.22418 0.42578,0.62305 0.38521,0.9625 0.33759,2.11164 -0.10546,2.55469 -0.44306,0.44306 -0.75908,-0.34445 -0.70118,-1.75 0.04,-0.97079 0.17877,-1.45834 0.38086,-1.42774 z m -1.33203,14.66797 c 0.12126,0.0184 0.26422,0.22223 0.42383,0.6211 0.38522,0.96249 0.33759,2.11359 -0.10547,2.55664 -0.44305,0.44305 -0.75712,-0.34445 -0.69922,-1.75 0.04,-0.9708 0.17876,-1.45834 0.38086,-1.42774 z" />
  <path
     id="path123"
     style="fill:#ffffff;stroke-width:1.33333337"
     d="m 262.49023,42.068359 c 0.39592,1.310198 0.7444,2.616723 0.0703,0.123047 -0.0293,-0.04989 -0.0417,-0.074 -0.0703,-0.123047 z M 62.587891,47.197266 c -0.183367,-0.055 0.398485,0.266436 0.705078,0.320312 -0.07847,-0.06799 -0.158184,-0.126008 -0.220703,-0.113281 -0.273885,-0.128064 -0.422819,-0.188568 -0.484375,-0.207031 z M 219.93359,121.33398 c -174.016348,0 -218.6768463,0.33968 -218.7187462,1.66602 -0.15474,4.8988 39.2665372,444.47792 39.9296872,445.24805 0.43332,0.50322 40.389071,11.98514 88.789059,25.51562 48.4,13.53049 88.19679,24.66896 88.4375,24.75195 0.6,0.20682 179.44588,-49.37526 180.0293,-49.91015 0.39004,-0.35758 40.07227,-440.57388 40.16797,-445.60547 0.0253,-1.32669 -44.57341,-1.66602 -218.63477,-1.66602 z m -69.33398,92 h 68 V 240.66602 268 h -38.15234 -38.1543 l 0.80664,7 c 0.44421,3.85 1.44224,15.1 2.2168,25 0.77456,9.9 1.69075,19.35 2.03711,21 l 0.63086,3 h 35.30859 35.30664 v 27.33398 27.33204 h -60.70899 c -47.41596,0 -60.815604,-0.36428 -61.199214,-1.66602 -0.54838,-1.86086 -14.194259,-157.65819 -14.130859,-161.33398 0.03779,-2.1912 4.18137,-2.33204 68.039063,-2.33204 z m 205.90625,1.06055 c 0.10348,-0.0558 0.22479,0.14437 0.35156,0.63086 0.33795,1.29729 0.31634,3.09729 -0.0488,4 -0.36524,0.9027 -0.64243,-0.15937 -0.61523,-2.35937 0.017,-1.375 0.14003,-2.17847 0.3125,-2.27149 z m -1.33398,14.66602 c 0.10347,-0.0558 0.22478,0.14437 0.35156,0.63086 0.33795,1.2973 0.31633,3.0973 -0.0488,4 -0.36524,0.90271 -0.64244,-0.15743 -0.61523,-2.35743 0.017,-1.375 0.14003,-2.18041 0.3125,-2.27343 z m -1.33204,14.66797 c 0.10348,-0.0558 0.2248,0.14436 0.35157,0.63086 0.33796,1.29728 0.31447,3.09726 -0.0508,4 -0.36524,0.9027 -0.64048,-0.15938 -0.61328,-2.35938 0.017,-1.375 0.14004,-2.17847 0.3125,-2.27148 z m -1.22461,14.73437 c 0.0729,0.0419 0.15249,0.21628 0.23633,0.53711 0.33536,1.28334 0.33536,3.38269 0,4.66602 -0.33537,1.28333 -0.60937,0.23462 -0.60937,-2.33204 0,-1.925 0.15439,-2.99687 0.37304,-2.87109 z m -6.66601,74.66602 c 0.0729,0.0419 0.15248,0.21627 0.23633,0.53711 0.33536,1.28333 0.33536,3.38462 0,4.66796 -0.33537,1.28333 -0.60938,0.23269 -0.60938,-2.33398 0,-1.92499 0.15439,-2.99687 0.37305,-2.87109 z m -1.33399,14.66601 c 0.0729,0.0419 0.15249,0.21823 0.23633,0.53906 0.33536,1.28333 0.33536,3.38269 0,4.66602 -0.33537,1.28334 -0.60937,0.23269 -0.60937,-2.33398 0,-1.92501 0.15439,-2.99688 0.37304,-2.8711 z m -1.33203,14.66797 c 0.0729,0.0419 0.15249,0.21628 0.23633,0.53711 0.33536,1.28334 0.33536,3.38269 0,4.66602 -0.33538,1.28333 -0.60937,0.23462 -0.60937,-2.33204 0,-1.925 0.15438,-2.99687 0.37304,-2.87109 z m -1.44336,15.93164 c 0.10348,-0.0558 0.2248,0.14437 0.35157,0.63086 0.33796,1.29729 0.31446,3.09729 -0.0508,4 -0.36522,0.9027 -0.64048,-0.15937 -0.61328,-2.35937 0.017,-1.375 0.14004,-2.17847 0.3125,-2.27149 z m -55.89062,10.73438 c 0.0729,0.0419 0.15248,0.21627 0.23633,0.53711 0.33536,1.28333 0.33536,3.38462 0,4.66796 -0.33537,1.28333 -0.60938,0.23269 -0.60938,-2.33398 0,-1.925 0.15439,-2.99687 0.37305,-2.87109 z m 54.55664,3.93164 c 0.10348,-0.0558 0.22479,0.14437 0.35156,0.63086 0.33795,1.2973 0.31634,3.0973 -0.0488,4 -0.36524,0.90271 -0.64243,-0.15743 -0.61523,-2.35743 0.017,-1.375 0.14003,-2.18041 0.3125,-2.27343 z m -55.89063,10.73437 c 0.0729,0.0419 0.15249,0.21823 0.23633,0.53906 0.33536,1.28333 0.33536,3.38269 0,4.66602 -0.33537,1.28334 -0.60937,0.23269 -0.60937,-2.33398 0,-1.92501 0.15439,-2.99688 0.37304,-2.8711 z M 99.933594,405.33398 H 127.18555 154.4375 L 155.17383,411 c 0.40576,3.11667 1.39787,12.86071 2.20312,21.6543 0.80524,8.7936 1.68087,16.34239 1.94727,16.77343 0.26639,0.43103 13.71331,4.32177 29.88086,8.64649 l 29.39453,7.86328 v 28.25391 c 0,21.35541 0.40822,28.41746 1.66797,28.92578 1.10122,0.44435 0.98748,0.65705 -0.33399,0.62695 -4.31964,-0.0984 -112.47443,-31.15864 -112.85547,-32.41016 -0.6323,-2.07696 -7.144526,-76.30303 -7.144526,-81.43359 z m 239.349606,2.46094 c 0.0729,0.0419 0.15249,0.21823 0.23633,0.53906 0.33536,1.28333 0.33536,3.38269 0,4.66602 -0.33538,1.28334 -0.60937,0.23269 -0.60937,-2.33398 0,-1.92501 0.15438,-2.99688 0.37304,-2.8711 z m -56,10.66797 c 0.0729,0.0419 0.15249,0.21628 0.23633,0.53711 0.33536,1.28334 0.33536,3.38269 0,4.66602 -0.33538,1.28333 -0.60937,0.23462 -0.60937,-2.33204 0,-1.925 0.15438,-2.99687 0.37304,-2.87109 z m 54.66602,4 c 0.0729,0.0419 0.15248,0.21628 0.23633,0.53711 0.33536,1.28334 0.33536,3.38269 0,4.66602 -0.33537,1.28333 -0.60938,0.23462 -0.60938,-2.33204 0,-1.925 0.15439,-2.99687 0.37305,-2.87109 z m -56,10.66602 c 0.0729,0.0419 0.15248,0.21627 0.23633,0.53711 0.33536,1.28333 0.33536,3.38462 0,4.66796 -0.33537,1.28333 -0.60938,0.23269 -0.60938,-2.33398 0,-1.925 0.15439,-2.99687 0.37305,-2.87109 z m 54.66601,4 c 0.0729,0.0419 0.15249,0.21627 0.23633,0.53711 0.33536,1.28333 0.33536,3.38462 0,4.66796 -0.33537,1.28333 -0.60937,0.23269 -0.60937,-2.33398 0,-1.925 0.15439,-2.99687 0.37304,-2.87109 z m -1.44335,15.93164 c 0.10347,-0.0558 0.22478,0.14437 0.35156,0.63086 0.33795,1.2973 0.31633,3.0973 -0.0488,4 -0.36524,0.90271 -0.64243,-0.15743 -0.61523,-2.35743 0.017,-1.375 0.14003,-2.18041 0.3125,-2.27343 z m -1.33204,14.66797 c 0.10348,-0.0558 0.2248,0.14436 0.35157,0.63086 0.33796,1.29728 0.31447,3.09726 -0.0508,4 -0.36522,0.90271 -0.64048,-0.15938 -0.61328,-2.35938 0.017,-1.375 0.14004,-2.17847 0.3125,-2.27148 z m -1.22461,14.73437 c 0.0729,0.0419 0.15249,0.21628 0.23633,0.53711 0.33536,1.28334 0.33536,3.38269 0,4.66602 -0.33537,1.28333 -0.60937,0.23462 -0.60937,-2.33204 0,-1.925 0.15439,-2.99687 0.37304,-2.87109 z" />
  <path
     id="path121"
     style="fill:#f18b64;stroke-width:1.33333337"
     d="m 262.49023,42.068359 c 0.39592,1.310198 0.7444,2.616723 0.0703,0.123047 -0.0293,-0.04989 -0.0417,-0.074 -0.0703,-0.123047 z M 62.587891,47.197266 c -0.183367,-0.055 0.398485,0.266436 0.705078,0.320312 -0.07847,-0.06799 -0.158184,-0.126008 -0.220703,-0.113281 -0.273885,-0.128064 -0.422819,-0.188568 -0.484375,-0.207031 z M 219.93359,121.33398 c -174.016348,0 -218.6768463,0.33968 -218.7187462,1.66602 -0.15474,4.8988 39.2665372,444.47792 39.9296872,445.24805 0.43332,0.50322 40.389071,11.98514 88.789059,25.51562 48.4,13.53049 88.19679,24.66896 88.4375,24.75195 0.6,0.20682 179.44588,-49.37526 180.0293,-49.91015 0.39004,-0.35758 40.07227,-440.57388 40.16797,-445.60547 0.0253,-1.32669 -44.57341,-1.66602 -218.63477,-1.66602 z m -137.333981,92 H 220.08398 357.57031 L 356.79883,219 c -0.42357,3.11667 -1.42989,14.06731 -2.23633,24.33398 C 353.75605,253.60064 352.82411,263.35 352.49023,265 l -0.60742,3 H 247.08789 142.29297 l 0.80664,7 c 0.44421,3.85 1.44224,15.1 2.2168,25 0.77456,9.9 1.69075,19.35 2.03711,21 l 0.63086,3 h 99.67578 99.67578 l -7.52149,84.04297 c -4.13709,46.22344 -7.75301,84.24258 -8.03515,84.48828 -0.28212,0.2457 -25.76971,7.42811 -56.63868,15.95898 -30.86896,8.53086 -56.36832,15.44228 -56.66601,15.35938 -71.93731,-20.04752 -111.07894,-31.47266 -111.39649,-32.51563 -0.63227,-2.07696 -7.144526,-76.30303 -7.144526,-81.43359 v -4.56641 H 127.18555 154.4375 L 155.17383,411 c 0.40576,3.11667 1.38972,12.86602 2.18555,21.66602 0.79579,8.8 1.8504,16.39373 2.34374,16.875 0.95025,0.92688 55.45573,15.85771 58.94336,16.14648 1.94122,0.16073 59.97158,-14.9575 61.20508,-15.94531 0.50078,-0.40104 6.50713,-62.1504 6.68555,-68.73242 0.0593,-2.18609 -5.5895,-2.34612 -94.89844,-2.66797 L 96.677734,378 89.720703,300.66602 c -3.82672,-42.53333 -6.994462,-79.58204 -7.039062,-82.33204 z" />
  <path
     id="path119"
     style="fill:#e87557;stroke-width:1.33333337"
     d="m 262.49023,42.068359 c 0.39592,1.310198 0.7444,2.616723 0.0703,0.123047 -0.0293,-0.04989 -0.0417,-0.074 -0.0703,-0.123047 z M 62.587891,47.197266 c -0.183367,-0.055 0.398485,0.266436 0.705078,0.320312 -0.07847,-0.06799 -0.158184,-0.126008 -0.220703,-0.113281 -0.273885,-0.128064 -0.422819,-0.188568 -0.484375,-0.207031 z m -61.3203129,74.136714 0.082031,4.33204 c 0.04581,2.38333 8.9122046,103.03462 19.7031246,223.66796 l 19.621094,219.33204 89.296872,24.77343 c 86.66878,24.04432 89.47346,24.72744 95.29688,23.1875 14.80117,-3.91404 172.71175,-47.74615 173.10156,-48.04883 0.3392,-0.26333 40.1591,-442.10229 40.2168,-446.24414 0.008,-0.55 -98.38568,-1 -218.65235,-1 z M 301.11328,212.25977 c 35.73281,-0.0511 54.47336,0.19405 55.01172,0.73242 0.86552,0.86552 0.50934,10.50324 -1.04102,28.16211 L 352.72852,268 H 247.50977 142.29297 l 0.79101,7 c 0.43571,3.85 1.42412,14.49935 2.19532,23.66602 0.77119,9.16667 1.71039,18.61667 2.08789,21 L 148.05469,324 h 100.04492 100.04492 l -0.69922,3.66602 c -0.38543,2.01667 -3.82629,39.66796 -7.64453,83.66796 -3.81824,44 -7.30036,80.41208 -7.73828,80.91602 -0.43792,0.50393 -25.85707,7.85263 -56.48828,16.33203 -30.63121,8.4794 -56.13251,15.36564 -56.66797,15.30274 -0.88581,-0.10424 -111.38274,-30.83642 -111.83203,-31.10352 -0.42664,-0.25362 -7.144579,-77.79597 -7.142579,-82.44727 l 0.002,-5 H 127.18555 154.4375 L 155.17383,411 c 0.40576,3.11667 1.38972,12.86602 2.18555,21.66602 0.79579,8.8 1.85038,16.36856 2.34374,16.81836 1.2436,1.13371 56.54728,15.8496 59.56446,15.8496 3.34005,0 58.38171,-14.77609 59.80469,-16.05468 0.97353,-0.87475 7.77038,-68.05923 6.97265,-68.92188 -0.157,-0.16978 -42.84044,-0.76847 -94.85351,-1.33203 L 96.621094,378 89.677734,300.66602 C 85.858054,258.13269 82.702416,221.15789 82.666016,218.5 l -0.06641,-4.83203 136.105471,-0.99609 c 33.41207,-0.24449 60.96851,-0.38147 82.4082,-0.41211 z" />
  <path
     id="path117"
     style="fill:#ef6328;stroke-width:1.33333337"
     d="m 262.49023,42.068359 c 0.39592,1.310198 0.7444,2.616723 0.0703,0.123047 -0.0293,-0.04989 -0.0417,-0.074 -0.0703,-0.123047 z M 62.587891,47.197266 c -0.183367,-0.055 0.398485,0.266436 0.705078,0.320312 -0.07847,-0.06799 -0.158184,-0.126008 -0.220703,-0.113281 -0.273885,-0.128064 -0.422819,-0.188568 -0.484375,-0.207031 z M 219.9082,122.66602 c -120.252631,0 -218.6285781,0.45 -218.6132781,1 0.15422,5.53217 39.7635091,444.54953 40.1367191,444.86328 0.27626,0.23225 39.501296,11.26019 87.167969,24.50781 47.66667,13.24763 88.25359,24.13391 90.19336,24.19141 3.75376,0.11127 177.10732,-47.48455 178.81641,-49.09571 0.55502,-0.52322 9.67997,-98.41604 20.27734,-217.54101 10.59739,-119.12497 19.58128,-219.14116 19.96484,-222.25782 l 0.69727,-5.66796 z m 67.47852,89.56836 c 54.14582,0.0245 69.88779,0.42609 69.90039,1.42578 0.0116,0.9201 -1.00969,13.52253 -2.26953,28.00586 L 352.72852,268 h -105.125 -105.125 l 0.69726,4.33398 c 0.38343,2.38333 1.31319,12.13269 2.06641,21.66602 0.75323,9.53334 1.7242,20.18269 2.15625,23.66602 L 148.18359,324 h 100.04102 100.04297 l -0.68164,3.66602 c -0.37417,2.01667 -3.89369,40.03289 -7.82227,84.48046 l -7.14258,80.81446 -56.01171,15.52148 c -30.80558,8.53676 -56.90977,15.46112 -58.00977,15.38672 -2.00087,-0.13536 -111.03788,-30.51042 -111.66602,-31.10742 -0.18305,-0.17398 -1.8084,-17.06655 -3.61328,-37.53906 -1.80488,-20.47249 -3.628179,-40.08402 -4.050779,-43.58204 l -0.767578,-6.36132 28.382817,0.36132 28.38281,0.35938 1.86719,21.6875 1.86718,21.6875 6.79883,1.93555 c 21.52948,6.12433 51.95289,14.01611 53.88477,13.97851 2.8662,-0.0557 58.69053,-15.28819 59.68945,-16.28711 0.41106,-0.41105 1.87958,-13.55358 3.26172,-29.20703 1.38215,-15.65347 2.82656,-31.00735 3.21094,-34.11914 l 0.69922,-5.6582 -94.97266,-0.3418 -94.974611,-0.3418 L 89.748047,304 c -3.76824,-41.43333 -7.066931,-78.93398 -7.332031,-83.33398 l -0.482422,-8 137.666016,-0.33985 c 27.42233,-0.0676 49.7385,-0.1 67.78711,-0.0918 z" />
  <path
     id="path115"
     style="fill:#e34c25;stroke-width:1.33333337"
     d="m 262.49023,42.068359 c 0.39592,1.310198 0.7444,2.616723 0.0703,0.123047 -0.0293,-0.04989 -0.0417,-0.074 -0.0703,-0.123047 z M 62.587891,47.197266 c -0.183367,-0.055 0.398485,0.266436 0.705078,0.320312 -0.07847,-0.06799 -0.158184,-0.126008 -0.220703,-0.113281 -0.273885,-0.128064 -0.422819,-0.188568 -0.484375,-0.207031 z M 219.9082,122.66602 c -120.252631,0 -218.6264185,0.45 -218.6074188,1 0.2094401,6.05388 39.7820078,444.55782 40.1425778,444.82031 0.26991,0.19651 39.489578,11.21671 87.156251,24.48828 47.66667,13.27158 88.16667,24.18104 90,24.24414 3.53407,0.12146 177.29886,-47.54266 178.99805,-49.09961 0.54835,-0.50245 9.66921,-98.38396 20.26953,-217.51562 10.60031,-119.13165 19.59119,-219.15288 19.97851,-222.26954 l 0.70313,-5.66796 z m 0.0254,34.66796 h 89.33399 89.33203 l 0.004,3 c 0.0104,7.86029 -33.64917,379.10114 -34.43555,379.79883 -0.49578,0.43985 -32.70169,9.59319 -71.56836,20.33985 -38.86667,10.74665 -71.11602,19.5362 -71.66602,19.5332 -0.55,-0.003 -1,-12.50441 -1,-27.78125 v -27.77734 l -56.3125,-15.64649 c -30.97159,-8.60586 -56.47054,-15.80453 -56.66406,-15.99805 -0.19352,-0.19352 -1.83509,-17.10435 -3.64844,-37.57812 -1.81336,-20.47379 -3.637331,-40.08597 -4.052731,-43.58399 l -0.753906,-6.36132 28.382817,0.36132 28.38281,0.35938 1.83203,21.33398 c 1.00844,11.73333 2.02061,21.54464 2.24805,21.80274 0.47272,0.53645 58.06103,16.18636 59.58593,16.19336 0.55,0.002 1,-19.19739 1,-42.66406 V 380 h -61.375 C 110.6429,380 97.061856,379.63514 96.628906,378.33398 95.677866,375.47574 81.572661,214.05628 82.181641,213 c 0.31708,-0.55 31.440669,-1 69.164059,-1 h 68.58789 V 184.66602 Z M 142.47852,268 l 0.6914,4.33398 c 0.38031,2.38333 1.32581,12.13269 2.09961,21.66602 0.77381,9.53334 1.74554,20.18269 2.16016,23.66602 L 148.18359,324 h 35.875 35.875 v -28 -28 h -38.72656 z" />
  <path
     inkscape:connector-curvature="0"
     id="path113"
     d="M 41.26667,42 V 0 h 14 14 V 14 28 H 81.93333 94.6 V 14 0 h 14 14 v 42 42 h -14 -14 V 70 56 H 81.93333 69.26667 v 14 14 h -14 -14 z M 159.93333,56 V 28 H 147.26667 134.6 V 14 0 h 38.66667 38.66666 V 14 28 H 199.26667 186.6 v 28 28 h -13.33333 -13.33334 z m 64,-14 V 0 h 14.50063 14.50061 l 8.98676,14.74478 8.98675,14.74477 8.84596,-14.70273 L 288.6,0.08409 302.93333,0.04199 317.26667,-1e-5 v 42 42 h -13.2986 -13.29862 L 290.3014,63.66666 289.93333,43.33332 280.6,57.64112 c -5.13333,7.86928 -9.63333,14.29177 -10,14.27219 C 270.23333,71.89374 266.03333,65.63274 261.26667,58 256.5,50.36726 252.15,44.09477 251.6,44.06114 251.05,44.02751 250.6,53 250.6,64 v 20 h -13.33333 -13.33334 z m 108,0 V 0 h 14 14 V 28 56 H 379.26667 398.6 v 14 14 h -33.33333 -33.33334 z"
     style="fill:#030303;stroke-width:1.33333337" />
</svg>
