<?xml version="1.0" encoding="UTF-8" standalone="no"?>
<!-- Created with Inkscape (http://www.inkscape.org/) -->

<svg
   xmlns:dc="http://purl.org/dc/elements/1.1/"
   xmlns:cc="http://creativecommons.org/ns#"
   xmlns:rdf="http://www.w3.org/1999/02/22-rdf-syntax-ns#"
   xmlns:svg="http://www.w3.org/2000/svg"
   xmlns="http://www.w3.org/2000/svg"
   xmlns:sodipodi="http://sodipodi.sourceforge.net/DTD/sodipodi-0.dtd"
   xmlns:inkscape="http://www.inkscape.org/namespaces/inkscape"
   version="1.1"
   id="svg2"
   width="438.78998"
   height="618.56616"
   viewBox="0 0 438.78999 618.56617"
   sodipodi:docname="javascript.svg"
   inkscape:version="0.92.4 (f8dce91, 2019-08-02)">
  <metadata
     id="metadata8">
    <rdf:RDF>
      <cc:Work
         rdf:about="">
        <dc:format>image/svg+xml</dc:format>
        <dc:type
           rdf:resource="http://purl.org/dc/dcmitype/StillImage" />
        <dc:title></dc:title>
      </cc:Work>
    </rdf:RDF>
  </metadata>
  <defs
     id="defs6" />
  <sodipodi:namedview
     pagecolor="#ffffff"
     bordercolor="#666666"
     borderopacity="1"
     objecttolerance="10"
     gridtolerance="10"
     guidetolerance="10"
     inkscape:pageopacity="0"
     inkscape:pageshadow="2"
     inkscape:window-width="1598"
     inkscape:window-height="860"
     id="namedview4"
     showgrid="false"
     fit-margin-top="0"
     fit-margin-left="0"
     fit-margin-right="0"
     fit-margin-bottom="0"
     inkscape:zoom="0.69411765"
     inkscape:cx="-329.82212"
     inkscape:cy="216.68565"
     inkscape:window-x="0"
     inkscape:window-y="0"
     inkscape:window-maximized="1"
     inkscape:current-layer="svg2" />
  <g
     id="g289"
     transform="translate(-34.96849,-6.690454)">
    <path
       style="fill:#eaeaea;stroke-width:1.33333337"
       d="M 163.27875,600.70726 C 115.39872,587.31575 75.88838,576.02328 75.47798,575.61288 74.93385,575.06875 35.10587,135.49719 35.01417,129.02379 c -0.008,-0.55 98.68583,-1 219.31916,-1 207.98557,0 219.33529,0.12067 219.37119,2.33333 0.118,7.27451 -39.30866,443.87031 -40.17255,444.85527 -1.39479,1.59024 -176.69562,50.18649 -180.34256,49.99391 -1.57084,-0.0829 -42.03064,-11.10752 -89.91066,-24.49904 z m 5.05458,-525.350143 v -15.33333 h 22 22 V 33.35712 6.690454 H 229.66667 247 v 42.000003 42 H 207.66667 168.33333 Z M 259,76.731497 v -13.95897 l 15.98128,-0.37437 15.98127,-0.37437 -15.64794,-12.0395 -15.64794,-12.039495 -0.37566,-15.627169 -0.37564,-15.627169 h 39.37564 39.37566 V 22.023787 37.35712 h -16.22355 -16.22353 l 16.22353,12.815527 16.22355,12.81553 v 13.85114 13.85114 H 298.33333 259 Z"
       id="path269"
       inkscape:connector-curvature="0" />
    <path
       style="fill:#c8dfa7;stroke-width:1.33333337"
       d="M 163.86087,600.65514 C 115.56767,587.1993 75.77458,575.90948 75.43177,575.56667 75.00226,575.13715 35.0122,132.80403 35.00085,128.35712 c -4.6e-4,-0.18333 98.69915,-0.33333 219.33248,-0.33333 174.55244,0 219.34303,0.34028 219.38084,1.66667 0.15823,5.55173 -39.34027,444.53092 -40.07617,445.39933 -1.06275,1.25412 -177.03108,50.26443 -179.97133,50.12521 -1.1,-0.0521 -41.51262,-11.10401 -89.8058,-24.55986 z m 88.47178,-99.63135 -6.9e-4,-28.33333 -29.66597,-7.84472 c -16.3163,-4.3146 -29.89786,-8.04647 -30.18126,-8.29306 -0.46721,-0.4065 -3.96572,-35.3037 -4.09649,-40.86222 -0.0504,-2.14262 -2.23455,-2.33334 -26.72157,-2.33334 H 135 l 0.0767,6.33334 c 0.0422,3.48333 1.39441,22.7937 3.005,42.91193 l 2.92833,36.57859 54.66167,14.99776 c 30.06392,8.24877 55.11167,15.0384 55.66167,15.08806 0.55,0.0497 0.99969,-12.65968 0.99932,-28.24301 z m 115.57816,-18.58333 c -0.42562,-1.06364 -0.74157,-0.74771 -0.80554,0.80556 -0.0579,1.40554 0.25724,2.19305 0.70029,1.75 0.44305,-0.44306 0.49041,-1.59307 0.1052,-2.55556 z m 1.33334,-14.66667 c -0.42563,-1.06364 -0.74158,-0.74771 -0.80555,0.80556 -0.0579,1.40555 0.25724,2.19305 0.70029,1.75 0.44306,-0.44305 0.49042,-1.59307 0.1052,-2.55556 z m 1.33333,-14.66667 c -0.42563,-1.06364 -0.74157,-0.7477 -0.80555,0.80556 -0.0579,1.40555 0.25724,2.19306 0.7003,1.75 0.44305,-0.44305 0.49041,-1.59306 0.1052,-2.55556 z m -54.66667,-4 c -0.42562,-1.06364 -0.74157,-0.7477 -0.80554,0.80556 -0.0579,1.40555 0.25722,2.19306 0.70029,1.75 0.44305,-0.44305 0.49041,-1.59306 0.1052,-2.55556 z m 56,-10.66666 c -0.42562,-1.06364 -0.74157,-0.74771 -0.80554,0.80556 -0.0579,1.40554 0.25724,2.19305 0.70029,1.75 0.44305,-0.44306 0.49041,-1.59307 0.1052,-2.55556 z m 1.33334,-14.66667 c -0.42563,-1.06364 -0.74158,-0.74771 -0.80555,0.80556 -0.0579,1.40555 0.25724,2.19305 0.70029,1.75 0.44306,-0.44305 0.49042,-1.59307 0.1052,-2.55556 z m -54.66667,-2.66667 c -0.42563,-1.06364 -0.74157,-0.7477 -0.80555,0.80556 -0.0579,1.40555 0.25723,2.19306 0.7003,1.75 0.44305,-0.44305 0.49041,-1.59306 0.1052,-2.55556 z m 4,-41.33333 c -0.42563,-1.06364 -0.74157,-0.74771 -0.80555,0.80556 -0.0579,1.40555 0.25723,2.19305 0.7003,1.75 0.44305,-0.44305 0.49041,-1.59307 0.1052,-2.55556 z m 2.66667,-28 c -0.42563,-1.06364 -0.74158,-0.74771 -0.80555,0.80556 -0.0579,1.40555 0.25723,2.19305 0.70029,1.75 0.44306,-0.44305 0.49042,-1.59307 0.1052,-2.55556 z m 2.66666,-28 c -0.42562,-1.06364 -0.74157,-0.74771 -0.80554,0.80556 -0.0579,1.40555 0.25722,2.19305 0.70029,1.75 0.44305,-0.44305 0.49041,-1.59307 0.1052,-2.55556 z m 56,-18.66667 c -0.42563,-1.06364 -0.74157,-0.7477 -0.80555,0.80556 -0.0579,1.40555 0.25724,2.19306 0.7003,1.75 0.44305,-0.44306 0.49041,-1.59306 0.1052,-2.55556 z m -53.33333,-9.33333 c -0.42563,-1.06364 -0.74157,-0.74771 -0.80555,0.80556 -0.0579,1.40555 0.25723,2.19305 0.7003,1.75 0.44305,-0.44307 0.49041,-1.59307 0.1052,-2.55556 z m 54.66666,-5.33333 c -0.42562,-1.06364 -0.74157,-0.74771 -0.80554,0.80556 -0.0579,1.40554 0.25724,2.19305 0.70029,1.75 0.44305,-0.44307 0.49041,-1.59307 0.1052,-2.55556 z m 1.33334,-14.66667 c -0.42563,-1.06364 -0.74158,-0.74771 -0.80555,0.80556 -0.0579,1.40555 0.25724,2.19305 0.70029,1.75 0.44306,-0.44307 0.49042,-1.59307 0.1052,-2.55556 z M 252.33333,246.69046 v -26.66667 h -67.87312 -67.87312 l 0.53481,5 c 0.74368,6.95279 3.21144,41.84608 3.21144,45.40875 v 2.92458 h 65.99999 66 z m 135.57748,14.41666 c -0.42563,-1.06364 -0.74157,-0.7477 -0.80555,0.80556 -0.0579,1.40555 0.25724,2.19306 0.7003,1.75 0.44305,-0.44306 0.49041,-1.59306 0.1052,-2.55556 z m 1.33333,-14.66666 c -0.42562,-1.06364 -0.74157,-0.74771 -0.80554,0.80556 -0.0579,1.40554 0.25724,2.19305 0.70029,1.75 0.44305,-0.44307 0.49041,-1.59307 0.1052,-2.55556 z m 1.33334,-14.66667 c -0.42563,-1.06364 -0.74158,-0.74771 -0.80555,0.80556 -0.0579,1.40555 0.25724,2.19305 0.70029,1.75 0.44306,-0.44307 0.49042,-1.59307 0.1052,-2.55556 z M 357.33333,219.0248 c -18.88333,-0.20865 -49.78333,-0.20865 -68.66666,0 -18.88334,0.20866 -3.43334,0.37936 34.33333,0.37936 37.76667,0 53.21666,-0.1707 34.33333,-0.37936 z M 168.623,75.690457 l 0.377,-15 21.66667,-0.36636 21.66666,-0.36637 V 33.324092 6.690454 H 229.66667 247 v 42.000003 42 H 207.623 168.246 Z M 259,76.731497 v -13.95897 l 15.95028,-0.37437 15.95027,-0.37437 L 274.95028,49.644917 259,37.266048 V 21.978251 6.690454 h 39.33333 39.33334 v 15.292294 15.292295 l -15.91762,0.374372 -15.9176,0.374372 15.9176,12.51396 15.91762,12.51397 v 13.81937 13.81937 H 298.33333 259 Z"
       id="path267"
       inkscape:connector-curvature="0" />
    <path
       style="fill:#ffffff;stroke-width:1.33333337"
       d="M 164.33333,600.44582 C 115.56667,586.85536 75.55363,575.63764 75.41547,575.51754 75.27731,575.39744 66.43467,476.91222 55.76515,356.66148 45.09563,236.41075 36.05158,135.77379 35.66726,133.02379 l -0.69877,-5 h 219.34908 c 120.642,0 219.34909,0.41149 219.34909,0.91444 0,2.39813 -38.7284,436.45044 -39.3661,441.19941 l -0.73147,5.44719 -89.73224,24.88615 c -49.35274,13.68738 -89.98078,24.84084 -90.28456,24.78545 -0.30376,-0.0554 -40.45229,-11.22016 -89.21896,-24.81061 z m 88.28282,-98.42079 c -0.35804,-26.74073 -0.22359,-28.67831 2,-28.82257 1.97328,-0.128 1.92457,-0.25288 -0.28282,-0.7249 -8.48609,-1.81461 -60.15421,-15.6549 -60.93081,-16.32149 -0.51196,-0.43943 -1.56851,-7.69895 -2.34791,-16.13228 -0.77938,-8.43333 -1.74728,-17.88333 -2.15088,-21 l -0.7338,-5.66667 h -27.36882 -27.36884 l 0.75243,5 c 0.41383,2.75 2.03386,22.1 3.60006,43 1.5662,20.9 2.93035,38.05976 3.03144,38.13279 0.1011,0.0731 25.3838,7.07537 56.1838,15.56075 30.8,8.48537 56,15.47617 56,15.53512 0,0.0589 -0.17273,-12.7934 -0.38385,-28.56075 z m 113.96133,-4.91791 c -0.42563,-1.06364 -0.74157,-0.7477 -0.80555,0.80556 -0.0579,1.40555 0.25724,2.19306 0.7003,1.75 0.44305,-0.44305 0.49041,-1.59306 0.1052,-2.55556 z m 1.34163,-14.08333 c -0.33538,-1.28333 -0.60978,-0.23333 -0.60978,2.33333 0,2.56667 0.2744,3.61667 0.60978,2.33334 0.33536,-1.28334 0.33536,-3.38334 0,-4.66667 z m 1.33333,-14.66667 c -0.33537,-1.28333 -0.60977,-0.23333 -0.60977,2.33334 0,2.56666 0.2744,3.61666 0.60977,2.33333 0.33536,-1.28333 0.33536,-3.38333 0,-4.66667 z m 1.33821,-14.64129 c -0.33805,-1.29729 -0.63688,-0.55871 -0.66405,1.64129 -0.0272,2.2 0.24941,3.26142 0.61465,2.35871 0.36523,-0.90271 0.38746,-2.70271 0.0495,-4 z m -54.66666,-6.66667 c -0.33806,-1.29729 -0.63688,-0.5587 -0.66406,1.6413 -0.0272,2.2 0.24942,3.26141 0.61466,2.3587 0.36522,-0.9027 0.38745,-2.7027 0.0495,-4 z m 56,-8 c -0.33806,-1.29729 -0.63688,-0.5587 -0.66406,1.6413 -0.0272,2.2 0.24942,3.26141 0.61466,2.3587 0.36522,-0.9027 0.38745,-2.7027 0.0495,-4 z m -54.66667,-6.66666 c -0.33805,-1.2973 -0.63688,-0.55871 -0.66405,1.64129 -0.0272,2.2 0.24941,3.26141 0.61465,2.35871 0.36523,-0.90271 0.38745,-2.70271 0.0495,-4 z m 56,-8 c -0.33805,-1.2973 -0.63688,-0.55871 -0.66405,1.64129 -0.0272,2.2 0.24941,3.26141 0.61465,2.35871 0.36523,-0.90271 0.38745,-2.70271 0.0495,-4 z m -54.66667,-5.33334 c -0.33805,-1.29729 -0.63688,-0.5587 -0.66405,1.6413 -0.0272,2.2 0.24941,3.26141 0.61465,2.3587 0.36523,-0.9027 0.38746,-2.7027 0.0495,-4 z m 56,-9.33333 c -0.33805,-1.29729 -0.63688,-0.55871 -0.66405,1.64129 -0.0272,2.2 0.24941,3.26142 0.61465,2.35871 0.36523,-0.90271 0.38746,-2.70271 0.0495,-4 z m -54.66666,-5.33333 c -0.33806,-1.2973 -0.63688,-0.55871 -0.66406,1.64129 -0.0272,2.2 0.24942,3.26141 0.61466,2.35871 0.36522,-0.90271 0.38745,-2.70271 0.0495,-4 z m 55.99999,-9.33334 c -0.33805,-1.29729 -0.63687,-0.5587 -0.66405,1.6413 -0.0272,2.2 0.24942,3.26141 0.61465,2.3587 0.36523,-0.9027 0.38746,-2.7027 0.0495,-4 z m -54.66666,-4 c -0.33805,-1.29729 -0.63688,-0.5587 -0.66405,1.6413 -0.0272,2.2 0.24941,3.26141 0.61465,2.3587 0.36523,-0.9027 0.38745,-2.7027 0.0495,-4 z m 56,-10.66666 c -0.33806,-1.2973 -0.63688,-0.55871 -0.66406,1.64129 -0.0272,2.2 0.24942,3.26141 0.61466,2.35871 0.36522,-0.90271 0.38745,-2.70271 0.0495,-4 z m -54.66667,-2.66667 c -0.33805,-1.29729 -0.63688,-0.55871 -0.66405,1.64129 -0.0272,2.2 0.24941,3.26142 0.61465,2.35871 0.36523,-0.90271 0.38746,-2.70271 0.0495,-4 z m 56,-12 c -0.33805,-1.29729 -0.63688,-0.55871 -0.66405,1.64129 -0.0272,2.2 0.24941,3.26142 0.61465,2.35871 0.36523,-0.90271 0.38745,-2.70271 0.0495,-4 z m -54.66666,-2.66667 c -0.33806,-1.29729 -0.63688,-0.5587 -0.66406,1.6413 -0.0272,2.2 0.24942,3.26141 0.61466,2.3587 0.36522,-0.9027 0.38745,-2.7027 0.0495,-4 z m 55.99999,-12 c -0.33805,-1.29729 -0.63688,-0.5587 -0.66405,1.6413 -0.0272,2.2 0.24941,3.26141 0.61465,2.3587 0.36523,-0.9027 0.38746,-2.7027 0.0495,-4 z m -54.66666,-1.33333 c -0.33805,-1.29729 -0.63688,-0.55871 -0.66405,1.64129 -0.0272,2.2 0.24941,3.26142 0.61465,2.35871 0.36523,-0.90271 0.38745,-2.70271 0.0495,-4 z m 56,-13.33333 c -0.33806,-1.2973 -0.63688,-0.55871 -0.66406,1.64129 -0.0272,2.2 0.24942,3.26141 0.61466,2.35871 0.36522,-0.90271 0.38745,-2.70271 0.0495,-4 z m -54.66667,-1.33334 c -0.33805,-1.29729 -0.63688,-0.5587 -0.66405,1.6413 -0.0272,2.2 0.24941,3.26141 0.61465,2.3587 0.36523,-0.9027 0.38746,-2.7027 0.0495,-4 z m 1.33334,-13.33333 c -0.33806,-1.29729 -0.63688,-0.55871 -0.66406,1.64129 -0.0272,2.2 0.24942,3.26142 0.61466,2.35871 0.36522,-0.90271 0.38745,-2.70271 0.0495,-4 z m 54.66666,0 c -0.33805,-1.29729 -0.63688,-0.55871 -0.66405,1.64129 -0.0272,2.2 0.24941,3.26142 0.61465,2.35871 0.36523,-0.90271 0.38745,-2.70271 0.0495,-4 z m -53.33333,-14.66667 c -0.33805,-1.29729 -0.63688,-0.5587 -0.66405,1.6413 -0.0272,2.2 0.24941,3.26141 0.61465,2.3587 0.36523,-0.9027 0.38745,-2.7027 0.0495,-4 z m 54.66178,-1.3587 c -0.33537,-1.28334 -0.60977,-0.23334 -0.60977,2.33333 0,2.56667 0.2744,3.61667 0.60977,2.33333 0.33536,-1.28333 0.33536,-3.38333 0,-4.66666 z m -53.32845,-11.97463 c -0.33805,-1.29729 -0.63688,-0.55871 -0.66405,1.64129 -0.0272,2.2 0.24941,3.26142 0.61465,2.35871 0.36523,-0.90271 0.38746,-2.70271 0.0495,-4 z m 54.66179,-2.69204 c -0.33538,-1.28333 -0.60978,-0.23333 -0.60978,2.33333 0,2.56667 0.2744,3.61667 0.60978,2.33334 0.33536,-1.28334 0.33536,-3.38334 0,-4.66667 z m -53.32845,-11.97463 c -0.33806,-1.29729 -0.63688,-0.5587 -0.66406,1.6413 -0.0272,2.2 0.24942,3.26141 0.61466,2.3587 0.36522,-0.9027 0.38745,-2.7027 0.0495,-4 z m 54.66178,-2.69204 c -0.33537,-1.28333 -0.60977,-0.23333 -0.60977,2.33334 0,2.56666 0.2744,3.61666 0.60977,2.33333 0.33536,-1.28333 0.33536,-3.38333 0,-4.66667 z M 252.33333,246.69046 v -26.66667 h 69.22223 c 54.13021,0 69.36884,0.36337 69.89473,1.66667 0.40176,0.99565 0.71489,0.72725 0.77777,-0.66667 0.0996,-2.20787 -7.31494,-2.33333 -137.89473,-2.33333 -109.53136,0 -137.99216,0.34382 -137.96201,1.66666 0.0209,0.91667 0.90379,12.76667 1.96202,26.33334 1.05822,13.56666 1.94113,25.11666 1.96202,25.66666 0.0209,0.55 29.73797,1 66.03797,1 h 66 z m 135.59065,15.02537 c -0.33805,-1.29729 -0.63688,-0.55871 -0.66405,1.64129 -0.0272,2.2 0.24941,3.26142 0.61465,2.35871 0.36523,-0.90271 0.38746,-2.70271 0.0495,-4 z m 1.33334,-14.66667 c -0.33806,-1.29729 -0.63688,-0.5587 -0.66406,1.6413 -0.0272,2.2 0.24942,3.26141 0.61466,2.3587 0.36522,-0.9027 0.38745,-2.7027 0.0495,-4 z m 1.33333,-14.66666 c -0.33805,-1.2973 -0.63688,-0.55871 -0.66405,1.64129 -0.0272,2.2 0.24941,3.26141 0.61465,2.35871 0.36523,-0.90271 0.38745,-2.70271 0.0495,-4 z M 169.66667,75.357117 v -15.33333 h 22 22 V 33.35712 6.690454 H 230.33333 247 v 42.000003 42 h -38.66667 -38.66666 z m 89.62002,1.66667 0.37998,-13.66667 16,-0.66666 16,-0.66667 L 275.33333,49.508367 259,36.992951 V 21.841702 6.690454 h 39.33333 39.33334 v 15.292294 15.292295 l -16.21406,0.374372 -16.21406,0.374372 16.2132,12.66667 16.21318,12.66666 8.7e-4,13.66667 8.7e-4,13.66667 h -39.37998 -39.37998 z"
       id="path265"
       inkscape:connector-curvature="0" />
    <path
       style="fill:#a4d164;stroke-width:1.33333337"
       d="M 164.33333,600.44582 C 115.56667,586.85536 75.55363,575.63764 75.41547,575.51754 75.27731,575.39744 66.43467,476.91222 55.76515,356.66148 45.09563,236.41075 36.05158,135.77379 35.66726,133.02379 l -0.69877,-5 h 219.34908 c 120.642,0 219.34909,0.41149 219.34909,0.91444 0,2.39813 -38.7284,436.45044 -39.3661,441.19941 l -0.73147,5.44719 -89.73224,24.88615 c -49.35274,13.68738 -89.98078,24.84084 -90.28456,24.78545 -0.30376,-0.0554 -40.45229,-11.22016 -89.21896,-24.81061 z m 147.33334,-85.74771 c 30.06666,-8.28025 54.75632,-15.11935 54.8659,-15.19799 0.1096,-0.0787 5.65159,-61.043 12.31557,-135.47633 6.66399,-74.43333 12.43142,-137.58333 12.81652,-140.33333 l 0.70019,-5 H 254.34909 c -109.54397,0 -138.00792,0.34382 -137.97777,1.66666 0.0209,0.91667 0.90379,12.76667 1.96202,26.33334 1.05822,13.56666 1.94113,25.11666 1.96202,25.66666 0.0209,0.55 47.74507,1 106.05373,1 h 106.01576 l -0.6982,5 c -0.384,2.75 -4.35105,43.7 -8.81568,91 -4.46462,47.3 -8.50753,86.35676 -8.98424,86.7928 -1.20213,1.0996 -56.69532,15.86838 -59.73429,15.8975 -2.94557,0.0283 -59.39079,-14.74194 -60.72992,-15.89135 -0.51196,-0.43943 -1.56851,-7.69895 -2.34791,-16.13228 -0.77938,-8.43333 -1.74728,-17.88333 -2.15088,-21 l -0.7338,-5.66667 h -27.36882 -27.36884 l 0.75243,5 c 0.41383,2.75 2.03386,22.1 3.60006,43 1.5662,20.9 2.93035,38.05976 3.03144,38.13279 1.46632,1.05939 112.75275,30.93808 114.1838,30.6566 1.1,-0.21637 26.6,-7.16815 56.66667,-15.4484 z m -142,-439.340993 v -15.33333 h 22 22 V 33.35712 6.690454 H 230.33333 247 v 42.000003 42 h -38.66667 -38.66666 z m 89.62002,1.66667 0.37998,-13.66667 16,-0.66666 16,-0.66667 L 275.33333,49.508367 259,36.992951 V 21.841702 6.690454 h 39.33333 39.33334 v 15.292294 15.292295 l -16.21406,0.374372 -16.21406,0.374372 16.2132,12.66667 16.21318,12.66666 8.7e-4,13.66667 8.7e-4,13.66667 h -39.37998 -39.37998 z"
       id="path263"
       inkscape:connector-curvature="0" />
    <path
       style="fill:#87bb4c;stroke-width:1.33333337"
       d="M 165,600.43915 C 116.6,586.91714 76.61201,575.44195 76.13781,574.93874 75.31864,574.06946 36.26008,139.38547 36.30969,131.69046 l 0.0236,-3.66667 h 218.71258 218.7126 l -0.75174,6.33333 c -0.41345,3.48334 -9.44809,104.09731 -20.07698,223.58662 -10.62888,119.4893 -19.46127,217.34353 -19.62752,217.45382 -0.42223,0.28015 -175.84571,48.69395 -178.30228,49.20831 -1.1,0.23032 -41.6,-10.64471 -90,-24.16672 z M 310.6422,515.3911 c 30.47053,-8.41466 55.64257,-15.54098 55.93787,-15.83627 0.38196,-0.38196 25.75326,-276.63472 25.75326,-280.41165 0,-0.24899 -62.1,-0.45272 -138,-0.45272 -130.53605,0 -138.00051,0.12626 -138.00951,2.33333 -0.018,4.41957 2.79094,43.67355 3.41922,47.78199 l 0.62933,4.11532 104.89943,0.91473 c 57.69469,0.50312 105.18589,1.20121 105.53601,1.55132 1.22614,1.22613 -16.17736,178.62371 -17.6659,180.07233 -0.81138,0.78963 -14.49616,4.91855 -30.41063,9.17538 l -28.9354,7.73966 -29.29624,-7.70049 c -16.11293,-4.23527 -29.88513,-8.06444 -30.60488,-8.50927 -0.71975,-0.44482 -2.00376,-9.20852 -2.85336,-19.47488 -0.8496,-10.26634 -1.81792,-20.01609 -2.1518,-21.66609 -0.6058,-2.99369 -0.66443,-3 -27.915,-3 -15.14979,0 -27.30793,0.53049 -27.30793,1.19153 0,2.94426 6.78053,86.03178 7.04095,86.27864 0.53762,0.50964 110.93309,30.92247 112.74633,31.06047 0.983,0.0748 26.71772,-6.74868 57.18825,-15.16333 z M 169.66667,75.357117 v -15.33333 h 22 22 V 33.35712 6.690454 H 230.33333 247 v 42.000003 42 h -38.66667 -38.66666 z m 89.62002,1.66667 0.37998,-13.66667 16,-0.66666 16,-0.66667 L 275.33333,49.508367 259,36.992951 V 21.841702 6.690454 h 39.33333 39.33334 v 15.292294 15.292295 l -16.21406,0.374372 -16.21406,0.374372 16.2132,12.66667 16.21318,12.66666 8.7e-4,13.66667 8.7e-4,13.66667 h -39.37998 -39.37998 z"
       id="path261"
       inkscape:connector-curvature="0" />
    <path
       style="fill:#89cd16;stroke-width:1.33333337"
       d="M 163.28525,599.58776 C 87.7675,578.5667 76.16279,575.0039 75.6755,572.69046 74.6341,567.74636 36.12188,130.45747 36.6788,129.90055 c 0.30328,-0.30328 98.60529,-0.39961 218.44892,-0.21408 l 217.8975,0.33732 -19.56826,218.66667 C 442.6944,468.95712 433.68873,569.12139 433.44434,571.27772 L 433,575.19831 345,599.59696 c -48.4,13.41926 -89.5,24.35878 -91.33333,24.31004 -1.83334,-0.0488 -42.50496,-10.99238 -90.38142,-24.31924 z M 310.6422,515.3911 c 30.47053,-8.41466 55.64257,-15.54098 55.93787,-15.83627 0.38196,-0.38196 25.75326,-276.63472 25.75326,-280.41165 0,-0.24899 -62.1,-0.45272 -138,-0.45272 H 116.33334 l 0.12508,7 c 0.0688,3.85 0.81879,16.3 1.66666,27.66666 l 1.54159,20.66667 105.66666,0.34136 c 99.46038,0.32132 105.66883,0.47793 105.70346,2.66667 0.14526,9.1829 -16.71642,177.2744 -17.89852,178.42766 -0.80938,0.78963 -14.4167,4.898 -30.23848,9.12972 l -28.7669,7.69404 -30.3904,-8.0648 c -16.71472,-4.43564 -30.53001,-8.24401 -30.70065,-8.46305 -0.17064,-0.21905 -1.14985,-9.99827 -2.17604,-21.7316 L 189,412.69046 l -27.66667,-0.36039 -27.66666,-0.36039 0.012,3.69372 c 0.0216,6.68523 6.44924,83.26604 7.03812,83.85492 0.74632,0.74632 110.38278,30.9808 112.73719,31.08956 0.983,0.0455 26.71772,-6.80213 57.18826,-15.21678 z M 169.66667,76.056817 v -14.63364 l 21.66666,-0.36636 21.66667,-0.36636 0.36095,-27.000003 0.36093,-27 H 230.36095 247 v 42.000003 42 H 208.33333 169.66667 Z M 259,77.357117 v -13.33333 h 16.66667 c 9.16666,0 16.63277,-0.45 16.59134,-1 -0.0415,-0.55 -7.54141,-6.67555 -16.66666,-13.61234 L 259,36.799115 V 21.744784 6.690454 h 39.33333 39.33334 v 15.292294 15.292295 l -16.31502,0.374372 -16.315,0.374372 16.26432,12.66667 16.26434,12.66666 0.0507,13.66667 0.0507,13.66667 h -39.33334 -39.33333 z"
       id="path259"
       inkscape:connector-curvature="0" />
    <path
       style="fill:#62a713;stroke-width:1.33333337"
       d="M 163.28525,599.58776 C 87.7675,578.5667 76.16279,575.0039 75.6755,572.69046 74.6341,567.74636 36.12188,130.45747 36.6788,129.90055 c 0.30328,-0.30328 98.60529,-0.39961 218.44892,-0.21408 l 217.8975,0.33732 -19.56826,218.66667 C 442.6944,468.95712 433.68873,569.12139 433.44434,571.27772 L 433,575.19831 345,599.59696 c -48.4,13.41926 -89.5,24.35878 -91.33333,24.31004 -1.83334,-0.0488 -42.50496,-10.99238 -90.38142,-24.31924 z M 328.33333,566.8677 c 61.3428,-16.95204 71.38023,-20.07223 71.66815,-22.27842 0.37204,-2.8508 33.66518,-378.37248 33.66518,-379.71805 0,-0.46609 -40.5,-0.84744 -89.99999,-0.84744 h -90 v 27.33333 27.33334 H 185 116.33334 l 0.12508,7 c 0.0688,3.85 0.81879,16.3 1.66666,27.66666 l 1.54159,20.66667 67,0.34567 67,0.34566 v 98.65434 c 0,54.25988 -0.15,98.6509 -0.33334,98.64672 -1.04617,-0.0239 -60.04078,-15.93726 -60.29477,-16.26407 -0.16884,-0.21724 -1.14657,-9.99499 -2.17276,-21.72832 L 189,412.69046 l -27.66667,-0.36039 -27.66666,-0.36039 0.012,3.69372 c 0.0213,6.59242 6.44505,83.26186 7.0246,83.8414 0.44291,0.44291 80.70595,22.7225 107.29677,29.78366 l 5.66666,1.50478 v 27.9486 c 0,21.4993 0.3846,27.93594 1.66667,27.89368 0.91667,-0.0301 33.76667,-8.92573 73,-19.76782 z M 169.66667,76.056817 v -14.63364 l 21.66666,-0.36636 21.66667,-0.36636 0.36095,-27.000003 0.36093,-27 H 230.36095 247 v 42.000003 42 H 208.33333 169.66667 Z M 259,77.357117 v -13.33333 h 16.66667 c 9.16666,0 16.63277,-0.45 16.59134,-1 -0.0415,-0.55 -7.54141,-6.67555 -16.66666,-13.61234 L 259,36.799115 V 21.744784 6.690454 h 39.33333 39.33334 v 15.292294 15.292295 l -16.31502,0.374372 -16.315,0.374372 16.26432,12.66667 16.26434,12.66666 0.0507,13.66667 0.0507,13.66667 h -39.33334 -39.33333 z"
       id="path257"
       inkscape:connector-curvature="0" />
    <path
       style="fill:#4d4d4d;stroke-width:1.33333337"
       d="m 169.66667,76.056817 v -14.63364 l 21.66666,-0.36636 21.66667,-0.36636 0.36095,-27.000003 0.36093,-27 H 230.36095 247 v 42.000003 42 H 208.33333 169.66667 Z M 259,77.357117 v -13.33333 h 16.66667 c 9.16666,0 16.63277,-0.45 16.59134,-1 -0.0415,-0.55 -7.54141,-6.67555 -16.66666,-13.61234 L 259,36.799115 V 21.744784 6.690454 h 39.33333 39.33334 v 15.292294 15.292295 l -16.31502,0.374372 -16.315,0.374372 16.26432,12.66667 16.26434,12.66666 0.0507,13.66667 0.0507,13.66667 h -39.33334 -39.33333 z"
       id="path255"
       inkscape:connector-curvature="0" />
    <path
       style="fill:#000000;stroke-width:1.33333337"
       d="m 169.66667,75.357117 v -14 h 22 22 V 34.023787 6.690454 h 16 16 v 41.333333 41.33333 h -38 -38 z m 90.66666,1.37317 v -12.62683 l 16.87787,-0.37317 16.87788,-0.37317 L 277.2112,50.314567 260.33333,37.272008 V 21.981231 6.690454 H 299 337.66667 V 21.35712 36.023787 h -16.77778 c -9.62854,0 -16.5884,0.521941 -16.33333,1.224888 0.24444,0.673688 7.79444,7.009715 16.77777,14.080062 l 16.33334,12.85517 v 12.58661 12.5866 H 299 260.33333 Z"
       id="path253"
       inkscape:connector-curvature="0" />
  </g>
</svg>
